<?xml version="1.0" encoding="utf-8"?>
<!-- Generator: Adobe Illustrator 19.2.1, SVG Export Plug-In . SVG Version: 6.00 Build 0)  -->
<svg version="1.1" id="Layer_1" xmlns="http://www.w3.org/2000/svg" xmlns:xlink="http://www.w3.org/1999/xlink" x="0px" y="0px"
	 viewBox="0 0 1428.9 2238.1" style="enable-background:new 0 0 1428.9 2238.1;" xml:space="preserve">
<style type="text/css">
	.st0{fill:none;stroke:#FFF200;stroke-width:60;stroke-miterlimit:10;}
	.st1{fill:none;stroke:#9B8579;stroke-width:60;stroke-miterlimit:10;}
	.st2{fill:#F26522;}
	.st3{font-family: 'Myriad Pro', 'DejaVu Sans Condensed', Helvetica, Arial, sans-serif; }
	.st4{font-size:60px;}
	.st5{letter-spacing:1;}
	.st6{font-size:48px;}
	.st7{font-size:36px;}
	.st8{fill:none;stroke:#8DC63F;stroke-width:60;stroke-miterlimit:10;stroke-opacity:0.5;}
	.st9{fill:none;stroke:#7F3F98;stroke-width:60;stroke-miterlimit:10;stroke-opacity:0.5;}
	.st10{fill:none;stroke:#27AAE1;stroke-width:60;stroke-miterlimit:10;stroke-opacity:0.5;}
	.st11{fill:none;stroke:#EF4136;stroke-width:60;stroke-miterlimit:10;stroke-opacity:0.5;}
	.st12{font-size:24px;}
	.st13{fill:none;stroke:#6D6E71;stroke-width:60;stroke-miterlimit:10;stroke-opacity:0.5;}
	.st14{fill:none;stroke:#7F3F98;stroke-width:40;stroke-miterlimit:10;stroke-opacity:0.5;}
	.st15{fill:none;stroke:#9B8579;stroke-width:40;stroke-miterlimit:10;}
	.st16{fill:none;stroke:#27AAE1;stroke-width:40;stroke-miterlimit:10;stroke-opacity:0.5;}
	.st17{fill:none;stroke:#8DC63F;stroke-width:40;stroke-miterlimit:10;stroke-opacity:0.5;}
	.st18{fill:none;stroke:#EF4136;stroke-width:40;stroke-miterlimit:10;stroke-opacity:0.5;}
	.st19{fill:none;stroke:#6D6E71;stroke-width:40;stroke-miterlimit:10;stroke-opacity:0.5;}
	.st20{fill:none;stroke:#FFF200;stroke-width:40;stroke-miterlimit:10;}
	.st21{font-size:48px; fill: red; }
</style>
<line style="fill:none;stroke:#ED1C24;stroke-width:1;" id="marker" x1="0" y1="100" x2="1" y2="2100"/>
<text transform="matrix(1 0 0 1 1258 50)" id="markerDate" class="st3 st21">0</text>

<line class="st0" x1="298.6" y1="156.1" x2="554" y2="156.1"/>
<line class="st1" x1="480.1" y1="235.9" x2="605.7" y2="235.9"/>
<line class="st0" x1="538.8" y1="1425.6" x2="848.9" y2="1425.6"/>
<text transform="matrix(1 0 0 1 35.1375 50.2202)"><tspan x="0" y="0" class="st2 st3 st4">“16</tspan><tspan x="82.8" y="0" class="st2 st3 st4 st5"> </tspan><tspan x="96.7" y="0" class="st2 st3 st4">Kingdoms” period</tspan></text>
<text transform="matrix(1 0 0 1 82.7894 166.0709)" class="st3 st6">Western Jin</text>
<text transform="matrix(1 0 0 1 56.4832 246.6003)" class="st3 st6">Former Zhao</text>
<text transform="matrix(1 0 0 1 91.2854 1866.5631)" class="st3 st6">Cheng Han</text>
<text transform="matrix(1 0 0 1 48.6603 1446.5635)" class="st3 st6">Former Liang</text>
<text transform="matrix(1 0 0 1 1234.9668 166.0707)" class="st3 st7">266-317</text>
<text transform="matrix(1 0 0 1 1234.9668 246.6002)" class="st3 st7">304-329</text>
<text transform="matrix(1 0 0 1 1235.3555 1866.563)" class="st3 st7">304-347</text>
<text transform="matrix(1 0 0 1 1234.9668 1446.5634)" class="st3 st7">314-376</text>
<line class="st8" x1="479.5" y1="1856.2" x2="694.5" y2="1856.2"/>
<text transform="matrix(1 0 0 1 248.1949 1286.5635)" class="st3 st6">Dai</text>
<text transform="matrix(1 0 0 1 1234.9668 1276.5634)" class="st3 st7">315-376</text>
<line class="st9" x1="543.8" y1="1266" x2="848.9" y2="1266"/>
<text transform="matrix(1 0 0 1 99.5946 326.0709)" class="st3 st6">Later Zhao</text>
<text transform="matrix(1 0 0 1 1235.3002 316.0707)" class="st3 st7">319-351</text>
<line class="st10" x1="563.2" y1="315.5" x2="723.6" y2="315.5"/>
<text transform="matrix(1 0 0 1 80.4127 485.6983)" class="st3 st6">Former Yan</text>
<text transform="matrix(1 0 0 1 1234.9668 475.6982)" class="st3 st7">337-370</text>
<line class="st9" x1="653.8" y1="466.1" x2="819.5" y2="466.1"/>
<line class="st0" x1="718.5" y1="395.7" x2="729.1" y2="395.7"/>
<text transform="matrix(1 0 0 1 148.5347 405.7299)" class="st3 st6">Ran Wei</text>
<text transform="matrix(1 0 0 1 1235.6334 395.7297)" class="st3 st7">350-352</text>
<text transform="matrix(1 0 0 1 83.2122 965.6516)" class="st3 st6">Former Qin</text>
<text transform="matrix(1 0 0 1 1235.3555 955.6514)" class="st3 st7">351-394</text>
<line class="st8" x1="723.1" y1="946.2" x2="937.9" y2="946.2"/>
<text transform="matrix(1 0 0 1 127.3219 1125.8085)" class="st3 st6">Later Qin</text>
<text transform="matrix(1 0 0 1 1235.6888 1115.8083)" class="st3 st7">384-421</text>
<line class="st11" x1="888.4" y1="1106.4" x2="1073.8" y2="1106.4"/>
<text transform="matrix(1 0 0 1 60.6778 726.1494)" class="st3 st6">Western Yan</text>
<text transform="matrix(1 0 0 1 1234.9668 716.1492)" class="st3 st7">384-394</text>
<line class="st9" x1="888.4" y1="705.6" x2="939" y2="705.6"/>
<text transform="matrix(1 0 0 1 126.8562 566.3063)" class="st3 st6">Later Yan</text>
<text transform="matrix(1 0 0 1 1235.6334 556.3062)" class="st3 st7">384-409</text>
<line class="st9" x1="890.1" y1="545.7" x2="1015.2" y2="545.7"/>
<text transform="matrix(1 0 0 1 67.4771 1046.4633)" class="st3 st6">Western Qin</text>
<text transform="matrix(1 0 0 1 1252.8901 1026.4631)"><tspan x="0" y="0" class="st3 st12">385-400 &amp; </tspan><tspan x="24.7" y="28.8" class="st3 st12">409-431</tspan></text>
<line class="st9" x1="893.4" y1="1025.9" x2="969.1" y2="1025.9"/>
<text transform="matrix(1 0 0 1 44.5925 1366.6202)" class="st3 st6">Northern Wei</text>
<line class="st9" x1="898.1" y1="1346" x2="1396.4" y2="1346"/>
<text transform="matrix(1 0 0 1 1235.6334 1355.6201)" class="st3 st7">386-534</text>
<line class="st9" x1="1013.4" y1="1025.9" x2="1173.8" y2="1025.9"/>
<text transform="matrix(1 0 0 1 139.9166 886.5634)" class="st3 st6">Zhai Wei</text>
<text transform="matrix(1 0 0 1 1234.9668 876.5632)" class="st3 st7">388-392</text>
<line class="st13" x1="908.4" y1="867" x2="929" y2="867"/>
<text transform="matrix(1 0 0 1 89.1044 1525.7502)" class="st3 st6">Later Liang</text>
<text transform="matrix(1 0 0 1 1235.0222 1515.7501)" class="st3 st7">389-403</text>
<line class="st8" x1="913.8" y1="1506.3" x2="984.5" y2="1506.3"/>
<text transform="matrix(1 0 0 1 10.1536 1606.0911)" class="st3 st6">Southern Liang</text>
<text transform="matrix(1 0 0 1 1235.6334 1596.0911)" class="st3 st7">397-414</text>
<line class="st9" x1="953.1" y1="1585.5" x2="1038.2" y2="1585.5"/>
<line class="st1" x1="953.1" y1="1665.7" x2="1163.4" y2="1665.7"/>
<text transform="matrix(1 0 0 1 8.9852 1686.3737)" class="st3 st6">Northern Liang</text>
<text transform="matrix(1 0 0 1 1235.6343 1676.3735)" class="st3 st7">397-439</text>
<text transform="matrix(1 0 0 1 41.5712 806.5632)" class="st3 st6">Southern Yan</text>
<text transform="matrix(1 0 0 1 1235.3 796.5632)" class="st3 st7">398-410</text>
<line class="st9" x1="954.8" y1="786" x2="1015.2" y2="786"/>
<line class="st0" x1="968.8" y1="1746" x2="1074.6" y2="1746"/>
<text transform="matrix(1 0 0 1 22.5916 1765.8953)" class="st3 st6">Western Liang</text>
<text transform="matrix(1 0 0 1 1232.6334 1755.8951)" class="st3 st7">400-421</text>
<line class="st1" x1="1003.8" y1="1185.8" x2="1123.9" y2="1185.8"/>
<text transform="matrix(1 0 0 1 251.1429 1206.5632)" class="st3 st6">Xia</text>
<text transform="matrix(1 0 0 1 1236.3564 1196.5631)" class="st3 st7">407-431</text>
<line class="st0" x1="1013.5" y1="625.6" x2="1148.6" y2="625.6"/>
<text transform="matrix(1 0 0 1 44.4031 646.5632)" class="st3 st6">Northern Yan</text>
<text transform="matrix(1 0 0 1 1235.3013 636.5631)" class="st3 st7">409-436</text>
<line class="st0" x1="1068" y1="2026.4" x2="1363" y2="2026.4"/>
<text transform="matrix(1 0 0 1 140.1993 2046.3662)" class="st3 st6">Liu Song</text>
<text transform="matrix(1 0 0 1 1235.6346 2036.3661)" class="st3 st7">420-479</text>
<line class="st14" x1="112.9" y1="2174.2" x2="153.5" y2="2174.2"/>
<text transform="matrix(1 0 0 1 159.8244 2186.3662)" class="st3 st7">Xianbei</text>
<line class="st15" x1="289.8" y1="2174.2" x2="330.4" y2="2174.2"/>
<text transform="matrix(1 0 0 1 336.8244 2186.3665)" class="st3 st7">Xiongnu</text>
<line class="st16" x1="480.2" y1="2174.2" x2="520.5" y2="2174.2"/>
<text transform="matrix(1 0 0 1 526.4911 2186.3657)" class="st3 st7">Jie</text>
<line class="st17" x1="587.2" y1="2174.2" x2="627.6" y2="2174.2"/>
<text transform="matrix(1 0 0 1 635.4911 2186.366)" class="st3 st7">Di</text>
<line class="st18" x1="687.1" y1="2174.2" x2="727.3" y2="2174.2"/>
<text transform="matrix(1 0 0 1 736.4911 2186.3662)" class="st3 st7">Qiang</text>
<line class="st19" x1="848.4" y1="2174.2" x2="889.1" y2="2174.2"/>
<text transform="matrix(1 0 0 1 898.1578 2186.3662)" class="st3 st7">Dingling</text>
<line class="st20" x1="1053.8" y1="2174.2" x2="1094.6" y2="2174.2"/>
<text transform="matrix(1 0 0 1 1104.1577 2186.3662)" class="st3 st7">Han</text>
<line class="st0" x1="558.4" y1="1955.6" x2="1069.1" y2="1955.6"/>
<text transform="matrix(1 0 0 1 103.0815 1966.2487)" class="st3 st6">Eastern Jin</text>
<text transform="matrix(1 0 0 1 1237.356 1966.2485)" class="st3 st7">318-420</text>
<script>
<![CDATA[ 
// Find your root SVG element
var svg = document.querySelector('svg');

// Create an SVGPoint for future math
var pt = svg.createSVGPoint();

// Get point in global SVG space
function cursorPoint(evt){
  pt.x = evt.clientX; pt.y = evt.clientY;
  return pt.matrixTransform(svg.getScreenCTM().inverse());
}

svg.addEventListener('mousemove',function(evt){
  var loc = cursorPoint(evt);
  document.getElementById('marker').setAttribute("x1", loc.x);
  document.getElementById('marker').setAttribute("x2", loc.x+1);
  var year = ((Math.floor(loc.x/10))-38+300)
  //if (year > 900 && year < 985) document.getElementById('markerDate').textContent = year+' CE';
  document.getElementById('markerDate').textContent = Math.floor((loc.x-470)/5)+301+' CE';
},false);
// this code thanks to http://stackoverflow.com/users/405017/phrogz
]]>
</script>
</svg>
