<?xml version="1.0" encoding="utf-8"?>
<!-- Generator: Adobe Illustrator 19.2.1, SVG Export Plug-In . SVG Version: 6.00 Build 0)  -->
<svg version="1.1" id="Layer_1" xmlns="http://www.w3.org/2000/svg" xmlns:xlink="http://www.w3.org/1999/xlink" x="0px" y="0px"
	 viewBox="0 0 1362.2 1502.8" style="enable-background:new 0 0 1362.2 1502.8;" xml:space="preserve">
<style type="text/css">
	.st0{fill:none;stroke:#ED1C24;stroke-width:14;stroke-linecap:round;stroke-miterlimit:10;}
	.st1{font-family: 'Myriad Pro', 'DejaVu Sans Condensed', Helvetica, Arial, sans-serif; }
	.st2{font-size:48px;}
	.st3{font-size:36px;}
	.st4{fill:#F26522;}
	.st5{font-size:60px;}
	.st6{fill:none;stroke:#2E3192;stroke-width:14;stroke-linecap:round;stroke-miterlimit:10;}
	.st7{font-size:48px; fill: red; }
</style>
<line style="fill:none;stroke:#ED1C24;stroke-width:1;" id="marker" x1="0" y1="80" x2="1" y2="1490"/>
<text transform="matrix(1 0 0 1 1258 50)" id="markerDate" class="st1 st7">0</text>

<line class="st0" x1="388.7" y1="760.6" x2="738.7" y2="760.6"/>
<text transform="matrix(1 0 0 1 247.4738 771.3378)" class="st1 st2">Wu</text>
<line class="st0" x1="738.7" y1="840.8" x2="1121.6" y2="840.8"/>
<line class="st0" x1="438.7" y1="921.2" x2="624" y2="921.2"/>
<line class="st0" x1="718.7" y1="1000.9" x2="1019.1" y2="1000.9"/>
<line class="st0" x1="538.4" y1="1081.4" x2="1078.8" y2="1081.5"/>
<line class="st0" x1="638.1" y1="1160.7" x2="878.8" y2="1160.7"/>
<line class="st0" x1="438.7" y1="1241.4" x2="1150.1" y2="1241.5"/>
<line class="st0" x1="418.7" y1="1321.4" x2="820.4" y2="1321.4"/>
<line class="st0" x1="878" y1="1480.7" x2="1158.5" y2="1480.7"/>
<text transform="matrix(1 0 0 1 18.5175 850.8474)" class="st1 st2">Southern Tang</text>
<text transform="matrix(1 0 0 1 82.4034 931.2988)" class="st1 st2">Former Shu</text>
<text transform="matrix(1 0 0 1 126.1806 1011.1418)" class="st1 st2">Later Shu</text>
<text transform="matrix(1 0 0 1 37.9094 1091.5342)" class="st1 st2">Southern Han</text>
<text transform="matrix(1 0 0 1 233.6025 1171.6316)" class="st1 st2">Chu</text>
<text transform="matrix(1 0 0 1 171.0111 1250.7694)" class="st1 st2">WuYue</text>
<text transform="matrix(1 0 0 1 238.0662 1330.9756)" class="st1 st2">Min</text>
<text transform="matrix(1 0 0 1 141.1558 1410.7183)" class="st1 st2">Nanping</text>
<text transform="matrix(1 0 0 1 40.7409 1490.7567)" class="st1 st2">Northern Han</text>
<line class="st0" x1="608.1" y1="1401" x2="999" y2="1401.1"/>
<text transform="matrix(1 0 0 1 1258.8232 771.3378)" class="st1 st3">902-37</text>
<text transform="matrix(1 0 0 1 1258.8232 850.8475)" class="st1 st3">937-75</text>
<text transform="matrix(1 0 0 1 1258.8232 931.2984)" class="st1 st3">907-25</text>
<text transform="matrix(1 0 0 1 1258.8232 1011.1418)" class="st1 st3">935-65</text>
<text transform="matrix(1 0 0 1 1258.8232 1091.5341)" class="st1 st3">917-71</text>
<text transform="matrix(1 0 0 1 1258.8232 1171.6318)" class="st1 st3">927-51</text>
<text transform="matrix(1 0 0 1 1258.8232 1250.7693)" class="st1 st3">907-78</text>
<text transform="matrix(1 0 0 1 1258.8232 1330.9755)" class="st1 st3">905-45</text>
<text transform="matrix(1 0 0 1 1258.8232 1410.7177)" class="st1 st3">924-63</text>
<text transform="matrix(1 0 0 1 1258.8232 1490.7568)" class="st1 st3">951-79</text>
<text transform="matrix(1 0 0 1 3.051758e-05 670.0048)" class="st4 st1 st5">10 Kingdoms</text>
<line class="st6" x1="438.7" y1="156.1" x2="599.6" y2="156.1"/>
<line class="st6" x1="598" y1="235.5" x2="738.7" y2="235.5"/>
<line class="st6" x1="728.5" y1="315.9" x2="839.3" y2="315.9"/>
<line class="st6" x1="838.5" y1="395.5" x2="878.8" y2="395.5"/>
<line class="st6" x1="878.8" y1="475.6" x2="968.9" y2="475.6"/>
<text transform="matrix(1 0 0 1 35.1375 50.2202)" class="st4 st1 st5">5 Dynasties</text>
<text transform="matrix(1 0 0 1 92.4379 166.0709)" class="st1 st2">Later Liang</text>
<text transform="matrix(1 0 0 1 102.4682 246.1689)" class="st1 st2">Later Tang</text>
<text transform="matrix(1 0 0 1 147.3001 326.6003)" class="st1 st2">Later Jin</text>
<text transform="matrix(1 0 0 1 121.8606 406.5536)" class="st1 st2">Later Han</text>
<text transform="matrix(1 0 0 1 96.9479 485.7375)" class="st1 st2">Later Zhou</text>
<text transform="matrix(1 0 0 1 1258.8232 166.0707)" class="st1 st3">907-23</text>
<text transform="matrix(1 0 0 1 1258.8232 246.1688)" class="st1 st3">923-37</text>
<text transform="matrix(1 0 0 1 1258.8232 326.6002)" class="st1 st3">936-47</text>
<text transform="matrix(1 0 0 1 1258.8232 406.5535)" class="st1 st3">947-51</text>
<text transform="matrix(1 0 0 1 1258.8232 485.7374)" class="st1 st3">951-60</text>
<script>
<![CDATA[ 
// Find your root SVG element
var svg = document.querySelector('svg');

// Create an SVGPoint for future math
var pt = svg.createSVGPoint();

// Get point in global SVG space
function cursorPoint(evt){
  pt.x = evt.clientX; pt.y = evt.clientY;
  return pt.matrixTransform(svg.getScreenCTM().inverse());
}

svg.addEventListener('mousemove',function(evt){
  var loc = cursorPoint(evt);
  document.getElementById('marker').setAttribute("x1", loc.x);
  document.getElementById('marker').setAttribute("x2", loc.x+1);
  var year = ((Math.floor(loc.x/10))-38+902)
  if (year > 900 && year < 985) document.getElementById('markerDate').textContent = year+' CE';
},false);
// this code thanks to http://stackoverflow.com/users/405017/phrogz
]]>
</script>
</svg>
