<svg version="1.1" id="Layer_1" xmlns="http://www.w3.org/2000/svg" xmlns:xlink="http://www.w3.org/1999/xlink" x="0px" y="0px"
	 width="100%" viewBox="0 0 512 512" enable-background="new 0 0 512 512" xml:space="preserve">
<path fill="#000000" opacity="1.000000" stroke="none" 
	d="
M167.406097,322.531677 
	C176.956573,303.425934 186.338806,284.653381 195.719711,265.880219 
	C198.253464,260.809662 202.847336,257.595734 206.718826,253.740250 
	C208.353729,252.112122 209.795746,253.302643 211.025024,254.509003 
	C215.649536,259.047211 220.129181,263.541382 223.103180,269.585052 
	C238.917892,301.723297 255.151047,333.655853 270.916931,365.817688 
	C273.210083,370.495667 275.893585,371.812622 280.858154,371.796539 
	C334.515991,371.622620 388.176147,371.883972 441.831421,371.474701 
	C450.299683,371.410126 453.541595,377.219910 458.310272,381.720551 
	C459.594238,382.932404 458.550690,384.112701 457.639160,385.175751 
	C452.653839,390.989868 447.452148,394.671234 438.696472,394.583160 
	C385.543335,394.048340 332.376709,393.901825 279.227753,394.611145 
	C266.789825,394.777100 260.110718,388.455872 255.400253,379.416077 
	C240.395523,350.620758 226.155914,321.426819 211.616669,292.388885 
	C210.735641,290.629272 209.819061,288.887451 208.967148,287.230927 
	C206.861954,287.486053 206.741287,289.032715 206.192856,290.127930 
	C191.503830,319.461670 176.741058,348.759308 162.256454,378.193787 
	C159.416992,383.963898 154.702972,387.825897 150.483826,392.254974 
	C149.963623,392.801056 148.830154,393.469269 148.367065,393.253174 
	C144.176620,391.297821 141.583282,387.496826 138.574692,384.228638 
	C136.669891,382.159424 138.653046,380.136688 139.564941,378.301422 
	C148.754944,359.805542 158.004501,341.339264 167.406097,322.531677 
z"/>
<path fill="#000000" opacity="1.000000" stroke="none" 
	d="
M123.456955,349.359955 
	C109.092010,365.930542 93.448814,380.521606 75.512077,392.618805 
	C72.373810,394.735352 70.497864,394.524139 67.879227,391.899597 
	C59.506020,383.507385 59.351212,383.545349 67.801552,375.219147 
	C76.253899,366.890930 87.286758,361.859406 95.744476,353.499329 
	C100.529518,348.769470 105.131676,344.030762 105.804848,336.827637 
	C106.261086,331.945770 104.529381,327.734772 102.313568,323.542206 
	C97.736847,314.882477 92.665558,306.406860 90.575302,296.674286 
	C89.307678,290.772034 90.827042,285.479004 94.756493,280.898315 
	C104.509399,269.528900 116.288597,260.638702 128.977371,252.839203 
	C131.063126,251.557144 132.619186,251.767258 134.238113,253.512482 
	C136.161682,255.586090 138.101318,257.667145 140.224533,259.527496 
	C142.817017,261.798950 142.658813,263.624268 140.362061,266.169922 
	C134.596970,272.559723 127.918343,277.851990 120.387413,281.755554 
	C113.792793,285.173859 111.604141,290.836029 114.269035,299.632080 
	C116.889153,308.280334 121.614532,316.018402 125.789391,323.960907 
	C130.487732,332.899323 129.887634,341.168732 123.456955,349.359955 
z"/>
</svg>