<svg version="1.1" id="Layer_1" xmlns="http://www.w3.org/2000/svg" xmlns:xlink="http://www.w3.org/1999/xlink" x="0px" y="0px"
	 width="100%" viewBox="0 0 512 512" enable-background="new 0 0 512 512" xml:space="preserve">
<path fill="#000000" opacity="1.000000" stroke="none" 
	d="
M448.999939,394.316589 
	C404.847382,394.315399 361.186340,393.837433 317.547668,394.614624 
	C305.124451,394.835876 298.527557,388.577972 293.798187,379.423187 
	C278.662964,350.125305 264.149780,320.506012 249.390717,291.013702 
	C248.653595,289.540771 247.862183,288.095032 246.685425,285.854950 
	C245.480087,288.045685 244.513992,289.670227 243.669662,291.355774 
	C229.204865,320.232208 214.641083,349.060059 200.388901,378.041168 
	C197.160950,384.605103 191.678131,388.750336 186.945724,393.930023 
	C182.875275,391.240601 180.233734,387.778687 177.155197,384.798431 
	C174.838516,382.555695 176.599487,380.500122 177.616241,378.482178 
	C193.200195,347.552307 208.805908,316.633423 224.392639,285.704956 
	C227.615738,279.309418 230.860031,272.922607 233.952057,266.463593 
	C236.780411,260.555328 241.851028,256.807556 246.642700,252.136368 
	C251.653290,257.075592 256.910095,261.022888 259.990723,267.231598 
	C276.275909,300.053040 292.808746,332.751892 309.002502,365.618011 
	C311.215790,370.110016 313.665314,371.837280 318.812683,371.816986 
	C372.294556,371.605927 425.779510,371.913849 479.258209,371.450500 
	C487.869629,371.375916 491.528229,376.792816 496.340149,381.575287 
	C497.825562,383.051605 496.528442,384.250763 495.525116,385.415924 
	C490.509216,391.241211 485.278076,395.562683 476.464325,394.541870 
	C467.586578,393.513702 458.496796,394.315979 448.999939,394.316589 
z"/>
<path fill="#000000" opacity="1.000000" stroke="none" 
	d="
M168.468658,252.235580 
	C174.463745,253.381485 177.047104,258.303619 180.321671,262.258331 
	C181.564423,263.759216 179.328278,265.130096 178.288696,266.343140 
	C172.569580,273.016510 165.339203,277.754150 157.961426,282.340363 
	C151.794998,286.173584 149.945480,290.954803 151.992264,298.038849 
	C153.940842,304.783081 157.122498,311.024200 160.519211,317.152435 
	C170.656738,335.442322 169.745331,341.667236 155.076584,356.829712 
	C142.309677,370.026337 129.052856,382.613617 113.584991,392.707275 
	C110.652199,394.621063 108.895668,394.675049 106.361473,392.128876 
	C97.761429,383.488281 97.688934,383.603333 106.267952,374.937531 
	C111.596893,369.554688 118.305885,366.037323 124.232384,361.466003 
	C130.170227,356.885925 136.121780,352.335114 140.507751,346.087219 
	C144.940811,339.772217 145.523849,333.284485 141.998001,326.366089 
	C138.368484,319.244293 134.737167,312.117157 131.363403,304.872772 
	C126.207237,293.801086 127.717155,286.485260 135.963928,277.570221 
	C145.350906,267.422638 156.440659,259.549896 168.468658,252.235580 
z"/>
<path fill="#000000" opacity="1.000000" stroke="none" 
	d="
M39.058712,391.086456 
	C32.883026,395.337250 32.856075,395.363953 27.809855,390.268646 
	C20.001980,382.384918 20.354717,384.558228 27.672882,376.726593 
	C33.333603,370.668640 40.581436,366.800842 47.029999,361.838135 
	C53.236790,357.061432 59.463108,352.303528 63.996758,345.762848 
	C68.146240,339.776367 68.862808,333.535095 65.447304,326.945068 
	C61.540806,319.407745 57.577320,311.902679 54.258316,304.070435 
	C49.595806,293.067780 50.958866,286.651062 59.143917,277.760315 
	C68.155991,267.971252 78.729904,260.276550 89.870033,253.201950 
	C92.215874,251.712189 93.924164,251.523605 95.926971,253.713577 
	C106.469009,265.240784 106.411011,260.871643 96.207657,271.580383 
	C91.665237,276.347809 85.711136,279.176453 80.378983,282.854858 
	C75.233185,286.404724 73.203049,291.366150 74.984093,297.489624 
	C77.323807,305.533905 81.509529,312.772003 85.324310,320.162231 
	C93.148933,335.320496 92.078102,342.197449 80.392052,354.543701 
	C67.775986,367.872559 54.736782,380.695312 39.058712,391.086456 
z"/>
</svg>