<svg version="1.1" id="Layer_1" xmlns="http://www.w3.org/2000/svg" xmlns:xlink="http://www.w3.org/1999/xlink" x="0px" y="0px"
	 width="100%" viewBox="0 0 512 512" enable-background="new 0 0 512 512" xml:space="preserve">
<path fill="#000000" opacity="1.000000" stroke="none" 
	d="
M161.851929,316.929047 
	C170.589447,299.660980 179.178223,282.734741 187.747513,265.798645 
	C190.228973,260.894379 194.704422,257.809723 198.404205,254.017715 
	C198.733276,253.680466 199.369461,253.237930 199.681549,253.349945 
	C204.125381,254.944489 206.394974,259.084045 209.669205,262.053711 
	C211.856857,264.037872 210.256287,266.024841 209.266052,267.899811 
	C192.157501,300.293823 176.338104,333.337158 159.832977,366.035034 
	C159.092621,367.501709 158.445984,369.015656 157.667908,370.697357 
	C159.990860,372.330536 162.390381,371.638733 164.585938,371.640259 
	C234.224411,371.688843 303.863800,371.844757 373.500305,371.469879 
	C381.981018,371.424255 385.203613,377.212585 390.041931,381.644196 
	C390.703461,382.250092 390.655640,383.121613 390.351105,383.971527 
	C389.022003,387.680817 379.544128,394.318268 375.502808,394.318481 
	C298.533936,394.322601 221.565063,394.323425 144.596191,394.318726 
	C140.416397,394.318481 130.763611,387.380646 129.490921,383.546936 
	C128.937042,381.878510 129.948944,380.665527 130.602280,379.359467 
	C140.958054,358.657654 151.328598,337.963226 161.851929,316.929047 
z"/>
<path fill="#000000" opacity="1.000000" stroke="none" 
	d="
M266.577576,228.544952 
	C264.664124,233.605881 261.702118,234.764496 257.092896,232.462051 
	C254.628845,231.231171 251.845108,230.640289 248.376923,229.484360 
	C253.031525,223.195114 257.237701,217.486496 261.471649,211.798553 
	C265.137756,206.873474 267.255127,201.382416 267.675690,195.243469 
	C267.832794,192.950424 267.227844,191.202057 264.572723,191.121887 
	C258.530792,190.939438 252.867966,190.102921 249.841248,183.821487 
	C246.362015,176.600922 246.734467,169.196777 249.451004,162.009155 
	C251.756042,155.910324 255.375000,150.566574 262.893219,150.332047 
	C271.283875,150.070297 277.470123,154.162201 280.827515,161.554794 
	C287.473175,176.187897 286.709747,191.025375 280.303253,205.563995 
	C276.740265,213.649689 271.380707,220.733658 266.577576,228.544952 
z"/>
</svg>