<svg version="1.1" id="Layer_1" xmlns="http://www.w3.org/2000/svg" xmlns:xlink="http://www.w3.org/1999/xlink" x="0px" y="0px"
	 width="100%" viewBox="0 0 512 512" enable-background="new 0 0 512 512" xml:space="preserve">
<path fill="#000000" opacity="1.000000" stroke="none" 
	d="
M216.999939,394.304565 
	C202.504074,394.308380 188.508194,394.329315 174.512390,394.303345 
	C170.876343,394.296600 160.954620,386.742188 159.997131,383.370880 
	C159.533646,381.739014 160.451492,380.455048 161.107040,379.142548 
	C180.006989,341.301605 198.887085,303.450684 217.884598,265.658722 
	C220.553207,260.350067 225.689224,257.192078 229.828720,252.889114 
	C234.203201,255.487762 237.093231,259.151764 240.229233,262.495850 
	C242.078613,264.467957 240.134964,266.252045 239.304443,267.915649 
	C223.688034,299.195984 208.000961,330.441040 192.409149,361.733612 
	C190.968018,364.625977 188.937637,367.349426 188.539215,370.723755 
	C190.925613,372.295197 193.320053,371.646851 195.562866,371.648193 
	C265.208893,371.689850 334.855438,371.803253 404.500336,371.522125 
	C412.758911,371.488831 415.676117,377.590271 420.381897,381.895874 
	C421.028107,382.487152 421.063812,383.568451 420.384033,384.171204 
	C415.616516,388.398346 412.738800,394.536224 404.443024,394.488647 
	C346.295471,394.155182 288.145142,394.306366 229.995712,394.302704 
	C225.830460,394.302460 221.665192,394.303680 216.999939,394.304565 
z"/>
<path fill="#000000" opacity="1.000000" stroke="none" 
	d="
M149.931320,277.005005 
	C147.261383,278.750122 144.896744,280.306702 142.507431,281.824463 
	C135.190079,286.472626 133.497009,291.139832 136.215652,299.571320 
	C138.682861,307.223022 142.738907,314.142761 146.377350,321.250854 
	C153.373901,334.919250 152.932617,340.934082 142.766129,352.441589 
	C129.271408,367.716339 114.351494,381.449371 97.274979,392.749512 
	C94.306221,394.714081 92.508400,394.487457 90.030769,392.023895 
	C81.509094,383.550659 81.425369,383.641235 89.762115,375.264160 
	C97.567581,367.420929 107.826973,362.772430 115.847206,355.183472 
	C118.513199,352.660889 121.253555,350.245850 123.462807,347.298248 
	C128.810013,340.163940 129.408447,332.690430 125.013176,324.888641 
	C121.085861,317.917511 117.612381,310.727936 114.505974,303.356445 
	C110.282349,293.333832 111.821281,286.236450 119.141838,278.263062 
	C128.251175,268.341400 138.910797,260.481140 150.212875,253.331543 
	C152.767105,251.715759 154.437683,251.745255 156.691223,253.914001 
	C165.559799,262.448761 165.600388,262.344055 157.185181,271.148773 
	C155.088333,273.342651 152.715744,275.125885 149.931320,277.005005 
z"/>
<path fill="#000000" opacity="1.000000" stroke="none" 
	d="
M280.010590,227.612091 
	C284.330994,221.731689 288.598236,216.216324 292.657440,210.551941 
	C295.810638,206.151794 297.602966,201.224167 297.849426,195.717529 
	C297.989777,192.582489 296.864502,191.274887 293.696960,190.931580 
	C282.211151,189.686691 277.530457,184.221512 277.701111,172.585480 
	C277.770294,167.868652 278.731293,163.333939 281.048706,159.196289 
	C287.189758,148.231735 300.347290,147.212814 308.209351,157.113312 
	C312.926483,163.053497 314.643463,170.063339 315.362183,177.480103 
	C316.835052,192.678146 311.644714,205.860229 303.513214,218.242218 
	C300.598328,222.680740 297.744415,227.166168 295.059296,231.745468 
	C293.918518,233.690964 292.599915,234.453003 290.635864,233.402969 
	C287.080963,231.502380 281.806519,232.961227 280.010590,227.612091 
z"/>
</svg>