<svg version="1.1" id="Layer_1" xmlns="http://www.w3.org/2000/svg" xmlns:xlink="http://www.w3.org/1999/xlink" x="0px" y="0px"
	 width="100%" viewBox="0 0 512 512" enable-background="new 0 0 512 512" xml:space="preserve">
<path fill="#000000" opacity="1.000000" stroke="none" 
	d="
M206.257812,254.085999 
	C207.919403,252.548340 209.319839,252.807770 210.492752,254.040527 
	C214.482468,258.233734 219.122345,261.752197 221.821701,267.197723 
	C238.173477,300.184814 254.778397,333.046631 271.073547,366.061401 
	C273.123566,370.214813 275.423920,371.812775 280.147125,371.797577 
	C334.303345,371.623077 388.460327,371.682800 442.617126,371.682831 
	C447.677734,371.682831 456.593536,377.463440 458.510529,381.927399 
	C458.868927,382.761871 459.069122,383.610962 458.377563,384.231873 
	C453.507172,388.604462 450.396637,394.589600 441.890900,394.524841 
	C387.737213,394.112640 333.573486,393.899506 279.426117,394.612457 
	C266.793823,394.778778 260.046478,388.370392 255.252029,379.150940 
	C240.271927,350.344849 226.042999,321.148376 211.471619,292.128967 
	C210.611526,290.416107 210.188019,288.336792 208.303955,287.206055 
	C206.564728,288.068878 206.329285,289.877808 205.616806,291.298401 
	C190.909378,320.622772 176.187225,349.940125 161.629776,379.339050 
	C158.934402,384.782379 154.182571,388.209717 150.271011,392.472198 
	C149.563309,393.243378 148.483536,393.792419 147.581787,393.096039 
	C144.019196,390.344696 140.543045,387.340759 138.238922,383.511536 
	C136.822784,381.158081 139.299744,378.840302 140.373611,376.685822 
	C158.502884,340.313446 176.763550,304.006287 194.793625,267.584961 
	C197.495026,262.128021 202.018906,258.539978 206.257812,254.085999 
z"/>
<path fill="#000000" opacity="1.000000" stroke="none" 
	d="
M128.524551,276.597748 
	C125.582169,278.535370 122.955704,280.297363 120.283966,281.987732 
	C113.313034,286.398224 111.550079,291.264099 114.137665,299.357910 
	C116.636543,307.174255 120.804070,314.220032 124.490776,321.485077 
	C131.333633,334.969757 130.906357,340.922333 120.941605,352.249725 
	C107.373383,367.673340 92.282829,381.451080 75.113777,392.877869 
	C72.345406,394.720367 70.618118,394.548279 68.257347,392.265045 
	C59.335186,383.635925 59.182041,383.626709 68.137794,374.888275 
	C76.385468,366.840759 87.050346,361.888397 95.360977,353.859406 
	C99.727028,349.641327 103.981735,345.366302 105.456734,339.317108 
	C106.825119,333.705200 105.079674,328.554779 102.342415,323.555511 
	C97.715523,315.105042 92.905762,306.682892 90.651001,297.192749 
	C89.166443,290.944366 90.837318,285.373291 95.052422,280.529358 
	C104.770821,269.361115 116.412239,260.567291 128.953552,252.852112 
	C131.026443,251.576920 132.569687,251.756210 134.216644,253.494095 
	C144.936081,264.805359 145.067764,261.021545 134.654526,271.733795 
	C132.933975,273.503784 130.775787,274.848328 128.524551,276.597748 
z"/>
<path fill="#000000" opacity="1.000000" stroke="none" 
	d="
M341.417908,318.443542 
	C346.551575,311.962311 350.641663,305.439240 351.292816,297.219971 
	C351.498016,294.630371 351.042755,292.444916 348.360291,292.542908 
	C341.204224,292.804291 335.570465,290.937164 332.772064,283.700470 
	C329.683228,275.712555 330.659515,267.933350 334.487427,260.594513 
	C339.776001,250.455368 350.736511,248.612457 359.176636,256.378357 
	C368.559601,265.011749 369.182495,276.583221 368.839447,288.171783 
	C368.422333,302.261566 361.122406,313.701965 353.696411,325.006042 
	C353.331940,325.560883 352.895935,326.069611 352.543518,326.631378 
	C345.870239,337.268311 344.066467,337.656982 332.624756,330.677124 
	C334.776245,326.193726 338.379944,322.731628 341.417908,318.443542 
z"/>
</svg>