<svg version="1.1" id="Layer_1" xmlns="http://www.w3.org/2000/svg" xmlns:xlink="http://www.w3.org/1999/xlink" x="0px" y="0px"
	 width="100%" viewBox="0 0 512 512" enable-background="new 0 0 512 512" xml:space="preserve">
<path fill="#000000" opacity="1.000000" stroke="none" 
	d="
M202.261841,374.125519 
	C199.010239,382.493347 193.298004,388.391663 186.624863,393.735535 
	C182.873535,391.198547 180.199173,387.765686 177.132324,384.764282 
	C174.826157,382.507324 176.628632,380.454163 177.640778,378.444153 
	C194.120270,345.717163 210.584595,312.982452 227.135773,280.291718 
	C231.620056,271.434631 234.880661,261.755798 243.155655,255.308578 
	C243.940674,254.696945 244.602127,253.927628 245.380966,253.306808 
	C245.746277,253.015640 246.254471,252.903732 247.089890,252.539841 
	C251.821014,257.241028 257.110046,261.357208 260.267181,267.742279 
	C276.584717,300.743347 293.188965,333.602600 309.505096,366.604309 
	C311.404999,370.447174 313.665192,371.786957 317.925140,371.776062 
	C371.920502,371.637756 425.917755,371.878571 479.910583,371.482819 
	C488.359161,371.420929 491.665619,377.178497 496.423553,381.717072 
	C497.706207,382.940613 496.661224,384.121246 495.752502,385.176208 
	C490.760620,390.971100 485.568848,394.667999 476.811279,394.579895 
	C423.654205,394.045013 370.483917,393.917419 317.330444,394.607697 
	C305.107758,394.766449 298.564667,388.624329 293.925568,379.665222 
	C278.758789,350.374939 264.261139,320.738129 249.497086,291.239136 
	C248.695740,289.638000 247.811584,288.078339 246.516785,285.660645 
	C231.571259,315.519623 216.989761,344.651337 202.261841,374.125519 
z"/>
<path fill="#000000" opacity="1.000000" stroke="none" 
	d="
M106.156822,391.812927 
	C97.828911,383.429321 97.869781,383.469452 106.041801,375.148682 
	C111.348610,369.745239 118.028259,366.210663 123.959824,361.662384 
	C129.772537,357.205261 135.569427,352.752289 140.011398,346.792084 
	C144.984589,340.119110 145.634048,333.241547 141.746078,325.805664 
	C138.124466,318.879089 134.618668,311.883545 131.323257,304.796814 
	C126.210960,293.802948 127.744263,286.430664 135.997513,277.534241 
	C145.037109,267.790222 155.671539,260.170807 166.817413,253.119843 
	C169.292709,251.553970 170.900940,251.903717 172.843414,253.916229 
	C183.502380,264.959534 182.728424,261.404785 173.185852,271.445557 
	C168.757217,276.105408 163.002121,278.886871 157.767166,282.398743 
	C151.990372,286.274078 149.978333,290.926544 151.898376,297.730896 
	C153.848343,304.641296 157.126297,311.014160 160.596817,317.283508 
	C170.606216,335.365021 169.714767,341.661133 155.354721,356.540649 
	C142.503769,369.856537 129.152817,382.556427 113.559166,392.728149 
	C110.608437,394.652893 108.548248,394.953857 106.156822,391.812927 
z"/>
<path fill="#000000" opacity="1.000000" stroke="none" 
	d="
M67.509781,269.497681 
	C74.491310,262.662323 82.787338,258.247498 90.402458,252.888031 
	C92.375175,251.499664 93.976013,251.653412 95.643326,253.455276 
	C106.721748,265.427826 106.389137,260.833740 96.125244,271.659424 
	C91.711617,276.314636 85.909157,279.076721 80.698227,282.638306 
	C75.002144,286.531464 73.095024,291.340820 75.159134,298.078949 
	C77.561218,305.920380 81.634109,313.024750 85.375404,320.266846 
	C93.168755,335.352600 92.048454,342.187195 80.317719,354.632904 
	C67.148132,368.605133 53.304966,381.745728 37.254368,392.450928 
	C34.008842,394.615570 32.040012,394.683167 29.223822,391.815155 
	C21.022532,383.462921 20.988007,383.666840 29.036097,375.396729 
	C34.334595,369.952057 41.049358,366.482178 46.959404,361.901031 
	C53.019539,357.203613 59.112782,352.552277 63.663437,346.253967 
	C68.162384,340.027252 68.885818,333.559814 65.288589,326.569916 
	C61.481663,319.172546 57.789833,311.705048 54.362259,304.125946 
	C49.419548,293.196564 50.747608,286.485443 59.135811,277.878265 
	C61.809200,275.135071 64.549942,272.457550 67.509781,269.497681 
z"/>
<path fill="#000000" opacity="1.000000" stroke="none" 
	d="
M385.853882,334.596283 
	C380.069092,336.175171 376.018402,332.388489 370.104187,331.269867 
	C374.668610,325.160492 378.461273,319.990417 382.355377,314.897919 
	C386.384613,309.628784 389.058868,303.847168 389.659821,297.169006 
	C389.961731,293.814087 388.692749,292.407227 385.175537,292.262390 
	C374.681671,291.830200 369.841736,286.565735 369.651031,275.896149 
	C369.582397,272.054504 369.502167,268.180573 370.944641,264.561981 
	C373.433014,258.319550 376.842621,252.610931 384.298126,251.894623 
	C391.730225,251.180557 397.550476,254.550659 401.471008,260.877167 
	C407.477905,270.570526 408.251984,281.294708 406.794617,292.206665 
	C405.568329,301.388580 402.072052,309.780579 396.719238,317.451263 
	C392.917999,322.898529 389.614838,328.693359 385.853882,334.596283 
z"/>
</svg>