<?xml version="1.0" encoding="utf-8"?>
<!-- Generator: Adobe Illustrator 19.2.1, SVG Export Plug-In . SVG Version: 6.00 Build 0)  -->
<svg version="1.1" xmlns="http://www.w3.org/2000/svg" xmlns:xlink="http://www.w3.org/1999/xlink" x="0px" y="0px"
	 viewBox="0 0 2905.1 2313" style="enable-background:new 0 0 2905.1 2313;" xml:space="preserve">
<style type="text/css">
	.st0{opacity:0.34;}
	.st1{fill:#ED1C24;}
	.st2{font-family:'MyriadPro-Regular';}
	.st3{font-size:104px;}
	.st4{font-size:48px;}
	.st5{font-size:60px;}
	.st6{fill:#ED1C24;stroke:#1C75BC;stroke-linecap:round;stroke-miterlimit:10;}
	.st7{font-family:'ArialMT';}
	.st8{font-size:24px;}
	.st9{font-size:18px;}
</style>
<g id="bitmap">
	
		<image style="overflow:visible;" width="1968" height="1567" xlink:href="../relief_map.jpg"  transform="matrix(1.4757 0 0 1.4757 1.8006 0)">
	</image>
</g>
<g id="borders">
	<g id="XMLID_1_" class="st0">
		<g>
			<path class="st1" d="M1781.5,2141.2c0.4,0.1,0.9,0.1,1.3,0.2C1782.5,2141.1,1782,2141,1781.5,2141.2z M2324.7,1642.1
				c0.4,0,0.4,0.7,0.5,1.1c0.2,0.6,1.1,0.6,1.7,0.3s1.1-0.7,1.8-0.7c0.8,0.1,1.3,0.9,2,1.1c0.8,0.2,1.8-0.3,2.4,0.2
				c0.2,0.2,0.3,0.4,0.4,0.6c0.3,0.8,0.3,1.8,0.3,2.7c0,0.7,0,1.4-0.3,2.1c-0.2,0.4-0.4,0.7-0.7,1c-0.5,0.7-1.1,1.4-1.6,2.1
				c-0.8,1-1.7,2.2-1.9,3.4c-0.2,0.9,0.3,2-0.3,2.7c-0.9,0.9-3.6,0.9-4.6,0.2c0.6,0.5,0.4,1.4,0.4,2.2c0.1,1.2,1,2.1,1.5,3.2
				c0.5,1.1,0.3,2.8-0.9,2.9c-0.5,0.1-1-0.2-1.5,0.1c-0.3,0.1-0.4,0.4-0.5,0.7c-0.6,1.9,0,4.2,1.6,5.4c1-0.9,2.8-0.4,3.2,0.9
				c0.2,0.6,0.1,1.3-0.1,1.9c-0.3,1.3-0.6,2.7-0.9,4.1c-0.1,0.2-0.1,0.5-0.3,0.7c-0.2,0.2-0.5,0.1-0.8,0.1c-1.2-0.2-2.5-0.3-3.7-0.5
				c0.8,0.8,0.5,2.4-0.5,3c-0.2,0.1-0.3,0.1-0.4,0.2c0.2,0,0.3-0.1,0.4-0.2c0.5-0.1,1.1-0.1,1.5,0.1c0.1,2.1,0.2,4.3,0.3,6.4
				c0,0.5,0,1.1-0.2,1.5c-0.4,0.7-1.3,0.9-2.2,1.1c-1.5,0.3-3.2,0.5-4.4-0.4c-0.4-0.3-0.8-0.7-1.2-1.1c-0.8-0.6-1.8-0.9-2.8-1.3
				c-0.9-0.4-1.7-0.9-2-1.8c-0.2-0.6-0.3-1.4-0.9-1.5c-0.4,0-0.7,0.3-0.9,0.5c-0.8,0.9-1.6,1.8-2.3,2.6c-0.6,0.7-1.2,1.4-1.4,2.3
				c-0.1,0.9,0.6,2,1.5,1.9c0.6-1.3,1.4-2.8,2.8-3.3c1-0.2,2.1-0.2,3,0.1c0.9,0.2,1.7,0.7,2.4,1.2c0.7,0.6,1.3,1.3,1.8,2.1
				c0.7,1,1.3,2.2,1.4,3.3l-0.1,0c-2.1-0.3-4.2-0.4-6.2-0.3c-1.9,0-3.8,0.1-5.7,0.2c-20.4,0-40.8,1.1-61,3.2
				c-20.2,2.1-40.2,5.3-60.1,9.5c-22.6,4.8-46.4,11.7-61.6,29.1c-8.3,9.5-13.4,21.4-21.8,30.7c-3.5,3.9-7.6,7.4-10.4,11.8
				c-5.8,9-5.6,20.6-3.4,31.1c2.1,10.5,6,20.7,7,31.3c1.1,11.8-1.5,23.6-1.5,35.4c-0.1,18,5.8,35.3,13.8,51.1
				c7.5,14.7,17.5,27.8,25.9,41.9l-0.1,0.2c-1-0.5-2-1.1-3-1.7c-1.9,3.6-3.3,7.5-4.1,11.5c-2.3,0.8-5.3,1.1-7.8,1.7
				c-3.7,0.9-9.1,1.4-9.3,5.3c-3.1-2.4-6-5-8.7-7.8c-3,1-6.3,1-9.3,0.2c1.4,0.7,2.7,1.3,4.1,2c-0.7,1.8-1.3,3.5-2,5.3
				c1.3,1,2.7,2,4,2.9c-1.5,6-12,6.2-13.8,0.3c-1.6-0.2-3.2-0.8-4.4-1.9c0.7-1.9,0.9-4,0.7-6c-1.7,5-8,6.2-12.5,8.9
				c-4.6,2.8-7.8,7.9-8.1,13.3c-3.3,1.1-7.2-0.3-9-3.2c-1.9-2.9-1.5-7,0.8-9.5c-3.4,0.6-6.6,1.8-9.7,3.4c-1.6,0.8-3.4,2.1-3.4,4
				c-0.1,1.8,3,3,3.6,1.3c0.5,1.7-0.9,3.6-2.6,3.6c0.5,1.8,2.3,3.1,4.1,3.1c1.2,2.9-2.4,6-5.5,5.2c-3-0.8-4.9-3.8-5.7-6.8
				c-3.4-1-7.3,0.7-9,3.7c3.6,1.1,7,2.9,10,5.2c0.1,3.2-3.3,5.9-6.4,5.2c0.4,1.8,0.2,3.7-0.5,5.4c-1.5-0.4-3.1-0.9-4.6-1.3l-2.8-0.5
				c0.2-0.3,0.5-0.5,0.7-0.7c-2.1-1.2-4.1,0-5.8,1.9l-2.5-1.3c-2.4-0.7-4.9-1.4-7.3-2.2c0.7-1.4,1.3-2.8,2-4.1
				c-3.8-5.1-7.7-10.1-11.5-15.2c-6.5-3.7-11.6-9.6-14.3-16.5c-2.8,5.1,1.2,12.5,7,13c-2.3,3.2-6.8,4.6-10.5,3.3
				c5.7,2.6,9.5,8.8,9.3,15c-0.2,3.4,0.6,8.7,3.8,7.6c-2.7,1.9-1.6,6-0.5,9.1c1.1,3.1,1.1,7.7-2.1,8.4c-3.1,0.7-5.1-3.2-5.8-6.3
				c-1.9-0.4-3.7,1.2-4.1,3.1l-2.5-0.4c0.1-0.2,0.2-0.5,0.2-0.7c-2.8,0.9-4.4,4.2-3.5,6.9c-2.4-0.1-4.8-0.2-7.2-0.3
				c-0.8-2.4-1.6-4.8-2.3-7.2c-4,0.4-4.9,5.7-4.5,9.7c0.4,4,0.3,9.1-3.4,10.5c-2.4-0.4-4.1-3.3-3.3-5.6c-6.4,1.4-11.7,6.9-12.8,13.4
				c-5,0.1-10.1-2.2-13.3-6c2.2,3.6,0.2,9.1-3.9,10.3c-4.1,1.2-8.8-2.2-8.9-6.5c-4.3,3.4-11.4,2.2-14.3-2.5c-0.4,2.7,1.4,5.5,4,6.2
				c-1.4,1.8-2.8,3.7-4.2,5.5c2.5,1.2,5.4,1.8,8.2,1.8c-3.1,2.3-6.3,4.5-9.4,6.8c-1.9-2.2-4.6-3.7-7.5-4.2c-2,1.9-3.5,4.4-4.3,7.1
				c-5.3-0.5-10.5-1.1-15.2,2c-1.6,1.1-3.1,2.5-5,3.1c-4.8,1.4-10.1-3.3-14.6-1c-3,1.5-4.1,5.6-7.3,6.6c-2.6,0.8-5.5-0.8-7.9,0.4
				c-1.4,0.7-2.3,2.1-3,3.5c-3.7,7-6.3,14.5-7.7,22.3c-5.2-1.9-11.1-1.7-16.2,0.4c-0.2-1.9-1.3-3.7-2.9-4.8
				c-1.3,2.2-2.7,4.6-2.9,7.2c-0.1,2.6,1.4,5.5,4,6c2.3,0.4,4.5-1.2,6.8-1.2c3,0,5.6,3.1,5.1,6.1c-1.1,1.2-2.8,1.9-4.5,1.6
				c-1,1.8-0.1,4.5,1.8,5.3c1.9,0.8,4.4-0.4,5-2.4c1.5,2.8,3,5.7,4.6,8.5c0.6,1.1,1.2,2.4,1.2,3.7c-0.1,4.4-7.1,6.8-6.1,11
				c-4.4,0.5-8.8,1.1-13.2,1.6c-0.8,0.1-1.7,0.3-2,1c0,0.1-0.1,0.2-0.1,0.3c-4.3-1.9-9.6-1.3-13.4,1.4c-1.4-3.6-2.8-7.1-4.1-10.7
				c2.9-0.9,6.2,0.3,7.9,2.8c-1.1-4.5-5.5-8-10.2-8c0.9-1.3,0.1-3.1-0.9-4.3c-1-1.2-2.4-2.3-2.7-3.9c-0.2-1,0.6-2.2,1.4-2.6
				c-0.7-0.1-1.3-0.2-2-0.2c0.2-2.5,0-5-0.5-7.4c-1.5,0.1-2.9,0.2-4.4,0.3c-1.2-9-0.2-18.3,2.7-27c0.5-1.6,1.1-3.1,2.2-4.3
				c1.6-1.8,4.1-2.7,6.5-2.4c0.5-1.8,0.3-3.8-0.4-5.5c-2.9,0.8-5.9,1.5-8.9,1.1c-3-0.4-6-2.3-6.7-5.3c-1.9-1.9-3.8-3.8-5.7-5.8
				c0.7-1.2,0.7-2.8,0-4.1c-2.2-0.4-3.2,3-2.1,5c1.1,2,3.1,3.6,3.4,5.8c0.5,3.2-2.9,5.8-6.1,6.4c-3.2,0.6-6.6,0.2-9.6,1.2
				c-2.9,1-5.3,3.4-8.3,3.9c-3,0.6-6.9-2.4-5.3-5.1c1.4-2.3,6.1-3.7,4.4-5.8c-6.4-1.7-12.9-3.3-19.3-5c-0.2-0.1-0.5-0.1-0.7-0.2
				c-3.1-0.8-6.4-1.7-8.8-3.8c-2.4-2.2-3.6-6-1.8-8.7c-2,0.8-4,1.7-6,2.5c1.8,2.5,3.6,5.1,4.3,8.1c0.7,3,0.2,6.5-2.2,8.5
				c-2.4,2-6.6,1.5-7.9-1.3c-0.7-1.6-0.4-3.4-0.8-5c-0.5-1.6-2.6-3-3.8-1.8c2.5,4.6,0.2,11.2-4.7,13.1c1.2-2.2,1.6-4.8,1.3-7.3
				c-3.7,2-7.4,3.9-11.1,5.9c1.2,0.8,2.4,1.5,3.6,2.2c-2,1.6-4.2,3.2-6.8,3.5c-2.6,0.3-5.5-1.4-5.5-4c-1.8,0-3.6,0.1-5.5,0.1
				c1.4,1.7,0.7,4.5-1.1,5.9c-1.7,1.4-4.1,1.8-6.2,2.1c0.2,1.7-0.2,3.4-1,4.9c-1.9-0.6-3.7-1.3-5.6-2c0,1.8-0.7,3.6-2,4.8
				c-2.1-1.8-6.2-3.2-6.9-0.5c-0.2,0.7,0,1.5,0.2,2.2c0.9,3,1.7,6.1,2.6,9.1c-2.2,3.7-6.7,5.7-10.9,4.9c-0.3,1.4-0.5,2.8-0.8,4.2
				c-2.5-0.5-4.9-1.1-7.4-1.6c1.8-1.1,2.9-3.3,2.7-5.4c-1.9-0.3-4,0.2-5.6,1.3c1.4,0.5,1.1,2.2,0,3.3c-0.6,0.6-1.3,1-2.1,1
				c-1.1,0-2.2-0.4-3.2-0.9c-1-0.5-2.1-1-3.2-1.2c-2.2-0.4-5,2-3.5,3.7c2,0.7,4.4,0.2,6-1.3c0.5,3.3,4.6,4.5,7.5,6.1
				c2.9,1.7,4.5,6.9,1.3,7.7c-3.1-2.5-6.8-4.3-10.6-5.2c-1.6-2.6-4.4-4.4-7.4-4.9c-0.6,3.8,0.9,7.9,3.7,10.5
				c-3.2,1.9-6.3,3.7-9.5,5.6c-1.1,2.1-3,3.7-5.2,4.6c2.5,4.6,4.3,11.4,0.2,14.2c-0.2,0-0.3,0.1-0.4,0.2c0.1-0.1,0.3-0.2,0.4-0.2
				c0.6-0.1,1.4,0.6,1.3,1.4c-0.2,0.9-1.1,1.5-1.9,2c-1.3,0.7-2.8,1.4-4.2,2.1c-13.7-6.7-21.2-21.5-31.1-33.1
				c-16.1-18.9-39.4-30.2-55.9-48.7c-7.1-8-12.8-17.2-19.7-25.3c-7.8-9.1-17-16.8-26.2-24.5c-10.3-8.6-20.6-17.1-30.9-25.7
				c-6.7-5.6-13.6-11.2-21.7-14.4c-6.9-2.7-14.4-3.5-21.5-5.8c-9.8-3.2-18.5-9.1-27-15c-12.4-8.6-25-17.3-35.7-28
				c-5.4-5.4-10.4-11.3-16.5-15.8c-11.9-8.7-27.1-11.2-40.7-16.8c-17.9-7.3-32.9-20-47.7-32.4c-6.1-5.1-9.8-12.1-14.1-18.8
				c-2.9-4.4-5.1-9.7-4-14.8c1.7-8.1,10.5-12.4,18.5-14.7c22.7-6.6,44.9-4.2,68-6.5c15.8-1.6,33.5-12.4,35.7-29.6
				c4.4-35.3,15-69.3,23.5-103.7c4.7-18.8,5.2-22.8,22.7-32.6c15.2-8.5,31.1-15.6,47.6-21.2c4.7-1.6,9.6-3.2,13.4-6.5
				c6.5-5.6,8.1-14.9,8.8-23.5c3.2-38.5-3.4-77.2-9.9-115.3c-4.3-25.1-8.8-50.7-20.8-73.2c-18-33.8-51.6-57.8-66.8-93
				c-7-16.2-9.7-33.9-13.2-51.2c-13.1-63.7-39.5-124.6-77-177.8c-12.2-17.3-26.5-34.5-46.4-41.7c-19.7-7.1-41.8-3.2-62.2-8.2
				c-22.1-5.5-40.1-21-59.4-33c-67.2-41.8-158.6-40.8-224.9,2.4c-13.9,9.1-27,19.9-42.8,25.1c-17.1,5.6-34.8,3.5-52.4,3.8
				c-16.5,0.3-30.7-5.8-47.1-8.1c-33-4.7-67.5,0.3-97.7,14.7c-14.4,6.9-27.8,15.8-42.4,22.2c-37.6,16.4-80.4,14.7-121.1,10.2
				c-10.8-1.2-21.8-2.6-32.6-1.2c-9.5,1.3-18.6,4.7-28,6.6c-17.6,3.6-35.8,1.9-53.6,3.5c-36.9,3.3-70.9,20.4-104.9,35.1
				c-21.5,9.3-48.5,17-66.7,2.2c-11.7-9.6-15.4-25.5-21-39.5c-18.4-46.8-55.3-75.6-92.3-107.2c-5.2-4.4-10.4-9-13.7-14.9
				c-6.3-11.8-3.3-26.2-4.1-39.6C34.8,917,19.7,894.9,16,870.3c23.7,0,47.5-1.7,71-4.8c8.8-1.2,17.7-2.6,26-5.8
				c13.3-5,25.8-12.8,39.2-17.4c17.9-6.1,39-7.4,57.6-10.9c16.3-3,32.8-6.1,49.4-6.8c11.1-0.5,22.4,0.2,33.4-1.5
				c39.4-5.8,70.4-39,109.6-45.9c37.8-6.7,74.8,12,112.2,20.3c32.8,7.2,66.7,6.3,100.3,5.5c30.7-0.8,64.9-3.2,85.6-25.9
				c22.2-24.5,24.8-62.2,64.2-61.9c31.8,0.2,63.8,19.3,76.3,49c2.5,6.1,4.5,12.7,9.2,17.3c8.6,8.4,22.3,6.9,34.3,6.4
				c47.4-2.2,92.3,19,136.3,36.7c44,17.6,93.3,32.2,138.2,17c29.3-10,58.4-32.4,87.8-22.8c24.6,8,37.3,36.1,37.9,62
				c0.7,25.8-7.6,51-11.1,76.6c-3.5,25.6-1.1,54.4,16.9,72.9c36.9,37.9,111.7,9,147.1,48.3c7.3,8.1,12,18.4,19.3,26.6
				c7.3,8.2,19,14.3,29.1,10c13.2-5.5,14.7-23,17-37.2c7.7-49.3,48-94.7,35.9-143.2c-2.9-11.6-8.7-22.2-12.2-33.6
				c-4.3-13.8-5.3-28.5-9.7-42.4c-11.2-35.2-42.3-59.7-63.6-90c-21.3-30.2-29.6-78.1,0.3-99.8c21-15.2,50-9.5,75.2-3.2
				c119.5,30.1,247.8,65.7,324.5,162.1c16.4,20.7,36.3,46.6,62.3,42.1c9.7-1.7,18-7.5,26.6-12.1c19.9-10.5,43-14.2,65.2-11.4
				c24.8,3.1,44,16.5,66.2,26.5c11.8,5.3,25.3,10.7,37.3,5.8c5.6-2.3,10.1-6.6,14.5-10.7c40.8-38.5,85.1-73.2,132.4-103.4
				c11.2-7.2,23.4-14.3,36.7-14.5c18-0.3,33.6,12.1,45.9,25.3c12.3,13.2,23.5,28.2,39.7,36c9,4.4,22.2,5,26.8-3.9
				c1.3-2.5,1.7-5.4,2-8.3c1.8-13.9,4.1-27.8,7.2-41.5c1.1-4.9,2.3-9.8,4.8-14.1c7.8-13.3,25.3-16.9,40.7-17.5
				c17.1-0.7,34.4,0.6,51.2,3.9c9,1.7,18.2,4.2,25,10.3c6.1,5.6,9.4,13.5,12.5,21.1c8.1,19.9,16.3,39.7,24.4,59.6l0.3,0
				c-0.1,0.5-0.2,1.1-0.3,1.7c-0.4-0.9-0.9-1.8-1.3-2.8c-1.9-0.5-3.7,1.5-4.2,3.4c-0.4,1.9-0.1,4-0.3,5.9c-0.4,3.8-3.1,7-5.6,10
				c-3.5,4-7.2,8.2-12.2,9.8c-1.1,0.5-1,2.1-0.4,3.1c0.6,1,1.6,2,1.6,3.2c0,1.1-0.8,2-1.6,2.8c-4.9,5.1-10,10.3-16.6,12.8
				c-2.9,1.1-6.1,1.7-8.7,3.5c-2.6,1.8-4.3,5.4-2.8,8.1c-1.3,0.3-2.5,0.5-3.8,0.8c1.2,2.8-3.1,4.3-5.7,5.8
				c-4.7,2.7-4.6,10.8,0.1,13.4c0.1,0,0.3,6.5,0.6,7.5c0.6,2,1.3,4,2.2,5.9l-2.1,0.2c-0.2-0.5-0.4-1.1-0.9-1.4
				c-0.4-0.3-1.1-0.4-1.5,0.1c-0.4,0.8,0.4,1.5,0.7,2.3c0.3,0.8,0.2,1.8-0.4,2.5c-0.6,0.7-1.5,1-2.4,0.8c-0.4,3.3-1,7.1,2.7,8.6
				c1.4,0.5,2.9,0.5,4.3,0.4c3.7-0.2,7.5-0.4,11.2-0.6c1.3-0.1,4.1,2.5,5.1,3.3c1.7,1.3,2.7,3,4.8,3.4c2.1,0.4,4.1,1.7,5.3,3.5
				c0.2,0.3,0.4,0.6,0.7,0.8c0.3,0.2,0.6,0.3,0.9,0.4c1.7,0.4,3.4,0.8,5.1,1.2c0.6,0.1,1.2,0.3,1.5,0.9c0.1,0.2,0.1,0.5,0.2,0.8
				c0.4,0.9,2.4,1.9,3.1,2.6c1-1,1.9-1.9,2.9-2.9c4,5.5,8.1,10.9,12.3,16.3c5.6,7.2,11.5,14.3,17.5,21.2c2.8,3.3,5.5,5.6,9,8
				c1.8,1.3,3.7,2.5,5.6,3.6c0.8,0.5,5.2,2.4,5.4,3.1c0.2,1.1,0.5,2.3,0.7,3.4c0,0.2,3.7,2.1,4.2,2.6c1.1,1.1,2.6,2.6,2.8,4.3
				c0,0.2,0,0.5,0.2,0.7c0.2,0.4,0.7,0.5,1.2,0.5s0.9-0.1,1.4-0.1c0.9,0,1.6,0.6,2.1,1.3c0.2,0.2,0.4,0.5,0.5,0.7l-0.2,0.2
				c-6.7,1-13.4,2.6-20.1,3.8c-6.8,1.3-13.7,2.7-20.1,5.2c-10.3,4.1-20.2,11.8-29.8,17.5c-5.8,3.4-11.7,6.9-16.8,11.3
				c-5.3,4.6-9.7,10.2-13,16.4c-2.9-1.9-5.8-3.8-8.6-5.7c1.4-1.4,3.6-2,5.5-1.3c0-2.4-3.5-2.8-5.9-2.5c-2.4,0.3-6-0.6-5.5-3
				l-0.8-2.7c2.2-0.7,4.5-1.4,6.8-2.1c-3.6-4.2-7.9-8-12.7-10.9c-0.8,1.6-2.8,2.4-4.5,1.8c1.7-2.5,4.9-3.8,7.9-3.2
				c-2.8-2.7-5.6-5.4-8.4-8.1c1.4,2.4-1.3,5.9-4,5.2c-0.9-2-2.7-3.5-4.8-4c-1.6-3.2-1.7-7.1-0.1-10.3c-1.5-0.4-3.2,0.4-3.8,1.9
				c2.5,1.1,2.1,5.6-0.6,6.3c-2.7,0.7-5.1-3.1-3.4-5.2c-1.7-0.9-2.2,2.2-1.6,4c0.6,1.8-0.9,4.7-2.1,3.3c-0.2-0.8-0.5-1.6-0.7-2.5
				c-1.8-2.1-3.6-4.2-5.4-6.4c0,1.5-0.1,3-0.1,4.5c-5.1,0.2-10.2-3.2-12-8c-2.9,0-5.9,0.3-8.8,0.8c2.6,1,5.3,2,7.9,3
				c0.3,2-1.8,4-3.8,3.6c0.6,2.4,0.7,4.9,0.4,7.3c-1.5,1-3.4-0.2-5.1-0.9c-1.2-0.5-3,0.1-3.5,1l-1.3-0.5c0.2-0.5,0.3-1,0.4-1.5
				c-4.3,1.7-8.5,3.3-12.8,5c1.8-0.9,3.7-2,4.6-3.8c0.9-1.8,0.3-4.5-1.7-5c0.5,1.8-1,3.7-2.8,4.3c-1.8,0.7-3.7,0.4-5.5,0.2
				c-0.7-0.1-1.5-0.2-2.1-0.7c-1.3-1.1-0.6-3.4,0.8-4.2c1.1-0.7,2.4-0.8,3.7-0.7c0.3,0.2,0.7,0.3,1.2,0.1c-0.4,0-0.8-0.1-1.2-0.1
				c-1.1-0.7-1.5-2.9-0.3-3.9c1.6-1.3,3.9-0.9,5.8-0.3c-0.5-1.4-0.9-2.9-1.4-4.3c-4,1.8-8.2,3.7-12.6,3.2c-1.2-0.1-2.4-0.5-3.6-0.3
				c-1.8,0.3-3.2,1.7-4.9,2.6c-1.6,0.9-4,1.2-5-0.4c1.9-4,5.7-7.1,10-8.1c-2.8-1.4-3.2-5.3-2.5-8.4s2.3-6.1,1.9-9.2
				c-0.2-1.5-0.6-3.3,0.6-4.1c0.7-0.5,1.7-0.3,2.6-0.5c2.2-0.5,2.8-4,0.9-5.2c4.4-2.8,9.3-5,14.4-6.4c-3.7-0.4-7.5-0.4-11.1,0.2
				c0.4-1.5-1.8-2.9-3-1.8c-2.1-7-0.7-15,3.5-21c-0.9,0.6-2.3,0.1-2.6-1c-0.2-1.1,0.8-2.2,1.9-2c-1.2-1.7,0-4.6,2.1-4.9
				c1.6-3.5-2.9-6.6-4.7-10.1c-1.3-2.5-1-5.8,0.7-8c-1.7,0.8-3.3,1.7-5,2.5c-1.2-2.1-4.5-2.6-6.3-1c-2.8-0.5-5.6-1-8.5-1.6
				c-0.4-0.1-0.9-0.2-1.3,0c-0.8,0.4-0.8,1.2-0.6,2.1l-1.2,0.1c-1.2-0.9-1.9-2.5-1.8-4c-2.2-0.9-4.3-1.8-6.5-2.7
				c1,3,0.1,6.6-2.2,8.8c2.6,1.1,3.8,4.6,2.5,7c-2.7-1.5-5.8-3.6-5.8-6.7c0-1.5,0.8-3,0.8-4.5c0.1-3.3-3.4-5.5-6.5-6.3
				c-3.1-0.8-6.7-1.1-9.1-3.4c-0.6-0.6-1.2-1.2-1.9-1.5c-1.5-0.5-2.9,1-3.9,2.2c-6.3,7.1-16.5,10.4-25.8,8.3c0,1.7-0.1,3.4-0.1,5
				c-2.2-1.9-6.2,0.2-6,3c-1.5,0.2-3-0.8-3.4-2.2c-1.7,0.8-3.7,1.1-5.6,0.7c-1.5,1.2,0.5,3.4,0.6,5.2c0.1,2.9-3.8,3.7-6.6,3.7
				c-2.9,0-6.7,1.8-5.7,4.5c-1.9,0.2-3.7,0.5-5.5,0.8c-1,4.8-5.6,6.8-8.6,10.2c-3.6,4.2-8.7,7-12.1,11.4c-0.9,1.2-1.7,2.6-2.8,3.8
				c-1.1,1.2-2.5,2.4-2.8,4c-0.4,1.6,1.2,3.6,2.7,2.9c1,1.1-1.2,2.1-2.5,2.8c-1.6,0.8-2.2,2.6-3.2,4.1s-2.7,2.9-4.3,2.1
				c0.4,2.2,0.1,4.8-1.7,6.1c-1.8,1.3-5.1,0.3-5-1.9c-2.9-0.7-6.1,1.1-7,3.9c1.6-1.9,5.1,0.7,4.3,3.1c-0.7,2.4-3.8,3.3-6.2,2.7
				c-0.7,1.4-1.4,2.7-2.2,4c-2.5,0-5,0.1-7.5,0.1c-0.1,1.9-2.2,3.5-4.1,3c-0.2,1.5-0.5,3-0.7,4.5c-2.1-0.1-4.1-1.1-5.6-2.6
				c0.3-1.8-0.3-3.6-0.9-5.4c-0.6-1.8-1-4,0-5.7c1-1.7,4-2,4.7-0.2c0.9-1.2,2.3-1.9,3.7-1.9c-0.3-1.8-0.2-3.9,1.2-5.1
				c1.4-1.2,4.1-0.6,4.2,1.2c2.8-2.1,5.5-4.2,8.2-6.3c0.5-0.4,1-0.8,1.2-1.4c0.6-1.6-1.4-2.9-2.9-3.7c-1.5-0.8-2.8-3.2-1.3-4
				c1.8-1.4,3.5-2.8,5.2-4.1c-0.1-1-0.2-1.9-0.4-2.9c0.7-0.6,1.4-1.3,2.1-1.9c-3.3,1.5-6.7,2.9-10.3,2.6c-3.6-0.4-7.1-3.4-6.7-6.9
				c-2.2-2.1-6.5,2.3-8.7,0.1c-1.8-1.7,0.7-4.5,2.9-5.5c2.2-1,5.1-2.8,4.3-5.1c0.8,1.1,2.2,1.8,3.6,1.8c0.2-1,0.1-2.1-0.4-3.1
				c-3.3-0.4-4.8-4.8-3.5-7.8c1.3-3,4.4-4.9,7.2-6.6c2.9-1.6,5.9-3.4,7.4-6.4c0.8-1.6,1-3.5,1.5-5.2c1-3.9,3.2-7.5,6.2-10.1
				c-0.4-2.7,0.3-5.5,2-7.5c0.7-0.9,1.6-1.8,1.4-2.9c-0.1-0.7-0.7-1.2-0.7-1.9c0-1.1,1.4-1.6,2.2-2.3c1.5-1.4,1-4-0.5-5.4
				c-1.5-1.4-3.5-1.9-5.5-2.3c0.1-1.9-0.4-3.8-1.3-5.4c-3.8-1.2-7.6-2.3-11.4-3.5c-0.7-0.2-1.4-0.4-1.9-0.9c-0.5-0.4-0.8-1-1-1.6
				c-0.8-1.7-1.6-3.4-2.3-5c-0.1-0.3-0.2-0.6-0.4-0.9c0.1,0.3,0.3,0.6,0.4,0.9c0.9,2.8-1.6,6.2-4.6,7.1c-3.4,0.9-6.9-0.3-10.2-1.5
				c-1.5-0.5-3-1.1-4.4-1.6c-1.9,0.1-3.7,1.2-4.6,2.8c-1.4-1.4-3.9-0.9-5.3,0.5c-1.4,1.4-2,3.4-2.6,5.2c-1.4,0-2.9,0-4.3,0.1
				c-0.2,1.3-0.4,2.5-0.7,3.8c1.3,0.6,2.6,1.1,3.9,1.7c-1.1,3-4.5,5-7.7,4.5c0,2.8-0.9,5.7-2.5,8.1c-0.2,0.2-4.6,5.2-2.7,5.4
				c-1.7,0-3.2,1.5-3.2,3.2c0,1-0.2,2.6-1.1,2.2c1.2,0.7,1.9,2.2,1.7,3.6c-0.9-0.6-2.2,0.3-2.5,1.3c-0.4,1-0.2,2.1-0.4,3.2
				c-0.5,2.7-2.8,4.5-5,6.1c-8.3,5.9-16.5,11.8-24.8,17.7c-3.8,1-7.4,3.3-9.9,6.3c0.4,1.9,0.4,3.8,0.2,5.6c-2.9-0.1-5.7,2-6.5,4.8
				c-0.5,1.8-0.2,3.6-0.6,5.4c-0.4,1.8-1.7,3.7-3.6,3.5c1.2,0.1,1.8,1.5,1.8,2.6c0,1.2-0.4,2.4-0.2,3.5c0.1,0.8,0.6,1.4,0.8,2.1
				c0.6,2.2-0.8,4.5-2.1,6.5c-3.3,4.8-6.6,9.7-9.9,14.5c-1,0.4-2.1,0.1-2.9-0.6c0.3-1.3,0.5-2.5,0.8-3.8c-1.4-0.9-2.3,1.7-3.5,2.9
				c-1.8,1.7-4.7-0.1-7.2-0.2c-3.1-0.1-5.3,2.7-7.3,5c-2.8,3.4-7.9,6.7-11.2,3.8c0.3-5-6-8.4-10.9-7.2c-4.9,1.2-8.6,5.2-11.9,9
				c0.5,2.4,1.1,4.8,1.6,7.2c-6.1,7-7.5,17.8-3.3,26.1c3.1,6.2,8.8,10.7,14.6,14.5c3.6,2.3,7.5,4.6,11.8,5.1
				c7,0.8,14.8-2.7,20.6,1.2c3.3-4.2,8.5-6.9,13.9-7.1c0.2,1.6-0.1,5.7,1.4,6.6c1.1,0.7,3.6-0.8,4.5,0.2c1.5,1.8,3.2,4.3,3.6,6.7
				c0.4,2.1,1.3,4.1,2.3,6c0.2,0.4,0.3,0.7,0.6,1c0.2,0.2,0.3,0.4,0.5,0.6c1.1,1.2,1.9,3.4,1.8,5c-0.2,2.2-2.3,3.5-2.7,5.3
				c-1,4.7-1,9.6,0.1,14.3c0.5,2,1.2,4.1,2.5,5.7c1.3,1.5,3.2,2.4,5,3.1c7.4,2.7,15.6,1.7,23.4,0.3c2.8-0.5,5.8-1.1,8.2-2.7
				c2.4-1.6,4.3-4.4,3.9-7.2c-0.1-0.8-0.4-1.7-0.4-2.5c-0.3-3.8,3.5-6.3,6.6-8.5c3.2-2.3,6.1-5.2,8.5-8.5c1-1.3,1.9-2.8,1.8-4.5
				c-0.1-1.6-1.8-3.2-3.4-2.6c1.6-0.7,3.3-1.3,4.9-2.1c3.4-1.6,6.6-3.5,9.5-5.8c2-1.5,3.9-3.2,6.2-4.2c4.9-2,10.5,0,15.4,1.9
				c1.8,0.7,3.7,1.5,5,2.9c1.3,1.5,1.8,3.8,0.5,5.3c4,0.3,8-0.4,11.6-2c-0.9-1.1,0.4-3,1.7-2.6c-0.7,1.8-0.2,3.9,0.9,5.4
				c0.6,0.8,1.5,1.2,2.1,2c0.5,0.5,0.8,1.8,1.3,2.2c0.5,0.3,1.1,0.3,1.6,0.3c1,0,1.9,0,2.9-0.1c0.1,0,0.3,0,0.4-0.1
				c0.1-0.1,0.1-0.3,0.1-0.4c0-0.5,0-1.1,0-1.6c0-0.2,0-0.4,0.1-0.5c0.1-0.1,0.3-0.2,0.4-0.2c2.4-0.6,4.8-0.5,7.2-1
				c2.9-0.6,5.9-0.4,8.8-0.1c-0.2-0.9,0.2-1.8,0.6-2.7c1.1-2.3,2.5-4.9,5-5.5c1.6-0.4,3.7,1.1,3.8,2.7c0.1,0.7-1.6,4.1,0.7,3.9
				c1.3-0.1,2.5-0.9,3.1-2.1c0.8,0.6,1.6,1.3,2.4,1.9c1.8-0.3,3.6-1,5.3-1.2c1.9-0.2,3.6,0.9,5.5,0.9c1.3,0,2.6-0.6,3.3-1.6
				c0.1-0.2,0.2-0.4,0.4-0.6c1.5-1.5,7,1,4.8,2.9c-0.6,0.5-1.4,0.4-2.1,0.5c-1.9,0.5-2.7,3-2,4.9c0.7,1.8,2.3,3.2,3.9,4.3
				c-1.3,1-2.1,2.5-2.4,4.1c-1.6-0.9-3.9-0.3-4.8,1.3c-0.9,1.6-0.2,3.9,1.3,4.7c0.6,0.4,1.4,0.5,2,0.8c1.9,0.9,2.9,3.2,2.4,5.1
				c-0.5,2-2.6,3.4-4.6,3.2c0.7,1.2,0.8,2.7,0.2,4c-1.9,0.6-3.8,1.2-5.6,1.8c-1.5,0.5-3.2,0.9-4.6,0.3c-1.5-0.6-2.2-2.9-0.8-3.8
				c1.2,0.3,2.6,0.1,3.7-0.5c-2.6,0-5.1-2-5.7-4.6c-0.8,3-2.8,5.6-5.4,7.1c-0.6-2.7-2.9-4.9-5.7-5.3c2,1.8-0.3,5.1-2.7,6.4
				c-2.4,1.3-5.5,2.9-5.2,5.6c-2,0.2-3.9,0.5-5.9,0.7c1.5,1,2.1,3.1,1.5,4.8c-2.6-1.3-5.2-2.5-7.8-3.8c1.4,0.7,1.5,2.7,0.8,4.2
				c-0.7,1.4-1.9,2.5-2.6,3.9c-5.2,1.3-10.1,4.3-13.7,8.3c-1.2,1.7-3.6,1.8-5.5,1.3s-3.8-1.4-5.8-1.5c-0.1,0-0.3,0-0.4,0
				c-1.9,0.2-3.9,1.6-3.7,3.5c0.1,0.7,0.5,1.3,1.1,1.6c1.8,0.6,2.5-2.2,2.3-4.1c0,0,0.1,0,0.1,0c1,0.2,2.1,0.4,3.1,0.6
				c4.3,3.1,5,10.1,1.4,14c-2-0.8-3.5-2.6-3.9-4.7c-2.1,1.1-3.8,2.8-5,4.8c0.7,1.5,1.4,3.1,2.1,4.6c-0.9-0.1-1.9-0.1-2.8-0.2
				c1.2,3.7,2.8,7.3,4.5,10.8c-5.5,2.6-11,5.3-16.5,7.9c-0.4,0.2-0.8,0.4-1.3,0.4c-0.1,0-0.2,0-0.2,0c-1.5-0.2-1.9-2.5-1.4-4
				c0.6-1.6,1.6-3.2,1.1-4.8c-3.5,0.4-7.1,0.8-10.6,1.2c0.1,2.1,0.1,4.1,0.2,6.2c2.5-0.3,4.9,2.1,4.6,4.6c1.9-0.5,3.8-0.6,5.8-0.3
				c0.2,0,0.4,0,0.6,0.1c-1.7,4-5.4,7.1-9.7,8c-1.7,1.4-1.8,4-2.2,6.2c-0.3,2.2-1.5,4.8-3.8,5c0.1,2.4,0,4.7-0.3,7.1
				c-1.5,0.4-3.2-1-3.1-2.6c-0.8,1.6-1.3,3.3-1.3,5.1c-1.3,0.4-3.2-0.8-3.2-2.2c-3.9,0.5-4.8,6-5.1,9.2c-0.3,3.8-1.3,8.5-5,9.3
				c-0.5,0.1-1.1,0.2-1.6,0.5c-1.4,1.1-0.7,3.8-0.4,5.2c0.5,2,0.4,3.8,0.4,5.8c0,0.9-0.2,2.1-1.1,2.5c-0.4,0.2-0.9,0.1-1.3,0.1
				c-2-0.1-4.1,1.3-4.8,3.2c-1,2.7,0.4,5.6,0.4,8.5c0,1.1-0.2,2.2-0.1,3.4c0.1,1.1,0.5,2.3,1.5,2.9c0.2,0.1,0.4,0.2,0.6,0.4
				c1,1.5-2,2.4,1.1,3.6c2,0.8,3.9-0.5,5.6-1.7c1.4-1.3,3.8-0.5,5.1,1c1.3,1.5,1.9,3.4,3.1,4.9c1.5,1.9,3.7,2.9,5.9,3.8
				c1.1,0.5,2.4,1.1,3.6,1.3c1.2,0.3,2.5,0.1,3.7,0.6c1.3,0.5,2.3,1.6,3.6,2c2.7,0.7,5.6-1.9,8.2-0.9c0.5,0.2,1,0.5,1.4,0.8
				c1.7,1.2,3.7,3.2,5.6,4c2,0.9,4.2,0.3,6.2,1.5c1.9,1.2,3,3.2,4,5.2c2.3,4.6,4.5,9.2,6.4,14c1.6,3.8,2.6,8.5,5.9,11.2
				c1,0.8,2.1,1.6,2.7,2.8c0.5,1.2,0.1,2.9-1.1,3.3c2.3,3,4.6,5.9,7.4,8.4c1.4,1.2,2.9,2.3,3.6,4c0.8,1.7,0.6,3.6,1.3,5.3
				c0.7,1.7,3.1,2.9,4.3,1.6c0,1.9,0,3.7,0,5.6c2.3-0.9,4.9,2.1,3.8,4.3c0.7,0.2,1.3,0.4,2,0.6c-0.6,1.4,0.3,3.3,1.8,3.7
				c0.6,0.1,1.2,0.1,1.6,0.4c0.5,0.3,0.7,0.9,0.8,1.4c1.2,3.9,2.9,7,1.4,11c-0.5,1.4,0.3,2.9,0.6,4.3c0.4,1.4-0.1,3.5-1.6,3.5
				c1,2.9,4.5,3.9,7.5,4.5c2.2,0.5,4.5,0.9,6.7,1.4c0.6,0.1,1.4,0.2,1.7-0.4c0,0.9,0,1.9,0,2.8c3.4-0.4,6.8,0,10,1
				c2.7,0.9,5.4,2.5,6.6,5.1c1.3,2.9,0.3,6.3-0.7,9.3c1,0.4,1.9,0.7,2.9,1.1c0.2,1,0.2,2.1-0.2,3.1c6.5-1.1,13.4,0.6,18.6,4.5
				c5.2,4,8.8,10.1,9.5,16.6c-5.4,2.8-11.9,0.2-17.4-2.2c-5.6-2.4-12.3-4.6-17.3-1.2c5.2,0.6,10.6,1.3,15.4,3.6
				c-1.2,0.5-0.6,2.3,0.6,2.9c1.1,0.6,2.5,0.5,3.4,1.4c0.4,0.4,0.7,0.9,1.2,1.3c0.8,0.7,2,0.7,3.1,0.7c3.6,0,7.1,0.6,10.5,1.6
				c0.6,0.2,1.3,0.4,1.7,0.9c0.5,0.5,0.7,1.1,0.7,1.7c0.1,1.1-0.4,2.4-0.9,3.4c-5.1-0.5-10.1-1.2-15.1-2.2c-4.8-1-9.6-2.2-13.6-5.1
				c-2.9-2.1-5.3-4.9-7.4-7.9c-2.1,0.9-4.4-1.9-6.6-1.3c-1.2,0.3-2,1.6-3.2,2c-1.9,0.6-3.6-1.3-4.8-2.8c-3.1-3.7-7.1-6.5-11.6-8.3
				c-4.6-1.8-10.1-2.4-14.2,0.4c-1.8,1.2-3.1,2.9-4.4,4.6c-1.9,2.5-3.8,4.9-5.8,7.4c3.3-0.6,6.5-1.9,9.2-3.9c1-0.7,2-1.8,1.8-3
				c1-1.7,3.4-2,5.4-1.9c2,0.2,4.1,0.5,5.9-0.4c4.4,0.8,7.6,5.6,6.5,10c0.8,3,4.8,4.6,7.4,2.9c0.5-0.3,1.1-0.8,1.7-0.9
				c0.6-0.1,1.2,0,1.8,0.2c3.6,1.1,7.1,2.2,10.7,3.3c4,3.7,8,7.4,12.7,10.3c3.9,2.4,8.2,4.1,12.7,5.1c0.7,0.2,1.5,0.3,2.1,0.7
				c0.6,0.3,1,0.8,1.5,1.3c5.7,6.2,12.8,12.5,14.7,21.1c0.3,1.2,0.3,2.8-0.6,3.6c-0.7,0.6-1.8,0.6-2.7,0.6c-3.9-0.1-7.9,0-11.6,1.2
				c-3.7,1.2-7.2,3.9-8.5,7.6c-0.4,1-0.6,2.2-1.2,3.1c-1.4,1.9-4.1,2-6.2,3.1c-2.2,1.1-3.7,3.5-3.8,5.9c-2.2,0.3-4.4,0.6-6.6,0.9
				c-1.4,2.1-1.6,4.7-1.7,7.2c-0.1,2.5-0.2,5.1-1.6,7.2c-1.3,2.1-4.3,3.4-6.4,2.1c-0.8-0.5-1.4-1.3-2.2-1.8c-0.9-0.5-2-0.4-3-0.4
				c-5.4,0.2-11.8,0.9-14.7,5.5c-1.3,2.1-3.1,5.3-5.2,4.1c0.9,1.4,1.9,2.9,3.4,3.7c1.5,0.8,3.7,0.5,4.4-1.1c0.4-0.9,0.2-2,0.6-2.9
				c0.9-2.6,4.9-2.4,7-0.7c2.1,1.7,3.4,4.4,5.8,5.9c5,3.3,11.7-0.4,15.9-4.6c4.3-4.2,8.5-9.5,14.5-9.9c4.8-0.3,9.1,2.8,12.9,5.7
				c4.6,3.5,9.2,7,13.8,10.5c0.6-2.1,3.6-1.8,5.8-1.3c4.5,1.2,9.2,1.5,13.8,0.9c0.2,2-1.5,3.8-3.3,4.7c-1.8,1-3.9,1.5-5.4,2.9
				c-1.2,1.1-1.9,2.6-2.6,4.1c-1.3,2.7-2.5,5.4-3.8,8.2c3-0.2,6-1.4,8.3-3.4c1.8-0.1,2.8,2,2.9,3.8c0.1,1.8-0.2,3.7,0.7,5.2
				c0.5,0.8,1.4,1.6,1.2,2.6c-0.1,0.6-0.6,1-1,1.5c-1.7,1.9-1.5,5.2,0.4,7c0.6,0.6,1.4,1,1.9,1.6c1.4,1.9,0,4.4-1.4,6.3
				c0.5,0.2,0.9,0.4,1.4,0.7l-1.6,2.4c0,0,0,0.1,0,0.1c0,1.2-1.4,2.1-2.6,2c-1.3-0.1-2.4-0.9-3.4-1.6c1.9-4,0.9-9.1-2.3-12.1
				c0.7,2.1,0.9,4.5,0.1,6.6c-0.8,2.1-3,3.7-5.2,3.4c-0.5-0.1-1-0.2-1.3-0.6c-0.6-0.6-0.5-1.6-0.9-2.3c-0.8-1.3-3.1-0.8-3.8,0.6
				c-0.7,1.4-0.5,3-0.2,4.6c-1.4,0.2-2.8,0.5-4.1,0.7c2.5,4.4,11.2,2,12.9,6.8c0.3,0.7,0.3,1.5,0.3,2.3c1.6-0.2,3.1,1.2,3.2,2.8
				c-1.8-0.1-3.6-0.1-5.4,0.1c-2.3,0.2-4.5,0.7-6.7,1.3c-0.7,1.7,1.9,2.8,3.6,2.4c1.1-0.3,2.2-0.8,3.3-0.9c0.7-0.1,1.3,0,1.9,0.3
				c0.1,2.8,1.4,5.2,0.3,8c-0.6,1.5-3.9,5.8-6.1,4.9c3.3,1.4,0.9,7.9,4.3,9.3c0.5,0.2,1.1,0.3,1.6,0.5c2.1,1.1,1,4.6,2.5,6.3
				c0.6,0.7,1.6,1.1,2.4,1.7c2.2,1.7,1.4,5.8-1.2,6.7c-1-1.4-2.1-2.8-3.6-3.5s-3.7-0.5-4.5,1c-0.5,2.4-0.9,4.9-1.4,7.3
				c-0.2,1-0.4,2.1-1.3,2.7c-1.9,1.4-4.3-1.1-5.3-3.3c-0.9-1.9-1.7-3.9-2.5-5.8c-1.4-0.1-2.8-0.5-3.9-1.3c-1.2,2.3-3.4,4.2-5.9,4.9
				c1.6,0.1,3.2,0.3,4.7,0.5c1.1,2-0.2,4.6-1.8,6.3c-1.5,1.8-3.3,3.7-3.2,6c0.1,1.4,1,2.8,0.7,4.2c-0.3,1.5-1.6,2.2-3,2.4
				c-1.1,0.2-3.2,0.4-4.2,0.2c-0.8-0.1-1.4-0.6-2.1-0.9C2328.7,1640.6,2326.4,1640.9,2324.7,1642.1z"/>
			<path class="st1" d="M1859,2198.2c0,0.6,0,1.1,0,1.7c-3.2-0.3-6.6,1.1-8.7,3.5c-0.8,0.9-1.4,2.1-1.1,3.3
				c-1.4,0.6-2.9-0.1-3.6-1.3c-0.8-1.5,0-2.4,1.2-3.2c-0.2-0.9-1.4-1.5-2.2-1.1c-0.1,2.9-0.6,5.8-1.4,8.7c-0.2,0.8-0.5,1.5-1,2.1
				c-0.6,0.7-1.3,1.1-2.1,1.5c-3.1,2-5.1,5.7-5.1,9.4c0,0.9,0.1,1.9-0.2,2.8c-0.8,3-4.8,3.6-8,3.6c1.7,0.9,3.6,2.1,3.9,4
				c0.1,0.8,0,1.6-0.2,2.3c-0.9,4.5-2,8.9-3.3,13.3c-0.5,0.5-0.7,1.1-0.5,1.8l0.8,1c0.6,2.7-1.5,5.3-3.9,6.5
				c-2.4,1.3-5.2,1.6-7.8,2.7c-4.7,2-8.3,6.4-9.2,11.4c-0.3,1.5-0.4,3.2-1.2,4.5c-0.8,1.3-2.7,2.2-4,1.3c-0.5-0.4-0.8-1-1.4-1.3
				c-0.7-0.4-1.5-0.2-2.2-0.1c-2.1,0.4-4.2,0.8-6.3,1.2c-1,0.2-2,0.4-2.8,1c-3.1,2.4,0.2,8.4-2.8,11c-0.6-1.4-2-2.4-3.5-2.1
				c-2.6,0-1,3.1-1.4,3.8c-0.3,0.4-1.6,0.2-2,0.2c-1.5-0.3-0.8-0.6-1.7-1.8c-0.4-0.5-1-0.9-1.7-0.7c-0.9,0.3-1.1,1.6-2,2
				c-0.6,0.3-1.5,0-1.8-0.6c-0.3-0.6,0-1.5,0.6-1.8c-0.5-1.7-1.3-3.7-3.1-4c-1-0.2-1.9,0.3-2.9,0.5c-3.1,0.6-6.3-1.1-9.4-0.4
				c-1.2,0.3-2.5,1-3.7,0.5c-1.4-0.5-1.8-2.2-1.8-3.7c-2.7,0-5.3,0.4-8-0.1c-2.4-0.4-4.7-1.3-6.8-2.5c-1.7-0.9-2.7-2.5-4.2-3.4
				c-2-1.2-5-1.4-7.2-2c-0.4-0.1-0.9-0.2-1.2-0.6c-0.3-0.4-0.3-1-0.2-1.5c0.6-4.7,2.3-10.1-0.6-13.9c-1.2-1.6-3.3-3.1-3.2-5.1
				c0.1-1.4,1.2-2.5,1.7-3.8c1.2-4-4.2-8.9-1.3-11.9c1.2,1,2.6-1.5,1.8-2.9c-0.8-1.4-2.5-2.2-2.9-3.8c-0.5-2.3,2.2-4.4,2-6.7
				c3.5,0.1,5.9-3,8.7-5.2c0.3-0.2,0.6-0.5,1-0.7c1.5-1,3.2-1.6,4.8-2.6c2.5-1.6,4.3-4.3,5-7.2c0.7,1.4,3,0.8,3.9-0.6
				s1.2-3.1,2.5-4.1c1,0.4,2,0.9,3,1.4c-0.3-1.1,0.3-1.9,1.1-2.6c0.7-0.6,1.7-1,2.5-1.3c1.9-0.6,4.2-1.9,3.9-3.8
				c-2.9,0.1-5.8,1.1-8.2,2.8c-1-3.2,1-6.9,4.2-7.9c0.1-1.1,0.1-2.2,0.2-3.3c3.4,1,6.7,2,10.1,3c2.5,0.8,5.6,1.4,7.6-0.3
				c-2.5-2.7-0.6-7.6,2.9-8.9c3.5-1.3,7.4,0.2,10.3,2.5c0-1.2,0.7-2.4,1.8-2.9c1,0.9,2,1.8,2.9,2.7c0.2-1.3,1.8-2.2,3-1.7
				c1.2,0.5,1.7,2.2,1,3.3c0.2,0.8,1.6,0.5,1.9-0.3s0.2-1.8,0.7-2.5c1.2-1.8,4.3-0.2,5.9-1.7c0.8-0.8,0.8-2.1,1.4-3
				c1.1-1.6,3.4-1.6,5.3-1.1s3.8,1.4,5.7,0.9c1-0.2,1.8-0.8,2.8-1.1c3.7-1,7.7,3.4,11.1,1.7c1-1.6,1.3-3.7,0.9-5.6
				c2.1-0.3,4.1-1.5,5.3-3.3c1,1.5,1.9,3.1,2.9,4.6c2.4,2.4,6.1,3.5,9.4,2.8c1.4-0.3,2.9,0.4,3.8,1.5c0.2,0.3,1.7,3.4,0.9,3.5
				c1-0.1,2,0.7,2.4,1.6c0.5,0.9,0.5,2,0.6,3c0.1,2.1,0.3,4.2,0.4,6.4c0.1,1.1,0.2,2.2,0.8,3
				C1856.8,2197.5,1857.9,2197.9,1859,2198.2z"/>
			<path class="st1" d="M1831.1,2248.7c1.2,1.8-1.8,4.5-3.4,3l-0.8-1c0.2-0.6,0.3-1.2,0.5-1.8
				C1828.3,2247.8,1830.2,2247.4,1831.1,2248.7z"/>
			<path class="st1" d="M1827.4,2248.8c-0.2,0.6-0.3,1.2-0.5,1.8C1826.7,2249.9,1826.9,2249.3,1827.4,2248.8z"/>
		</g>
		<g>
		</g>
	</g>
</g>
<g id="text">
	<text transform="matrix(1 0 0 1 1771.0092 1418.5042)"><tspan x="0" y="0" class="st2 st3">Han</tspan><tspan x="-65.9" y="124.8" class="st2 st3">Empire</tspan></text>
	<text transform="matrix(1 0 0 1 26.3213 684.8058)" class="st2 st4">Ferghana</text>
	<text transform="matrix(1 0 0 1 541.4557 1448.5929)" class="st2 st5">Tibet</text>
	<text transform="matrix(0.9628 0.2702 -0.2702 0.9628 1399.3058 702.1603)" class="st2 st5">X   i   o   n   g   n   u</text>
	<text transform="matrix(1 0 0 1 16.0186 1332.5365)" class="st2 st4">Shendu</text>
	<text transform="matrix(1 0 0 1 842.6364 1919.7747)" class="st2 st5">Danyue</text>
	<text transform="matrix(1 0 0 1 900.0186 1042.6183)" class="st2 st4">Gansu</text>
	<text transform="matrix(1 0 0 1 1110.0186 1180.6183)" class="st2 st4">Hexi</text>
	<text transform="matrix(1 0 0 1 1459.3593 1514.6183)" class="st2 st4">Sichuan</text>
	<text transform="matrix(1 0 0 1 1607.5779 1033.2887)" class="st2 st4">Ordos</text>
	<text transform="matrix(1 0 0 1 2054.6177 1206.9438)" class="st2 st4">Hebei</text>
	<text transform="matrix(1 0 0 1 1340.8357 2240.8896)" class="st2 st5">Jiaozhi</text>
	<text transform="matrix(0.8921 -0.4518 0.4518 0.8921 1569.899 2126.0439)" class="st2 st5">N   a   n   y   u   e</text>
	<text transform="matrix(0.8246 -0.5656 0.5656 0.8246 2108.988 769.0933)" class="st2 st5">Manchuria</text>
</g>
<g id="cities">
	<circle class="st6" cx="1968.3" cy="1982.6" r="4.9"/>
	<text id="Panyu" transform="matrix(1 0 0 1 1959.2029 1976.1061)" class="st7 st8">Panyu</text>
	<circle class="st6" cx="337.1" cy="1042.6" r="5.2"/>
	<text transform="matrix(1 0 0 1 332.1764 1034.4124)" class="st7 st8">Khotan</text>
	<circle class="st6" cx="194.9" cy="855.2" r="5.2"/>
	<text transform="matrix(1 0 0 1 164.8306 881.079)" class="st7 st8">Kashgar</text>
	<circle class="st6" cx="1695" cy="1343.1" r="5.2"/>
	<text transform="matrix(1 0 0 1 1669.0131 1366.1521)" class="st7 st8">Chang’an</text>
	<circle class="st6" cx="1032.7" cy="977" r="5.2"/>
	<text transform="matrix(1 0 0 1 1003.4728 966.4717)" class="st7 st8">Dunhuang</text>
	<circle class="st6" cx="1863.3" cy="1302.5" r="5.2"/>
	<text transform="matrix(1 0 0 1 1819.2596 1325.6991)" class="st7 st8">Luoyang</text>
	<circle class="st6" cx="812" cy="785.8" r="5.2"/>
	<text transform="matrix(1 0 0 1 784.1945 813.1868)" class="st7 st8">Turfan</text>
	<circle class="st6" cx="753.1" cy="722.8" r="5.2"/>
	<text transform="matrix(1 0 0 1 737.5377 713.5201)" class="st7 st8">Ürümqi</text>
	<circle class="st6" cx="790.1" cy="1575" r="5.2"/>
	<text transform="matrix(1 0 0 1 785.3342 1593.8051)" class="st7 st9">Lhasa</text>
</g>
</svg>
