<?xml version="1.0" encoding="utf-8"?>
<!-- Generator: Adobe Illustrator 19.2.1, SVG Export Plug-In . SVG Version: 6.00 Build 0)  -->
<svg version="1.1" xmlns="http://www.w3.org/2000/svg" xmlns:xlink="http://www.w3.org/1999/xlink" x="0px" y="0px"
	 viewBox="0 0 2905.1 2313" style="enable-background:new 0 0 2905.1 2313;" xml:space="preserve">
<style type="text/css">
	.st0{opacity:0.34;}
	.st1{fill:#59BA47;}
	.st2{fill:#F19920;}
	.st3{fill:#E3DCD6;}
	.st4{fill:#ED1C24;}
	.st5{fill:#3E55A6;}
	.st6{fill:#886227;}
	.st7{fill:none;stroke:#000000;stroke-miterlimit:10;}
	.st8{fill:#ED1C24;stroke:#1C75BC;stroke-linecap:round;stroke-miterlimit:10;}
	.st9{font-family:'ArialMT';}
	.st10{font-size:24px;}
	.st11{font-size:18px;}
	.st12{font-family:'MyriadPro-Regular';}
	.st13{font-size:104px;}
	.st14{font-size:36px;}
	.st15{font-size:60px;}
</style>
<g id="bitmap">
	
		<image style="overflow:visible;" width="1968" height="1567" xlink:href="../relief_map.jpg"  transform="matrix(1.4757 0 0 1.4757 1.8006 0)">
	</image>
</g>
<g id="borders">
	<g id="XMLID_1_" class="st0">
		<g>
			<path class="st1" d="M1779.1,2292c-1.5-0.3-0.8-0.6-1.7-1.8c-0.4-0.5-1-0.9-1.7-0.7c-0.9,0.3-1.1,1.6-2,2
				c-0.6,0.3-1.5,0.1-1.8-0.6c-0.3-0.6,0-1.5,0.6-1.8c-0.5-1.7-1.3-3.7-3.1-4c-1-0.2-1.9,0.3-2.9,0.5c-3.1,0.6-6.3-1.1-9.4-0.4
				c-1.2,0.3-2.5,1-3.7,0.5c-1.4-0.5-1.8-2.2-1.7-3.7c-2.7,0-5.3,0.4-7.9-0.1c-2.4-0.4-4.7-1.3-6.8-2.5c-1.7-0.9-2.7-2.5-4.2-3.4
				c-2-1.2-5-1.4-7.2-2c-0.4-0.1-0.9-0.2-1.2-0.6c-0.3-0.4-0.3-1-0.2-1.5c0.7-4.7,2.3-10.1-0.6-13.9c-1.2-1.7-3.3-3.1-3.2-5.1
				c0.1-1.4,1.2-2.5,1.7-3.8c1.2-4-4.2-8.9-1.3-11.9c1.2,1,2.6-1.5,1.8-2.9c-0.8-1.4-2.5-2.2-2.9-3.8c-0.5-2.3,2.2-4.3,2-6.7
				c3.5,0.1,5.9-3,8.7-5.2c0.3-0.2,0.6-0.5,1-0.7c1.5-1,3.2-1.6,4.8-2.6c2.5-1.6,4.3-4.3,5-7.2c0.7,1.4,3,0.8,3.9-0.6
				c0.9-1.3,1.2-3.1,2.5-4.1c1,0.5,2,0.9,3,1.4c-0.3-1,0.3-1.9,1.2-2.6c0.7-0.6,1.6-1,2.5-1.3c1.9-0.6,4.2-1.9,3.9-3.8
				c-2.9,0.1-5.8,1.1-8.2,2.8c-1-3.2,1-6.9,4.2-7.9c0.1-1.1,0.1-2.2,0.2-3.3c3.4,1,6.7,2,10.1,3c2.5,0.8,5.5,1.4,7.6-0.3
				c-2.5-2.7-0.6-7.6,2.9-8.9s7.4,0.2,10.3,2.5c0-1.2,0.7-2.4,1.8-2.9c1,0.9,2,1.8,2.9,2.7c0.2-1.3,1.8-2.2,3-1.7
				c1.2,0.5,1.7,2.2,1,3.3c0.2,0.8,1.6,0.5,2-0.3c0.4-0.8,0.2-1.8,0.7-2.5c1.2-1.7,4.3-0.2,5.9-1.7c0.8-0.8,0.8-2.1,1.4-3
				c1.1-1.6,3.4-1.6,5.3-1.1c1.9,0.5,3.8,1.4,5.7,0.9c1-0.2,1.8-0.8,2.8-1.1c3.7-1,7.7,3.4,11.1,1.7c1-1.6,1.3-3.7,0.9-5.6
				c2.1-0.3,4.1-1.5,5.3-3.3c0.9,1.5,1.9,3.1,2.8,4.6c2.4,2.4,6.1,3.5,9.4,2.8c1.4-0.3,2.9,0.4,3.8,1.5c0.2,0.2,1.7,3.4,0.9,3.5
				c1-0.1,2,0.7,2.4,1.6c0.4,0.9,0.5,2,0.6,3c0.1,2.1,0.3,4.2,0.4,6.4c0.1,1.1,0.2,2.2,0.8,3c0.7,0.9,1.8,1.3,2.9,1.7
				c0,0.6,0,1.1,0,1.7c-3.2-0.3-6.6,1.1-8.7,3.5c-0.8,0.9-1.4,2.1-1.1,3.3c-1.4,0.6-2.9-0.1-3.6-1.4c-0.8-1.5-0.1-2.4,1.2-3.2
				c-0.2-0.9-1.4-1.5-2.2-1.1c-0.1,2.9-0.6,5.8-1.3,8.7c-0.2,0.8-0.5,1.5-1,2.2c-0.6,0.7-1.4,1.1-2.1,1.5c-3.1,2-5.1,5.7-5.1,9.4
				c0,0.9,0.1,1.9-0.2,2.8c-0.8,3.1-4.8,3.6-8,3.6c1.7,0.9,3.6,2.1,4,3.9c0.1,0.8,0,1.6-0.2,2.4c-0.9,4.5-2,8.9-3.3,13.3
				c-0.5,0.5-0.7,1.1-0.5,1.8l0.8,1c0.6,2.7-1.5,5.3-3.9,6.5c-2.4,1.3-5.2,1.6-7.8,2.7c-4.7,2-8.3,6.4-9.2,11.4
				c-0.3,1.5-0.4,3.2-1.2,4.5c-0.8,1.3-2.7,2.2-4,1.3c-0.5-0.4-0.8-1-1.4-1.3c-0.7-0.4-1.5-0.2-2.2-0.1c-2.1,0.4-4.2,0.8-6.3,1.2
				c-1,0.2-2,0.4-2.8,1c-3.1,2.4,0.2,8.4-2.8,11c-0.5-1.4-2-2.4-3.5-2.1c-2.6,0-1,3.1-1.4,3.8
				C1780.8,2292.2,1779.5,2292.1,1779.1,2292z"/>
			<path class="st2" d="M2220.9,1865.2c0.1,1,0.7,2.2,1.4,2.9c1.3,1.5,2.6,4,0.9,5c-2.9-1-4.7-4.6-3.7-7.6L2220.9,1865.2z"/>
			<path class="st3" d="M1827.1,2249.1c-0.2,0.6-0.3,1.2-0.5,1.8C1826.5,2250.2,1826.7,2249.5,1827.1,2249.1z"/>
			<path class="st3" d="M1830.9,2248.9c1.2,1.8-1.8,4.5-3.4,3l-0.8-1c0.2-0.6,0.3-1.2,0.5-1.8
				C1828.1,2248,1830,2247.6,1830.9,2248.9z"/>
			<path class="st1" d="M1782.5,2141.2c0.4,0.1,0.9,0.1,1.3,0.2C1783.5,2141.1,1783,2141,1782.5,2141.2z M2274.3,1804
				c-2.4,0.7-5,1.8-5.7,4.2c-0.8,2.3,2.2,5.3,4.1,3.6c-0.1,1-0.3,2-0.4,3c0.3,1,1.8,0,2.5-0.8c1.4-1.5,4.2-1.7,5.4,0
				c1.2,1.7-0.3,4.6-2.3,4.2c0.5,0.8,1,1.6,1.5,2.3c-2.7,2.3-7.3,2-9.7-0.7c-0.3,2.1-0.6,4.2-0.9,6.2c-0.9,0.7-2.5,0.4-3.1-0.6
				c-0.6-1-0.1-2.5,1-3c-0.9-1.8-4-1.7-4.7,0.2c-1.1-0.7-1.8-1.9-1.8-3.2c-1.3,0.3-2.6,0.6-3.9,0.9c2.1,1.1,4.2,2.6,4.8,4.8
				c0.6,2.3-1.6,5.1-3.8,4.2c-0.3,1.4,1.4,2.4,2.8,2.4s2.8-0.6,4.2-0.3c3,0.6,3.4,5.7,0.6,6.8c-0.6-0.6-1.2-1.1-1.8-1.7
				c-1.2,0-2.2,1.2-2,2.3c1.3-0.4,2.8,0.4,3.4,1.7c-3.9,0.2-8.1,0.5-11.2,2.9c-0.5,0.4-1.1,1-1.7,1.1c-0.1,0-0.3,0-0.4,0
				c-1.8,0-2.6-2.6-2.7-4.5c-0.6,1.5-1.2,3.1-1.8,4.6c-0.4,1.1-0.8,2.4-0.2,3.3c1.1,1.8,3.9,0.4,5.4-1c1.6,0.2,2.5,2.2,2.3,3.8
				c-0.3,1.6-1.4,3-2.4,4.2c-1-0.8-2.6-0.3-3.1,0.8s0.4,2.6,1.6,2.8c0.5,2.5-1.4,6.2-4.2,6.5c-1.8,0.1-1.3-1-2.5-2.2
				c-1-1-2.4-1.6-3.7-1.7c-2.6-0.1-5.1,1.2-7.5,2.4c-2.6,1.2-5.2,2.2-7.9,3.1c0.7-1.5-0.6-3.6-2.3-3.6c-0.9,0.3-1.1,1.1-1,2
				l-1.3,0.4c-1.6,0.7-3.2,1.5-4.8,2.2c0.9,0.6,1.7,1.2,2.6,1.8c-0.1,1-0.2,2-0.3,3c-3.8,1.1-7.8,1.7-11.8,1.7
				c-0.1,2.5,2.9,3.9,5.4,3.6c2.4-0.3,4.7-1.5,7.1-1.7c0.1,1.1,0.2,2.2,0.3,3.4c1.3-1.7,4.3-0.6,4.9,1.5c0.6,2-0.5,4.2-1.9,5.8
				c-1.8,2-4.8,3.4-7.2,2.1c0.6,3.9,0.1,8-1.6,11.7c-1.6,0.4-3.2,0.6-4.8,0.4c0.6,1.7,0.4,3.7-0.6,5.2c-1.8-0.2-3.3-1.4-4.1-3
				c0.1-1,0-2.1-0.7-2.8c0,1,0.2,2,0.7,2.8c-0.1,0.8-0.4,1.7-0.8,2.5c-0.8,1.7-1.9,3.3-2,5.2c-0.1,1.7,0.8,3.3,0.8,5.1
				c0.1,1.7-1.3,3.8-2.9,3.3c1.4-2.4,1.2-5.6-0.5-7.8c-1.7-2.2-4.8-3.2-7.5-2.4c0.9,1.7,2.2,3.3,3.7,4.5c-1.5,1-2.3,2.9-2.1,4.6
				c1.8-0.1,3,2,2.6,3.7c-0.4,1.5-1.5,2.6-2.9,3.4l-2.7-0.5c-2.6-0.2-3.3-4.6-0.9-5.6c-4.1,0.6-7.1,5.2-5.9,9.2
				c-3.3-0.1-6.6,2.1-7.8,5.3c-2.1-0.8-3.8-2.7-4.3-4.9c-2.6-0.2-5.2,0.2-7.7,1.1c0.1,3.3,0.1,6.7-0.7,9.9c-0.9,3.2-2.9,6.3-6,7.6
				c-0.9,0.4-1.9,0.6-2.9,0.8c-2.4,0.3-5-0.2-7.4-0.7c-1,1.4,1.2,3.2,2.9,2.9c1.6-0.2,3-1.2,4.6-1.5c0.1,0,0.2,0,0.3,0
				c3.5-0.2,5.7,3.6,7,6.9c-2.8-2.2-7.7-0.5-8.4,3c-1-1.6-3.3-2.2-4.9-1.4c1-0.2,1.5,1.3,1.1,2.3c-0.4,1-1.3,1.6-1.7,2.6
				c-0.7,2,1,3.9,1.4,5.9c0.6,3.4-3,6.4-6.5,6.6c-3.5,0.2-6.7-1.7-9.7-3.4c-1.9,3.6-3.3,7.5-4.1,11.5c-2.3,0.8-5.3,1.1-7.8,1.7
				c-3.7,0.9-9.1,1.4-9.3,5.3c-3.1-2.4-6-5-8.7-7.8c-3,1-6.3,1-9.3,0.2c1.4,0.7,2.7,1.3,4.1,2c-0.7,1.8-1.3,3.5-2,5.3
				c1.3,1,2.7,2,4,2.9c-1.5,6-12,6.2-13.8,0.3c-1.6-0.2-3.2-0.8-4.4-1.9c0.7-1.9,0.9-4,0.7-6c-1.7,5-8,6.2-12.5,8.9
				c-4.6,2.8-7.8,7.9-8.1,13.3c-3.3,1.1-7.2-0.3-9-3.2c-1.9-2.9-1.5-7,0.8-9.5c-3.4,0.6-6.6,1.8-9.7,3.4c-1.6,0.8-3.4,2.1-3.4,4
				c-0.1,1.8,3,3,3.6,1.3c0.5,1.7-0.9,3.6-2.6,3.6c0.5,1.8,2.3,3.1,4.1,3.1c1.2,2.9-2.4,6-5.5,5.2c-3-0.8-4.9-3.8-5.7-6.8
				c-3.4-1-7.3,0.7-9,3.7c3.6,1.1,7,2.9,10,5.2c0.1,3.2-3.3,5.9-6.4,5.2c0.4,1.8,0.2,3.7-0.5,5.4c-1.5-0.4-3.1-0.9-4.6-1.3l-2.8-0.5
				c0.2-0.3,0.5-0.5,0.7-0.7c-2.1-1.2-4.1,0-5.8,1.9l-2.5-1.3c-2.4-0.7-4.9-1.4-7.3-2.2c0.7-1.4,1.3-2.8,2-4.1
				c-3.8-5.1-7.7-10.1-11.5-15.2c-6.5-3.7-11.6-9.6-14.3-16.5c-2.8,5.1,1.2,12.5,7,13c-2.3,3.2-6.8,4.6-10.5,3.3
				c5.7,2.6,9.5,8.8,9.3,15c-0.2,3.4,0.6,8.7,3.8,7.6c-2.7,1.9-1.6,6-0.5,9.1c1.1,3.1,1.1,7.7-2.1,8.4c-3.1,0.7-5.1-3.2-5.8-6.3
				c-1.9-0.4-3.7,1.2-4.1,3.1l-2.5-0.4c0.1-0.2,0.2-0.5,0.2-0.7c-2.8,0.9-4.4,4.2-3.5,6.9c-2.4-0.1-4.8-0.2-7.2-0.3
				c-0.8-2.4-1.6-4.8-2.3-7.2c-4,0.4-4.9,5.7-4.5,9.7c0.4,4,0.3,9.1-3.4,10.5c-2.4-0.4-4.1-3.3-3.3-5.6c-6.4,1.4-11.7,6.9-12.8,13.4
				c-5,0.1-10.1-2.2-13.3-6c2.2,3.6,0.2,9.1-3.9,10.3c-4.1,1.2-8.8-2.2-8.9-6.5c-4.3,3.4-11.4,2.2-14.3-2.5c-0.4,2.7,1.4,5.5,4,6.2
				c-1.4,1.8-2.8,3.7-4.2,5.5c2.5,1.2,5.4,1.8,8.2,1.8c-3.1,2.3-6.3,4.5-9.4,6.8c-1.9-2.2-4.6-3.7-7.5-4.2c-2,1.9-3.5,4.4-4.3,7.1
				c-5.3-0.5-10.5-1.1-15.2,2c-1.6,1.1-3.1,2.5-5,3.1c-4.8,1.4-10.1-3.3-14.6-1c-3,1.5-4.1,5.6-7.3,6.6c-2.6,0.8-5.5-0.8-7.9,0.4
				c-1.4,0.7-2.3,2.1-3,3.5c-3.7,7-6.3,14.5-7.7,22.3c-5.2-1.9-11.1-1.7-16.2,0.4c-0.2-1.9-1.3-3.7-2.9-4.8
				c-1.3,2.2-2.7,4.6-2.9,7.2c-0.1,2.6,1.4,5.5,4,6c2.3,0.4,4.5-1.2,6.8-1.2c3,0,5.6,3.1,5.1,6.1c-1.1,1.2-2.8,1.9-4.5,1.6
				c-1,1.8-0.1,4.5,1.8,5.3c1.9,0.8,4.4-0.4,5-2.4c1.5,2.8,3,5.7,4.6,8.5c0.6,1.1,1.2,2.4,1.2,3.7c-0.1,4.4-7.1,6.8-6.1,11
				c-4.4,0.5-8.8,1.1-13.2,1.6c-0.8,0.1-1.7,0.3-2,1c0,0.1-0.1,0.2-0.1,0.3c-4.3-1.9-9.6-1.3-13.4,1.4c-1.4-3.6-2.8-7.1-4.1-10.7
				c2.9-0.9,6.2,0.3,7.9,2.8c-1.1-4.5-5.5-8-10.2-8c0.9-1.3,0.1-3.1-0.9-4.3c-1-1.2-2.4-2.3-2.7-3.9c-0.2-1,0.6-2.2,1.4-2.6
				c-0.7-0.1-1.3-0.2-2-0.2c0.2-2.5,0-5-0.5-7.4c-1.5,0.1-2.9,0.2-4.4,0.3c-1.2-9-0.2-18.3,2.7-27c0.5-1.6,1.1-3.1,2.2-4.3
				c1.6-1.8,4.1-2.7,6.5-2.4c0.5-1.8,0.3-3.8-0.4-5.5c-2.9,0.8-5.9,1.5-8.9,1.1c-3-0.4-6-2.3-6.7-5.3c-1.9-1.9-3.8-3.8-5.7-5.8
				c0.7-1.2,0.7-2.8,0-4.1c-2.2-0.4-3.2,3-2.1,5c1.1,2,3.1,3.6,3.4,5.8c0.5,3.2-2.9,5.8-6.1,6.4c-3.2,0.6-6.6,0.2-9.6,1.2
				c-2.9,1-5.3,3.4-8.3,3.9c-3,0.6-6.9-2.4-5.3-5.1c1.4-2.3,6.1-3.7,4.4-5.8c-6.4-1.7-12.9-3.3-19.3-5c-0.2-0.1-0.5-0.1-0.7-0.2
				c-3.1-0.8-6.4-1.7-8.8-3.8c-2.4-2.2-3.6-6-1.8-8.7c-2,0.8-4,1.7-6,2.5c1.8,2.5,3.6,5.1,4.3,8.1c0.7,3,0.2,6.5-2.2,8.5
				c-2.4,2-6.6,1.5-7.9-1.3c-0.7-1.6-0.4-3.4-0.8-5c-0.5-1.6-2.6-3-3.8-1.8c2.5,4.6,0.2,11.2-4.7,13.1c1.2-2.2,1.6-4.8,1.3-7.3
				c-3.7,2-7.4,3.9-11.1,5.9c1.2,0.8,2.4,1.5,3.6,2.2c-2,1.6-4.2,3.2-6.8,3.5c-2.6,0.3-5.5-1.4-5.5-4c-1.8,0-3.6,0.1-5.5,0.1
				c1.4,1.7,0.7,4.5-1.1,5.9c-1.7,1.4-4.1,1.8-6.2,2.1c0.2,1.7-0.2,3.4-1,4.9c-1.9-0.6-3.7-1.3-5.6-2c0,1.8-0.7,3.6-2,4.8
				c-2.1-1.8-6.2-3.2-6.9-0.5c-0.2,0.7,0,1.5,0.2,2.2c0.9,3,1.7,6.1,2.6,9.1c-2.2,3.7-6.7,5.7-10.9,4.9c-0.3,1.4-0.5,2.8-0.8,4.2
				c-2.5-0.5-4.9-1.1-7.4-1.6c1.8-1.1,2.9-3.3,2.7-5.4c-1.9-0.3-4,0.2-5.6,1.3c1.4,0.5,1.1,2.2,0,3.3c-0.6,0.6-1.3,1-2.1,1
				c-1.1,0-2.2-0.4-3.2-0.9c-1-0.5-2.1-1-3.2-1.2c-2.2-0.4-5,2-3.5,3.7c2,0.7,4.4,0.2,6-1.3c0.5,3.3,4.6,4.5,7.5,6.1
				c2.9,1.7,4.5,6.9,1.3,7.7c-3.1-2.5-6.8-4.3-10.6-5.2c-1.6-2.6-4.4-4.4-7.4-4.9c-0.6,3.8,0.9,7.9,3.7,10.5
				c-3.2,1.9-6.3,3.7-9.5,5.6c-1.1,2.1-3,3.7-5.2,4.6c2.5,4.6,4.3,11.4,0.2,14.2c-0.2,0-0.3,0.1-0.4,0.2c0.1-0.1,0.3-0.2,0.4-0.2
				c0.6-0.1,1.4,0.6,1.3,1.4c-0.2,0.9-1.1,1.5-1.9,2c-3.7,2-8.6,3.7-11.6,6.6c-2,1.9-4,4.6-5.7,6.8c-1.1,1.5-2.2,3.2-3.9,3.9
				c-1.7,0.8-4.3-0.1-4.3-2c-2.2,0.5-4.3,1.6-5.9,3.2c0.4,1.1,0.5,2.3,0.3,3.4c-2.9,1.9-1.8,6.4-3.6,9.3c-0.7,1.1-1.9,1.9-2.7,3
				c-3.2,4.2-0.1,10.3-1.4,15.4c-0.8,0.2-1.6,0.3-2.4,0.4c1.6,2.9,2.2,6.3,1.8,9.5c-1.2-0.8-2.8,0.5-3.2,1.9c-0.3,1.4,0.1,2.9,0,4.3
				c-0.2,2.7-2.5,5.1-5.2,5.4c-0.6,0.1-1.2,0.1-1.6,0.5c-0.2,0.3-0.2,0.6-0.3,0.9c-0.3,3.1-0.4,6.5,1.6,8.9c1,1.2,2.5,2,3.9,2.8
				c1.3,0.9,2.7,2,3.1,3.5c0.4,1.3-0.2,3-1.4,3.6c-0.2,0-0.4,0.1-0.6,0.2c0.2,0,0.4-0.1,0.6-0.2c1.4-0.2,2.8,1.1,3.8,2.3
				c1.2,1.5,2.5,3.1,3,4.9c0.3,1.2,0.3,2.5,0.7,3.7c1.4,3.9,6.6,4.9,9,8.3c1.2,1.8,1.6,4.1,3.3,5.5c0.9,0.7,2,1.1,3.1,1.5
				c2.1,0.7,4.1,1.3,6.2,2c13.9,4.5-1,14.6-8.7,15.6c-6.3,0.8-12.8,1.6-19.1,0.4c-15.7-3-26.1-17.5-34.8-30.8
				c-5.1-7.7-10.2-15.4-13.9-23.8c-2.8-6.3-4.9-12.9-6.9-19.6c-3.4-11.6-6.5-23.4-9-35.2c-3.2-15.1-5.4-30.4-6.7-45.8
				c-2.5-29.3-1.8-59.8-13.5-86.8c-5.5-12.7-13.6-24.2-23.6-33.7c-10.2-9.7-22.6-15.6-33.9-23.7c-10.2-7.3-21.8-12.8-33.9-16
				c-7.1-1.9-14.5-3.1-21-6.4c-6.7-3.3-12.1-8.6-17.6-13.7c-10.8-10.1-22.1-20.1-35.6-26.1c-13.5-6.1-28.4-7.9-42.9-10.5
				c-24.8-4.4-49.2-11.2-72.7-20.2c-7.6-2.9-15.4-6.2-20.4-12.6c-10-12.6-4.7-32.3,7.2-43.2s28.2-15.1,43.8-18.9
				c21-5.2,41.9-10.3,62.9-15.5c6.8-1.7,14-3.6,18.7-8.8c5.4-5.9,6.1-14.5,6.7-22.4c2.6-39.1,5.1-78.3,7.7-117.4
				c1-16,2.2-32.3,8.5-47c6.3-14.7,18.9-27.7,34.8-30c8.3-1.2,18.9-0.4,22.8-7.9c2.2-4.2,1.1-9.3,0-13.8c-2.5-10.2-5-20.4-7.5-30.5
				c-2.2-8.8-3.5-17.8-6.8-26.2c-1.9-4.8-4.1-9.6-5-14.7c-1.5-8.7,1-17.4,3.1-26c5.1-20.4,8.7-41.2,10.5-62.2
				c0.7-7.5,1.2-15.1,4.1-22.1c2.5-6.1,5.8-11.4,5.6-16.8c0.8-0.2,1.5-0.2,3-0.7c11.8-3.5,23.9,3.1,35.1,8
				c11.3,4.9,26.1,7.5,34.4-1.5c2.4-2.6,4.1-6.1,7.4-7.6c3.6-1.7,7.8-0.3,11.5,1.1c34.8,12.9,70.1,25.2,106.8,30.8
				c29,4.5,58.5,4.8,87.8,5.1c8.7,0.1,17.3,0.2,25.9,0.3c32.9,0.3,65.9,0.7,98.8,1l0-0.1c15.2,4.2,28.8,12.3,44.1,16.6
				c16.8,4.7,36.7,4.7,49.7-7c6.2-5.6,10.2-13.3,16.6-18.6c8.7-7.3,20.6-9.2,31.9-10.7c15.7-2,31.6-3.6,47-7.3
				c9.5-2.3,19.7-6.1,24.4-14.6c2.1-3.7,2.9-8.2,5.9-11.3c2.4-2.5,5.9-3.6,8.8-5.5c3-1.8,5.6-5.1,4.9-8.5c0,0-1.3-5.7-2.7-11.7
				c-0.7-0.9-1.5-1.7-2.2-2.6c-3-3.4-6.1-6.8-9.1-10.1c-2-2.2-4-4.5-6.4-6.2c-1.2-0.8-2.4-1.5-3.3-2.5c-0.8-0.9-1.4-2.1-1.9-3.2
				c-2.6-5.8-4.9-11.8-6.5-18.1c-0.7-2.6-1.5-5.5-1.6-8.1c-0.1-2,0.1-3.8,0.1-5.7h0.4c62.9-2.8,134.1,15.8,187.1-28l0.7-0.1
				c0.2,0.5,0.6,0.9,1.1,1.2c0.2,0.1,0.4,0.2,0.6,0.4c1,1.5-2,2.4,1.1,3.6c2,0.8,3.9-0.5,5.6-1.7c1.4-1.3,3.8-0.5,5.1,1
				c1.3,1.5,1.9,3.4,3.1,4.9c1.5,1.9,3.7,2.9,5.9,3.8c1.1,0.5,2.4,1.1,3.6,1.3c1.2,0.3,2.5,0.1,3.7,0.6c1.3,0.5,2.3,1.6,3.6,2
				c2.7,0.7,5.6-1.9,8.2-0.9c0.5,0.2,1,0.5,1.4,0.8c1.7,1.2,3.7,3.2,5.6,4c2,0.9,4.2,0.3,6.2,1.5c1.9,1.2,3,3.2,4,5.2
				c2.3,4.6,4.5,9.2,6.4,14c1.6,3.8,2.6,8.5,5.9,11.2c1,0.8,2.1,1.6,2.7,2.8c0.5,1.2,0.1,2.9-1.1,3.3c2.3,3,4.6,5.9,7.4,8.4
				c1.4,1.2,2.9,2.3,3.6,4c0.8,1.7,0.6,3.6,1.3,5.3c0.7,1.7,3.1,2.9,4.3,1.6c0,1.9,0,3.7,0,5.6c2.3-0.9,4.9,2.1,3.8,4.3
				c0.7,0.2,1.3,0.4,2,0.6c-0.6,1.4,0.3,3.3,1.8,3.7c0.6,0.1,1.2,0.1,1.6,0.4c0.5,0.3,0.7,0.9,0.8,1.4c1.2,3.9,2.9,7,1.4,11
				c-0.5,1.4,0.3,2.9,0.6,4.3c0.4,1.4-0.1,3.5-1.6,3.5c1,2.9,4.5,3.9,7.5,4.5c2.2,0.5,4.5,0.9,6.7,1.4c0.6,0.1,1.4,0.2,1.7-0.4
				c0,0.9,0,1.9,0,2.8c3.4-0.4,6.8,0,10,1c2.7,0.9,5.4,2.5,6.6,5.1c1.3,2.9,0.3,6.3-0.7,9.3c1,0.4,1.9,0.7,2.9,1.1
				c0.2,1,0.2,2.1-0.2,3.1c6.5-1.1,13.4,0.6,18.6,4.5c5.2,4,8.8,10.1,9.5,16.6c-5.4,2.8-11.9,0.2-17.4-2.2
				c-5.6-2.4-12.3-4.6-17.3-1.2c5.2,0.6,10.6,1.3,15.4,3.6c-1.2,0.5-0.6,2.3,0.6,2.9c1.1,0.6,2.5,0.5,3.4,1.4
				c0.4,0.4,0.7,0.9,1.2,1.3c0.8,0.7,2,0.7,3.1,0.7c3.6,0,7.1,0.6,10.5,1.6c0.6,0.2,1.3,0.4,1.7,0.9c0.5,0.5,0.7,1.1,0.7,1.7
				c0.1,1.1-0.4,2.4-0.9,3.4c-5.1-0.5-10.1-1.2-15.1-2.2c-4.8-1-9.6-2.2-13.6-5.1c-2.9-2.1-5.3-4.9-7.4-7.9
				c-2.1,0.9-4.4-1.9-6.6-1.3c-1.2,0.3-2,1.6-3.2,2c-1.9,0.6-3.6-1.3-4.8-2.8c-3.1-3.7-7.1-6.5-11.6-8.3c-4.6-1.8-10.1-2.4-14.2,0.4
				c-1.8,1.2-3.1,2.9-4.4,4.6c-1.9,2.5-3.8,4.9-5.8,7.4c3.3-0.6,6.5-1.9,9.2-3.9c1-0.7,2-1.8,1.8-3c1-1.7,3.4-2,5.4-1.9
				c2,0.2,4.1,0.5,5.9-0.4c4.4,0.8,7.6,5.6,6.5,10c0.8,3,4.8,4.6,7.4,2.9c0.5-0.3,1.1-0.8,1.7-0.9c0.6-0.1,1.2,0,1.8,0.2
				c3.6,1.1,7.1,2.2,10.7,3.3c4,3.7,8,7.4,12.7,10.3c3.9,2.4,8.2,4.1,12.7,5.1c0.7,0.2,1.5,0.3,2.1,0.7c0.6,0.3,1,0.8,1.5,1.3
				c5.7,6.2,12.8,12.5,14.7,21.1c0.3,1.2,0.3,2.8-0.6,3.6c-0.7,0.6-1.8,0.6-2.7,0.6c-3.9-0.1-7.9,0-11.6,1.2
				c-3.7,1.2-7.2,3.9-8.5,7.6c-0.4,1-0.6,2.2-1.2,3.1c-1.4,1.9-4.1,2-6.2,3.1c-2.2,1.1-3.7,3.5-3.8,5.9c-2.2,0.3-4.4,0.6-6.6,0.9
				c-1.4,2.1-1.6,4.7-1.7,7.2c-0.1,2.5-0.2,5.1-1.6,7.2c-1.3,2.1-4.3,3.4-6.4,2.1c-0.8-0.5-1.4-1.3-2.2-1.8c-0.9-0.5-2-0.4-3-0.4
				c-5.4,0.2-11.8,0.9-14.7,5.5c-1.3,2.1-3.1,5.3-5.2,4.1c0.9,1.4,1.9,2.9,3.4,3.7c1.5,0.8,3.7,0.5,4.4-1.1c0.4-0.9,0.2-2,0.6-2.9
				c0.9-2.6,4.9-2.4,7-0.7c2.1,1.7,3.4,4.4,5.8,5.9c5,3.3,11.7-0.4,15.9-4.6c4.3-4.2,8.5-9.5,14.5-9.9c4.8-0.3,9.1,2.8,12.9,5.7
				c4.6,3.5,9.2,7,13.8,10.5c0.6-2.1,3.6-1.8,5.8-1.3c4.5,1.2,9.2,1.5,13.8,0.9c0.2,2-1.5,3.8-3.3,4.7c-1.8,1-3.9,1.5-5.4,2.9
				c-1.2,1.1-1.9,2.6-2.6,4.1c-1.3,2.7-2.5,5.4-3.8,8.2c3-0.2,6-1.4,8.3-3.4c1.8-0.1,2.8,2,2.9,3.8c0.1,1.8-0.2,3.7,0.7,5.2
				c0.5,0.8,1.4,1.6,1.2,2.6c-0.1,0.6-0.6,1-1,1.5c-1.7,1.9-1.5,5.2,0.4,7c0.6,0.6,1.4,1,1.9,1.6c1.4,1.9,0,4.4-1.4,6.3
				c0.5,0.2,0.9,0.4,1.4,0.7l-1.6,2.4c0,0,0,0.1,0,0.1c0,1.2-1.4,2.1-2.6,2c-1.3-0.1-2.4-0.9-3.4-1.6c1.9-4,0.9-9.1-2.3-12.1
				c0.7,2.1,0.9,4.5,0.1,6.6c-0.8,2.1-3,3.7-5.2,3.4c-0.5-0.1-1-0.2-1.3-0.6c-0.6-0.6-0.5-1.6-0.9-2.3c-0.8-1.3-3.1-0.8-3.8,0.6
				c-0.7,1.4-0.5,3-0.2,4.6c-1.4,0.2-2.8,0.5-4.1,0.7c2.5,4.4,11.2,2,12.9,6.8c0.3,0.7,0.3,1.5,0.3,2.3c1.6-0.2,3.1,1.2,3.2,2.8
				c-1.8-0.1-3.6-0.1-5.4,0.1c-2.3,0.2-4.5,0.7-6.7,1.3c-0.7,1.7,1.9,2.8,3.6,2.4c1.1-0.3,2.2-0.8,3.3-0.9c0.7-0.1,1.3,0,1.9,0.3
				c0.1,2.8,1.4,5.2,0.3,8c-0.6,1.5-3.9,5.8-6.1,4.9c3.3,1.4,0.9,7.9,4.3,9.3c0.5,0.2,1.1,0.3,1.6,0.5c2.1,1.1,1,4.6,2.5,6.3
				c0.6,0.7,1.6,1.1,2.4,1.7c2.2,1.7,1.4,5.8-1.2,6.7c-1-1.4-2.1-2.8-3.6-3.5s-3.7-0.5-4.5,1c-0.5,2.4-0.9,4.9-1.4,7.3
				c-0.2,1-0.4,2.1-1.3,2.7c-1.9,1.4-4.3-1.1-5.3-3.3c-0.9-1.9-1.7-3.9-2.5-5.8c-1.4-0.1-2.8-0.5-3.9-1.3c-1.2,2.3-3.4,4.2-5.9,4.9
				c1.6,0.1,3.2,0.3,4.7,0.5c1.1,2-0.2,4.6-1.8,6.3c-1.5,1.8-3.3,3.7-3.2,6c0.1,1.4,1,2.8,0.7,4.2c-0.3,1.5-1.6,2.2-3,2.4
				c-1.1,0.2-3.2,0.4-4.2,0.2c-0.8-0.1-1.4-0.6-2.1-0.9c-1.9-0.9-4.2-0.7-5.8,0.6c0.4,0,0.4,0.7,0.5,1.1c0.2,0.6,1.1,0.6,1.7,0.3
				s1.1-0.7,1.8-0.7c0.8,0.1,1.3,0.9,2,1.1c0.8,0.2,1.8-0.3,2.4,0.2c0.2,0.2,0.3,0.4,0.4,0.6c0.3,0.8,0.3,1.8,0.3,2.7
				c0,0.7,0,1.4-0.3,2.1c-0.2,0.4-0.4,0.7-0.7,1c-0.5,0.7-1.1,1.4-1.6,2.1c-0.8,1-1.7,2.2-1.9,3.4c-0.2,0.9,0.3,2-0.3,2.7
				c-0.9,0.9-3.6,0.9-4.6,0.2c0.6,0.5,0.4,1.4,0.4,2.2c0.1,1.2,1,2.1,1.5,3.2c0.5,1.1,0.3,2.8-0.9,2.9c-0.5,0.1-1-0.2-1.5,0.1
				c-0.3,0.1-0.4,0.4-0.5,0.7c-0.6,1.9,0,4.2,1.6,5.4c1-0.9,2.8-0.4,3.2,0.9c0.2,0.6,0.1,1.3-0.1,1.9c-0.3,1.3-0.6,2.7-0.9,4.1
				c-0.1,0.2-0.1,0.5-0.3,0.7c-0.2,0.2-0.5,0.1-0.8,0.1c-1.2-0.2-2.5-0.3-3.7-0.5c0.8,0.8,0.5,2.4-0.5,3c-0.2,0.1-0.3,0.1-0.4,0.2
				c0.2,0,0.3-0.1,0.4-0.2c0.5-0.1,1.1-0.1,1.5,0.1c0.1,2.1,0.2,4.3,0.3,6.4c0,0.5,0,1.1-0.2,1.5c-0.4,0.7-1.3,0.9-2.2,1.1
				c-1.5,0.3-3.2,0.5-4.4-0.4c-0.4-0.3-0.8-0.7-1.2-1.1c-0.8-0.6-1.8-0.9-2.8-1.3c-0.9-0.4-1.7-0.9-2-1.8c-0.2-0.6-0.3-1.4-0.9-1.5
				c-0.4,0-0.7,0.3-0.9,0.5c-0.8,0.9-1.6,1.8-2.3,2.6c-0.6,0.7-1.2,1.4-1.4,2.3c-0.1,0.9,0.6,2,1.5,1.9c0.6-1.3,1.4-2.8,2.8-3.3
				c1-0.2,2.1-0.2,3,0.1c0.9,0.2,1.7,0.7,2.4,1.2c0.7,0.6,1.3,1.3,1.8,2.1c0.9,1.3,1.7,2.9,1.3,4.5c-0.3,1.3-1.6,2.4-3,2.5
				c-1.4,0.1-2.8-0.8-3.3-2.1c-0.1,1.1-0.1,2.2-0.1,3.3c0,0.2,0,0.5,0,0.7c-0.1,2.7-0.2,5.4-0.8,8c-0.1,0.6-0.4,1.3-0.9,1.6
				c-1.3,0.6-3.2-1.2-4,0c-0.2,0.3-0.2,0.8-0.4,1.2c-0.6,1.1-2.3,0.4-3.4,0.9c-1,0.5-1.1,2.3-0.1,2.8c0.9,0.5,2,0,3-0.2
				s2.4,0.2,2.4,1.3c-0.1,0.7-0.8,1.1-1.4,1.1c-0.1,0-0.1,0-0.2,0c-0.6,0-1.1-0.2-1.7-0.3c-1-0.2-2.3-0.1-2.9,0.7
				c-0.7,0.8-0.1,2.4,1,2.3c0.3,0,0.5-0.2,0.8-0.3c0.9-0.4,1.9-0.6,2.8-0.6c0.6,0,1.3,0.1,1.9,0.4c0.2,0.1,0.5,0.2,0.6,0.4
				c0.1,0.2,0.1,0.4,0.1,0.6c-0.1,1.2-0.3,2.6-0.2,3.8c0.1,0.5,0.6,1.5,0.4,1.9c-0.6,1-6.2,2-7.4,2.4c-1.2,1.9-2.3,3.7-3.5,5.6
				c-0.6,0.9-2,0.6-2.8-0.3c-0.3-0.3-0.5-0.7-0.6-1c-0.4-1.5,0.2-3.1-0.1-4.6c-0.4-2.7-3.7-4.6-6.3-3.5c-1,0.4-1.9,1.2-3,1.3
				c-2.9,0.2-5.6-4.5-7.7-2.6c2.6,2,3.8,5.7,2.8,8.8c3.7-2.8,9.6-1.3,12.2,2.4c0.6,0.8,0.9,1.7,1.1,2.7c0.1,0.6,0.2,1.2-0.1,1.7
				c-0.4,0.7-1,0.9-1.7,0.9c-1.4,0-3.2-0.7-4.5,0c-1.4,0.7-1.6,2.7-0.8,4c0.8,1.3,2.2,2.1,3.6,2.8c0.5-2,1.2-4.2,2.8-5.4
				c0.1-0.1,0.2-0.2,0.3-0.2c1.8-1.2,5.1-0.1,4.8,2.1c1.2-0.2,2.4-0.4,3.6-0.7c0.4,1.5-1.2,2.8-2.7,3.4c-1.5,0.6-3.2,1-4,2.3
				c-0.4,0.6-0.5,1.3-1,1.8c-0.6,0.5-1.4,0.6-2.2,0.7c-3.4,0.7-5.8,4.4-5.1,7.8c0.2,0.9,0.6,1.9,0.4,2.8c-0.1,0.6-0.5,1.1-0.6,1.6
				c-0.3,2.8,5,1.9,6.5,4.3c-1.3,4-3.5,7.6-6.2,10.8c2.3,1.2,3.5,4.2,2.6,6.6c-0.9,2.4-3.8,3.9-6.3,3.3c0.7,1.5,1.5,3.1,2.2,4.6
				c0.7-1.4,2.6-1.9,4.1-1.4s2.5,1.8,3.4,3.2c1.5,2.4,2.3,5.2,2.7,8c0.1,0.6,0.1,1.3-0.2,1.8c-0.3,0.5-0.9,0.7-1.5,0.8
				c-1.8,0.6-3.7,1.1-5.4,0.4s-2.6-3.3-1.1-4.4c-2.4,0.2-4.3-1.8-6.6-2.7c-2.2-0.9-5.8,0.6-4.8,2.8c1.3,0.1,2.2,1.7,1.6,2.8
				C2276.4,1807.1,2274.5,1805.8,2274.3,1804z"/>
			<path class="st1" d="M1758,2197.1c0.3,1.9-2,3.2-3.9,3.8c-0.8,0.3-1.8,0.7-2.5,1.3l-1.8-2.3
				C1752.1,2198.1,1755,2197.1,1758,2197.1z"/>
			<path class="st2" d="M2379.6,1568.6c0.2,2-2.4,4-4,2.7c0-1.3-0.1-2.5-0.1-3.8c0,0,0-0.1,0-0.1l1.6-2.4
				C2378.4,1565.8,2379.4,1567.1,2379.6,1568.6z"/>
			<path class="st4" d="M2335.8,912c0.3,2.9,2.8,14.3,0.6,15.7c0,1.6-0.1,3.3-0.1,4.9c-2.2-1.9-6.2,0.2-6,3c-1.5,0.2-3-0.8-3.4-2.2
				c-1.7,0.8-3.7,1.1-5.6,0.7c-1.5,1.2,0.5,3.4,0.6,5.2c0.1,2.9-3.8,3.7-6.6,3.7c-2.9,0-6.7,1.8-5.7,4.5c-1.9,0.2-3.7,0.5-5.5,0.8
				c-1,4.8-5.6,6.8-8.6,10.2c-3.6,4.2-8.7,7-12.1,11.4c-0.9,1.2-1.7,2.6-2.8,3.8c-1.1,1.2-2.5,2.4-2.8,4c-0.4,1.6,1.2,3.6,2.7,2.9
				c1,1.1-1.2,2.1-2.5,2.8c-1.6,0.8-2.2,2.6-3.2,4.1s-2.7,2.9-4.3,2.1c0.4,2.2,0.1,4.8-1.7,6.1c-1.8,1.3-5.1,0.3-5-1.9
				c-2.9-0.7-6.1,1.1-7,3.9c1.6-1.9,5.1,0.7,4.3,3.1c-0.7,2.4-3.8,3.3-6.2,2.7c-0.7,1.4-1.4,2.7-2.2,4c-2.5,0-5,0.1-7.5,0.1
				c-0.1,1.9-2.2,3.5-4.1,3c-0.2,1.5-0.5,3-0.7,4.5c-2.1-0.1-4.1-1.1-5.6-2.6c0.3-1.8-0.3-3.6-0.9-5.4c-0.6-1.8-1-4,0-5.7
				c1-1.7,4-2,4.7-0.2c0.9-1.2,2.3-1.9,3.7-1.9c-0.3-1.8-0.2-3.9,1.2-5.1c1.4-1.2,4.1-0.6,4.2,1.2c2.8-2.1,5.5-4.2,8.2-6.3
				c0.5-0.4,1-0.8,1.2-1.4c0.6-1.6-1.4-2.9-2.9-3.7c-1.5-0.8-2.8-3.2-1.3-4c1.8-1.4,3.5-2.8,5.2-4.1c-0.1-1-0.2-1.9-0.4-2.9
				c0.7-0.6,1.4-1.3,2.1-1.9c-3.3,1.5-6.7,2.9-10.3,2.6c-3.6-0.4-7.1-3.4-6.7-6.9c-2.2-2.1-6.5,2.3-8.7,0.1
				c-1.8-1.7,0.7-4.5,2.9-5.5c2.2-1,5.1-2.8,4.3-5.1c0.8,1.1,2.2,1.8,3.6,1.8c0.2-1,0.1-2.1-0.4-3.1c-3.3-0.4-4.8-4.8-3.5-7.8
				c1.3-3,4.4-4.9,7.2-6.6c2.9-1.6,5.9-3.4,7.4-6.4c0.8-1.6,1-3.5,1.5-5.2c1-3.9,3.2-7.5,6.2-10.1c-0.4-2.7,0.3-5.5,2-7.5
				c0.7-0.9,1.6-1.8,1.4-2.9c-0.1-0.7-0.7-1.2-0.7-1.9c0-1.1,1.4-1.6,2.2-2.3c1.5-1.4,1-4-0.5-5.4c-1.5-1.4-3.5-1.9-5.5-2.3
				c0.1-1.9-0.4-3.8-1.3-5.4c-3.8-1.2-7.6-2.3-11.4-3.5c-0.7-0.2-1.4-0.4-1.9-0.9c-0.5-0.4-0.8-1-1-1.6c-0.8-1.7-1.6-3.4-2.3-5
				c-0.1-0.3-0.2-0.6-0.4-0.9c0.1,0.3,0.3,0.6,0.4,0.9c0.9,2.8-1.6,6.2-4.6,7.1c-3.4,0.9-6.9-0.3-10.2-1.5c-1.5-0.5-3-1.1-4.4-1.6
				c-1.9,0.1-3.7,1.2-4.6,2.8c-1.4-1.4-3.9-0.9-5.3,0.5c-1.4,1.4-2,3.4-2.6,5.2c-1.4,0-2.9,0-4.3,0.1c-0.2,1.3-0.4,2.5-0.7,3.8
				c1.3,0.6,2.6,1.1,3.9,1.7c-1.1,3-4.5,5-7.7,4.5c0,2.8-0.9,5.7-2.5,8.1c-0.2,0.2-4.6,5.2-2.7,5.4c-1.7,0-3.2,1.5-3.2,3.2
				c0,1-0.2,2.6-1.1,2.2c1.2,0.7,1.9,2.2,1.7,3.6c-0.9-0.6-2.2,0.3-2.5,1.3c-0.4,1-0.2,2.1-0.4,3.2c-0.5,2.7-2.8,4.5-5,6.1
				c-8.3,5.9-16.5,11.8-24.8,17.7c-3.8,1-7.4,3.3-9.9,6.3c0.4,1.9,0.4,3.8,0.2,5.6c-2.9-0.1-5.7,2-6.5,4.8c-0.5,1.8-0.2,3.6-0.6,5.4
				c-0.4,1.8-1.7,3.7-3.6,3.5c1.2,0.1,1.8,1.5,1.8,2.6c0,1.2-0.4,2.4-0.2,3.5c0.1,0.8,0.6,1.4,0.8,2.1c0.6,2.2-0.8,4.5-2.1,6.5
				c-3.3,4.8-6.6,9.7-9.9,14.5c-1,0.4-2.1,0.1-2.9-0.6c0.3-1.3,0.5-2.5,0.8-3.8c-1.4-0.9-2.3,1.7-3.5,2.9c-1.8,1.7-4.7-0.1-7.2-0.2
				c-3.1-0.1-5.3,2.7-7.3,5c-2.8,3.4-7.9,6.7-11.2,3.8c0.2-3.6-2.9-6.3-6.5-7.1c-0.3-0.8-1.2-1.1-1.9-1.6c-0.9-0.7-1.7-1.6-2.5-2.4
				c-9.6-9.2-19.2-19.6-22.6-32.7c-1.2-4.7-1.6-9.6-1.9-14.4c-0.5-6.4-0.9-12.8-1.4-19.2c-0.2-2.8-0.4-5.6,0.2-8.4
				c0.8-3.3,2.7-6.2,4.4-9.2c4.5-8,7.2-17.1,7.7-26.3c0.1-1.9,0.1-3.8-0.4-5.7c-0.5-1.7-1.5-3.2-2.4-4.7c-1.1-1.8-2.2-3.5-3-5.5
				c-0.2-0.5-0.2-1-0.3-1.4c-0.1-0.6-0.3-1.1-0.5-1.7c-0.2-0.5-0.3-0.9-0.5-1.3c0,0,0,0,0,0c-4.5-10.8-9.8-27.5-7.6-39.3
				c1-5.6,6.3-11.3,8.9-16.5c3.2-6.6,5.9-13.4,7.9-20.4c3.2-11.4,4.8-23.3,9.1-34.3c6.3-16.2,18.2-29.5,29.8-42.4
				c1.6-1.8,3.3-3.6,5.4-4.8c2.9-1.6,6.4-1.7,9.7-2.1c9.9-1.3,16.5-7.8,25.6-10.6c20.3-6.4,42.4-7.9,62.9-2c7.2,2.1,14,5,20.6,8.5
				c5.7,3,11,7.4,17.2,8.9c7.6,1.9,15.3,4,22.5,7.2c3.2,1.5,6.2,3.2,9.1,5.2c0.7,0.5,7.1,6.3,6.8,6.3c-0.8,0.2-1.5,0.3-2.3,0.5
				c3.1,9.1,6.1,18.2,9.2,27.2c1.3,3.9,2.6,7.8,4.5,11.4c2.1,4.2,4.9,8.1,6.4,12.5c1,3.1,1.4,6.4,2.6,9.4c0.8,1.9,2,3.7,2.7,5.7
				c1.3,3.3,1.3,6.9,1.4,10.4c0.2,10.6,1,21.2,3.4,31.6c3.8,16.3,6.1,32.1,7.7,48.8C2334.7,900.4,2335.2,906.2,2335.8,912z"/>
			<path class="st2" d="M2323,1683.7c-0.1,0.1-0.3,0.2-0.4,0.2C2322.7,1683.8,2322.8,1683.8,2323,1683.7z"/>
			<path class="st4" d="M2317.8,1077.4c1.5-1.5,7,1,4.8,2.9c-0.6,0.5-1.4,0.4-2.1,0.5c-1.9,0.5-2.7,3-2,4.9c0.7,1.8,2.3,3.2,3.9,4.3
				c-1.3,1-2.1,2.5-2.4,4.1c-1.6-0.9-3.9-0.3-4.8,1.3c-0.9,1.6-0.2,3.9,1.3,4.7c0.6,0.4,1.4,0.5,2,0.8c1.9,0.9,2.9,3.2,2.4,5.1
				c-0.5,2-2.6,3.4-4.6,3.2c0.7,1.2,0.8,2.7,0.2,4c-1.9,0.6-3.8,1.2-5.6,1.8c-1.5,0.5-3.2,0.9-4.6,0.3c-1.5-0.6-2.2-2.9-0.8-3.8
				c1.2,0.3,2.6,0.1,3.7-0.5c-2.6,0-5.1-2-5.7-4.6c-0.8,3-2.8,5.6-5.4,7.1c-0.6-2.7-2.9-4.9-5.7-5.3c2,1.8-0.3,5.1-2.7,6.4
				c-2.4,1.3-5.5,2.9-5.2,5.6c-2,0.2-3.9,0.5-5.9,0.7c1.5,1,2.1,3.1,1.5,4.8c-2.6-1.3-5.2-2.5-7.8-3.8c1.4,0.7,1.5,2.7,0.8,4.2
				c-0.7,1.4-1.9,2.5-2.6,3.9c-5.2,1.3-10.1,4.3-13.7,8.3c-1.2,1.7-3.6,1.8-5.5,1.3s-3.8-1.4-5.8-1.5c-0.1,0-0.3,0-0.4,0
				c-1.9,0.2-3.9,1.6-3.7,3.5c0.1,0.7,0.5,1.3,1.1,1.6c1.8,0.6,2.5-2.2,2.3-4.1c0,0,0.1,0,0.1,0c1,0.2,2.1,0.4,3.1,0.6
				c4.3,3.1,5,10.1,1.4,14c-2-0.8-3.5-2.6-3.9-4.7c-2.1,1.1-3.8,2.8-5,4.8c0.7,1.5,1.4,3.1,2.1,4.6c-0.9-0.1-1.9-0.1-2.8-0.2
				c1.2,3.7,2.8,7.3,4.5,10.8c-5.5,2.6-11,5.3-16.5,7.9c-0.4,0.2-0.8,0.4-1.3,0.4c-0.1,0-0.2,0-0.2,0c-1.5-0.2-1.9-2.5-1.4-4
				c0.6-1.6,1.6-3.2,1.1-4.8c-3.5,0.4-7.1,0.8-10.6,1.2c0.1,2.1,0.1,4.1,0.2,6.2c2.5-0.3,4.9,2.1,4.6,4.6c1.9-0.5,3.8-0.6,5.8-0.3
				c0.2,0,0.4,0,0.6,0.1c-1.7,4-5.4,7.1-9.7,8c-1.7,1.4-1.8,4-2.2,6.2c-0.3,2.2-1.5,4.8-3.8,5c0.1,2.4,0,4.7-0.3,7.1
				c-1.5,0.4-3.2-1-3.1-2.6c-0.8,1.6-1.3,3.3-1.3,5.1c-1.3,0.4-3.2-0.8-3.2-2.2c-3.9,0.5-4.8,6-5.1,9.2c-0.3,3.8-1.3,8.5-5,9.3
				c-0.5,0.1-1.1,0.2-1.6,0.5c-1.4,1.1-0.7,3.8-0.4,5.2c0.5,2,0.4,3.8,0.4,5.8c0,0.9-0.2,2.1-1.1,2.5c-0.4,0.2-0.9,0.1-1.3,0.1
				c-2-0.1-4.1,1.3-4.8,3.2c-1,2.7,0.4,5.6,0.4,8.5c0,1.1-0.2,2.2-0.1,3.4c0,0.6,0.2,1.1,0.4,1.7l-0.7,0.1
				c-53,43.8-124.2,25.2-187.1,28h-0.4c0-0.9-0.1-1.7-0.2-2.6c-0.5-2.6,0.1-5.6,0.6-8.2c1.2-6.4,3.8-12.5,7.3-18.1
				c7.3-11.6,20.3-18.4,29.2-28.9c6.7-7.9,11-17.7,17.8-25.4c4.7-5.4,10.4-9.6,15.8-14.3c29.1-25.4,46.6-63.2,79.2-83.9
				c1.4-0.9,1.8-1.2,3.3-1.9h0.1c-0.1,2.9,0.1,5.9,0.8,8.8c0.5,2,1.2,4.1,2.5,5.7c1.3,1.5,3.2,2.4,5,3.1c7.4,2.7,15.6,1.7,23.4,0.3
				c2.8-0.5,5.8-1.1,8.2-2.7c2.4-1.6,4.3-4.4,3.9-7.2c-0.1-0.8-0.4-1.7-0.4-2.5c-0.3-3.8,3.5-6.3,6.6-8.5c3.2-2.3,6.1-5.2,8.5-8.5
				c1-1.3,1.9-2.8,1.8-4.5c-0.1-1.6-1.8-3.2-3.4-2.6c1.6-0.7,3.3-1.3,4.9-2.1c3.4-1.6,6.6-3.5,9.5-5.8c2-1.5,3.9-3.2,6.2-4.2
				c4.9-2,10.5,0,15.4,1.9c1.8,0.7,3.7,1.5,5,2.9c1.3,1.5,1.8,3.8,0.5,5.3c4,0.3,8-0.4,11.6-2c-0.9-1.1,0.4-3,1.7-2.6
				c-0.7,1.8-0.2,3.9,0.9,5.4c0.6,0.8,1.5,1.2,2.1,2c0.5,0.5,0.8,1.8,1.3,2.2c0.5,0.3,1.1,0.3,1.6,0.3c1,0,1.9,0,2.9-0.1
				c0.1,0,0.3,0,0.4-0.1c0.1-0.1,0.1-0.3,0.1-0.4c0-0.5,0-1.1,0-1.6c0-0.2,0-0.4,0.1-0.5c0.1-0.1,0.3-0.2,0.4-0.2
				c2.4-0.6,4.8-0.5,7.2-1c2.9-0.6,5.9-0.4,8.8-0.1c-0.2-0.9,0.2-1.8,0.6-2.7c1.1-2.3,2.5-4.9,5-5.5c1.6-0.4,3.7,1.1,3.8,2.7
				c0.1,0.7-1.6,4.1,0.7,3.9c1.3-0.1,2.5-0.9,3.1-2.1c0.8,0.6,1.6,1.3,2.4,1.9c1.8-0.3,3.6-1,5.3-1.2c1.9-0.2,3.6,0.9,5.5,0.9
				c1.3,0,2.6-0.6,3.3-1.6C2317.5,1077.8,2317.6,1077.6,2317.8,1077.4z"/>
			<path class="st2" d="M2244.6,880c-0.1-0.3-0.3-0.6-0.4-0.9C2244.4,879.4,2244.5,879.7,2244.6,880z"/>
			<path class="st2" d="M2234.8,1012.4c0,0.1,0,0.2-0.1,0.3c-0.2-0.4-0.5-0.9-0.7-1.3C2234.3,1011.8,2234.5,1012.1,2234.8,1012.4z"
				/>
			<path class="st2" d="M2202.1,1900.3c0.7,0.8,0.8,1.8,0.7,2.8C2202.3,1902.3,2202,1901.3,2202.1,1900.3z"/>
			<path class="st2" d="M2191.2,1925.3c-0.2,0.1-0.4,0.2-0.6,0.3c1,1.4,0.6,3.6-0.7,4.7c-1.3,1.1-3.5,1-4.7-0.2
				c0.2-2.2,1.4-4.2,3.3-5.3L2191.2,1925.3z"/>
			<path class="st2" d="M2151.7,1084.9c1.1,1.2,1.9,3.4,1.8,5c-0.2,2.2-2.3,3.5-2.7,5.3c-0.4,1.8-0.6,3.6-0.7,5.5h-0.1
				c-1.6,0.7-1.9,1-3.3,1.9c-32.6,20.7-50.1,58.5-79.2,83.9c-5.4,4.7-11.1,9-15.8,14.3c-6.8,7.8-11.1,17.6-17.8,25.4
				c-8.9,10.5-21.9,17.3-29.2,28.9c-3.5,5.5-6.1,11.6-7.3,18.1c-0.5,2.6-1.1,5.6-0.6,8.2c0.2,0.9,0.2,1.8,0.2,2.6
				c0,1.9-0.1,3.8-0.1,5.7c0.1,2.6,0.9,5.5,1.6,8.1c1.6,6.2,3.9,12.2,6.5,18.1c0.5,1.1,1,2.3,1.9,3.2c0.9,1,2.2,1.7,3.3,2.5
				c2.4,1.7,4.5,3.9,6.4,6.2c3,3.4,6.1,6.7,9.1,10.1c0.8,0.8,1.5,1.7,2.2,2.6c1.4,6,2.7,11.7,2.7,11.7c0.8,3.4-1.9,6.6-4.9,8.5
				c-2.9,1.8-6.4,3-8.8,5.5c-3,3.1-3.9,7.5-5.9,11.3c-4.7,8.6-14.9,12.3-24.4,14.6c-15.4,3.7-31.2,5.3-47,7.3
				c-11.3,1.5-23.2,3.4-31.9,10.7c-6.4,5.3-10.4,13.1-16.6,18.6c-13,11.7-32.9,11.7-49.7,7c-15.4-4.3-28.9-12.4-44.1-16.6
				c-1.4-0.4-2.9-0.8-4.3-1.1c0.7-34.1,1.2-69.7-13.5-100.5c-3.1-6.4-6.8-12.6-9.4-19.2c-6.7-17,0.7-34.2-6-50.2
				c-5.3-12.6-7.4-26.6-5.9-40.3c0.3-2.6,0.7-5.4-0.4-7.8c-0.8-1.9-2.4-3.4-3.6-5c-5.2-7-3.8-17-0.2-24.9c3.6-7.9,9.2-15,12-23.2
				c2.9-8.2,1.5-15.4-5.5-20.6c-4.8-3.6-7.5-9.7-7-15.6c0.4-4,2.1-7.8,3.8-11.5c10.4-22.9,19.6-46.3,27.5-70.1
				c4.3-13.1,7.8-28.9-1-39.5c-7.5-9.1-20.8-10.2-32.7-10.5l0-1.3c6-11,10.9-23.9,22.8-29.6c6.7-3.2,14-4.7,20.9-7.1
				c8-2.8,14.9-6.3,23.2-8.6c1.4-0.4,2.9-0.8,4.3-1.3c10.2-3.7,19-9.7,29.7-12.2c19.6-4.5,39.7-5.4,59.6-8.5
				c27.4-4.2,54-12.4,80.6-20c13.3-3.8,26.7-7.5,40.2-10.4c12.1-2.6,26.7-2.3,38.2-6.6c0.2,0.4,0.3,0.9,0.5,1.3
				c0.2,0.5,0.4,1.1,0.5,1.7c0.1,0.5,0.2,1,0.3,1.4c0.8,2,1.9,3.7,3,5.5c0.9,1.5,1.9,3,2.4,4.7c0.5,1.8,0.5,3.8,0.4,5.7
				c-0.5,9.2-3.2,18.3-7.7,26.3c-1.7,3-3.6,5.9-4.4,9.2c-0.6,2.7-0.4,5.6-0.2,8.4c0.5,6.4,0.9,12.8,1.4,19.2
				c0.4,4.8,0.7,9.7,1.9,14.4c3.4,13.2,13,23.5,22.6,32.7c0.8,0.8,1.6,1.6,2.5,2.4c0.7,0.5,1.6,0.8,1.9,1.6c-1.4-0.3-3-0.4-4.4,0
				c-4.9,1.2-8.6,5.2-11.9,9c0.5,2.4,1.1,4.8,1.6,7.2c-6.1,7-7.5,17.8-3.3,26.1c3.1,6.2,8.8,10.7,14.6,14.5
				c3.6,2.3,7.5,4.6,11.8,5.1c7,0.8,14.8-2.7,20.6,1.2c3.3-4.2,8.5-6.9,13.9-7.1c0.2,1.6-0.1,5.7,1.4,6.6c1.1,0.7,3.6-0.8,4.5,0.2
				c1.5,1.8,3.2,4.3,3.6,6.7c0.4,2.1,1.3,4.1,2.3,6c0.2,0.4,0.3,0.7,0.6,1C2151.3,1084.5,2151.5,1084.7,2151.7,1084.9z"/>
			<path class="st2" d="M2025,2030.5c0.4,3-4.3,4.5-6.3,2.4c-1.8-1.9-1.3-5.1,0.4-7.2l2.8,0.5
				C2021.3,2028.1,2022.9,2030.4,2025,2030.5z"/>
			<path class="st2" d="M2011.6,2025.5l2.5,1.3c-1.1,1.2-2.1,2.7-2.8,4c-2,3.3-8,5.7-8.8,1.8
				C2004.5,2029.3,2007.8,2026.7,2011.6,2025.5z"/>
			<path class="st2" d="M1977.5,2042.6c3-0.1,3.9,5.1,1.2,6.4c-2.7,1.3-6.2-1.3-6.2-4.3c1-1.4,1.8-2.9,2.4-4.5l2.5,0.4
				C1977.2,2041.3,1977.2,2042,1977.5,2042.6z"/>
			<path class="st2" d="M1805.7,2167c-0.3,0.6-1.2,0-1.2-0.6C1804.9,2166.5,1805.3,2166.8,1805.7,2167z"/>
			<path class="st5" d="M1751.1,979c11.8,0.3,25.1,1.4,32.7,10.5c8.8,10.6,5.3,26.4,1,39.5c-7.9,23.9-17.1,47.3-27.5,70.1
				c-1.7,3.7-3.4,7.5-3.8,11.5c-0.5,5.9,2.2,12.1,7,15.6c7,5.2,8.4,12.4,5.5,20.6c-2.9,8.2-8.4,15.3-12,23.2
				c-3.6,7.9-5,17.9,0.2,24.9c1.2,1.7,2.8,3.1,3.6,5c1,2.4,0.6,5.2,0.4,7.8c-1.4,13.6,0.6,27.6,5.9,40.3c6.7,16-0.6,33.2,6,50.2
				c2.6,6.6,6.3,12.8,9.4,19.2c14.7,30.8,14.3,66.4,13.5,100.5c1.5,0.3,2.9,0.7,4.3,1.1l0,0.1c-32.9-0.3-65.9-0.7-98.8-1
				c-8.6-0.1-17.3-0.2-25.9-0.3c-29.4-0.3-58.8-0.6-87.8-5.1c-36.7-5.7-72-18-106.8-30.8c-3.7-1.4-7.9-2.7-11.5-1.1
				c-3.2,1.5-4.9,5-7.4,7.6c-8.3,9.1-23.2,6.4-34.4,1.5c-11.3-4.9-23.3-11.5-35.1-8c-1.6,0.5-2.2,0.4-3,0.7c-0.1-2.8-1-5.6-3.5-8.4
				c-0.8-0.9-1.5-1.8-2.2-2.7c6.2-1.9,12.1-1.3,18.5-2.1c5.8-0.7,11.8-3.4,17-6.2c10.2-5.6,18.9-14,25.5-23.6
				c10.8-15.8,16.6-34.4,21.3-52.9c5-19.7,9-39.7,13.1-59.7c4.9-24.5,9.8-50.2,2.8-74.2c9.2-5.9,14.6-20.5,18.6-29.1
				c6.8-14.8,12.2-30.3,16.1-46.2c2.4-9.6,4.2-19.3,7-28.8c2.2-7.6,5.1-15,8-22.4c10.3-26.5,20.8-54.3,48.1-67.9
				c20.9-10.4,47.5-6.6,69.8-4.7c1.9,0.2,4,0.4,5.6,1.4c1.4,0.9,2.3,2.4,3.4,3.6c4.7,5.5,12.3,7.4,19.5,8.4c7.1,1,14.2,1.5,21.3,1.4
				c3.9-0.1,8.5,0.1,10.6,3.3c5.3-6,14.7-6.6,22.3-4.3c7.7,2.3,14.5,6.9,21.9,9.8L1751.1,979z"/>
			<path class="st2" d="M1783.9,2141.4c-0.4-0.1-0.9-0.1-1.3-0.2C1783,2141,1783.5,2141.1,1783.9,2141.4z"/>
			<path class="st2" d="M1598,2172c-0.1,0.1-0.3,0.2-0.4,0.2C1597.7,2172.1,1597.8,2172.1,1598,2172z"/>
			<path class="st2" d="M1554.8,2266.8c-0.2,0.1-0.4,0.1-0.6,0.2C1554.4,2266.9,1554.6,2266.8,1554.8,2266.8z"/>
			<path class="st6" d="M1478.9,1153c7.1,23.9,2.2,49.7-2.8,74.2c-4,20-8,40-13.1,59.7c-4.7,18.5-10.5,37.2-21.3,52.9
				c-6.6,9.6-15.2,18-25.5,23.6c-5.1,2.8-11.1,5.5-17,6.2c-6.4,0.8-12.3,0.2-18.5,2.1c-5.9-7.7-10.6-16.9-15.1-25.3
				c-10.1-18.9-17.8-39-22.9-59.8c-2.6-10.4-4.5-21-8.9-30.8c-2.2-4.9-5-9.6-6.4-14.8c-1.2-4.8-1.2-9.9-1.1-14.9
				c0.3-21,0.6-42.1,1-63.1c0.2-10.8,0.3-25-7.7-33.5c-8.4-8.9-20.5-13.9-28.8-23.5c-12.9-15-31.6-14.2-48.1-23.8
				c-6.3-3.7-11.9-8.3-18.2-11.9c-17.5-10.2-38.5-12.4-58.7-14.4c-30.5-3.1-61.1-6.6-90.3-15.5c-19.5-5.9-44.8-16.3-53.1-36.9
				c-2-5.1-2-10.7-1.8-16.1c0.6-15.2,2.7-30.7,8.9-44.6c6.2-14,16.8-26.4,30.8-32.4c16.3-6.9,30.2-8,46.1,1.6
				c10.2,6.1,18.7,14.7,27.6,22.5c19.3,16.9,41.2,30.9,64.6,41.4c20.9,9.4,36.8,24.5,61.5,23.8c2.2,0,4.6-0.3,6.3-1.6
				c2.1-1.6,2.8-4.5,3.3-7.1c4.5-23.9-0.3-47,1.6-70.8c0.8-10.3,5.7-21.6,8.2-31.7c0.4-1.8,0.9-3.6,2.1-5c1.8-2,4.8-2.5,7.5-2.8
				c4.6-0.5,9.3-0.9,14-1.2c4.6-0.3,9.4-0.5,13.5,1.4c5.6,2.5,9.1,8.4,11,14.2c4.3,13.2,2.5,27.8-2.3,40.8
				c-4.8,13-12.5,24.8-20.1,36.5c-6.1,9.4-12.3,19-16,29.6c-2.9,8.3-6.6,23.6-0.8,31.5c5.8,8,19.3,15.2,27.1,21.6
				c9.8,8,20.6,16.5,33.3,16.8c12.5,0.3,23.5-7.3,34.5-13.2c13.5-7.2,28.2-12.2,43.2-14.6c11-1.8,24.4-1.1,30.5,8.2
				c7.2,11.1-1.2,25.8-10.7,35.1c-9.5,9.2-21.3,18.8-21.6,32.1c-0.4,15.4,14.9,26.1,29,32.2c5.7,2.5,11.8,4.7,17.9,4
				C1474.4,1155.3,1476.7,1154.4,1478.9,1153z"/>
		</g>
		<g>
			<path class="st7" d="M1554.8,2266.8c-0.2,0.1-0.4,0.1-0.6,0.2C1554.4,2266.9,1554.6,2266.8,1554.8,2266.8z"/>
			<path class="st7" d="M1598,2172c0.6-0.1,1.4,0.6,1.3,1.4c-0.2,0.9-1.1,1.5-1.9,2c-3.7,2-8.6,3.7-11.6,6.6c-2,1.9-4,4.6-5.7,6.8
				c-1.1,1.5-2.2,3.2-3.9,3.9c-1.7,0.8-4.3-0.1-4.3-2c-2.2,0.5-4.3,1.6-5.9,3.2c0.4,1.1,0.5,2.3,0.3,3.4c-2.9,1.9-1.8,6.4-3.6,9.3
				c-0.7,1.1-1.9,1.9-2.7,3c-3.2,4.2-0.1,10.3-1.4,15.4c-0.8,0.2-1.6,0.3-2.4,0.4c1.6,2.9,2.2,6.3,1.8,9.5c-1.2-0.8-2.8,0.5-3.2,1.9
				c-0.3,1.4,0.1,2.9,0,4.3c-0.2,2.7-2.5,5.1-5.2,5.4c-0.6,0.1-1.2,0.1-1.6,0.5c-0.2,0.3-0.2,0.6-0.3,0.9c-0.3,3.1-0.4,6.5,1.6,8.9
				c1,1.2,2.5,2,3.9,2.8c1.3,0.9,2.7,2,3.1,3.5c0.4,1.3-0.2,3-1.4,3.6"/>
			<path class="st7" d="M1598,2172c-0.1,0.1-0.3,0.2-0.4,0.2C1597.7,2172.1,1597.8,2172.1,1598,2172z"/>
			<path class="st7" d="M1782.5,2141.2c-0.7-0.1-1.3-0.2-2-0.2c0.2-2.5,0-5-0.5-7.4c-1.5,0.1-2.9,0.2-4.4,0.3
				c-1.2-9-0.2-18.3,2.7-27c0.5-1.6,1.1-3.1,2.2-4.3c1.6-1.8,4.1-2.7,6.5-2.4c0.5-1.8,0.3-3.8-0.4-5.5c-2.9,0.8-5.9,1.5-8.9,1.1
				c-3-0.4-6-2.3-6.7-5.3c-1.9-1.9-3.8-3.8-5.7-5.8c0.7-1.2,0.7-2.8,0-4.1c-2.2-0.4-3.2,3-2.1,5c1.1,2,3.1,3.6,3.4,5.8
				c0.5,3.2-2.9,5.8-6.1,6.4c-3.2,0.6-6.6,0.2-9.6,1.2c-2.9,1-5.3,3.4-8.3,3.9c-3,0.6-6.9-2.4-5.3-5.1c1.4-2.3,6.1-3.7,4.4-5.8
				c-6.4-1.7-12.9-3.3-19.3-5c-0.2-0.1-0.5-0.1-0.7-0.2c-3.1-0.8-6.4-1.7-8.8-3.8c-2.4-2.2-3.6-6-1.8-8.7c-2,0.8-4,1.7-6,2.5
				c1.8,2.5,3.6,5.1,4.3,8.1c0.7,3,0.2,6.5-2.2,8.5c-2.4,2-6.6,1.5-7.9-1.3c-0.7-1.6-0.4-3.4-0.8-5c-0.5-1.6-2.6-3-3.8-1.8
				c2.5,4.6,0.2,11.2-4.7,13.1c1.2-2.2,1.6-4.8,1.3-7.3c-3.7,2-7.4,3.9-11.1,5.9c1.2,0.8,2.4,1.5,3.6,2.2c-2,1.6-4.2,3.2-6.8,3.5
				c-2.6,0.3-5.5-1.4-5.5-4c-1.8,0-3.6,0.1-5.5,0.1c1.4,1.7,0.7,4.5-1.1,5.9c-1.7,1.4-4.1,1.8-6.2,2.1c0.2,1.7-0.2,3.4-1,4.9
				c-1.9-0.6-3.7-1.3-5.6-2c0,1.8-0.7,3.6-2,4.8c-2.1-1.8-6.2-3.2-6.9-0.5c-0.2,0.7,0,1.5,0.2,2.2c0.9,3,1.7,6.1,2.6,9.1
				c-2.2,3.7-6.7,5.7-10.9,4.9c-0.3,1.4-0.5,2.8-0.8,4.2c-2.5-0.5-4.9-1.1-7.4-1.6c1.8-1.1,2.9-3.3,2.7-5.4c-1.9-0.3-4,0.2-5.6,1.3
				c1.4,0.5,1.1,2.2,0,3.3c-0.6,0.6-1.3,1-2.1,1c-1.1,0-2.2-0.4-3.2-0.9c-1-0.5-2.1-1-3.2-1.2c-2.2-0.4-5,2-3.5,3.7
				c2,0.7,4.4,0.2,6-1.3c0.5,3.3,4.6,4.5,7.5,6.1c2.9,1.7,4.5,6.9,1.3,7.7c-3.1-2.5-6.8-4.3-10.6-5.2c-1.6-2.6-4.4-4.4-7.4-4.9
				c-0.6,3.8,0.9,7.9,3.7,10.5c-3.2,1.9-6.3,3.7-9.5,5.6c-1.1,2.1-3,3.7-5.2,4.6c2.5,4.6,4.3,11.4,0.2,14.2"/>
			<path class="st7" d="M1782.5,2141.2c0.4-0.2,0.9-0.2,1.3,0.2C1783.4,2141.3,1783,2141.3,1782.5,2141.2z"/>
			<line class="st7" x1="1782.5" y1="2141.2" x2="1782.5" y2="2141.2"/>
			<path class="st7" d="M1804.4,2166.4c-4.3-1.9-9.6-1.3-13.4,1.4c-1.4-3.6-2.8-7.1-4.1-10.7c2.9-0.9,6.2,0.3,7.9,2.8
				c-1.1-4.5-5.5-8-10.2-8c0.9-1.3,0.1-3.1-0.9-4.3c-1-1.2-2.4-2.3-2.7-3.9c-0.2-1,0.6-2.2,1.4-2.6"/>
			<path class="st7" d="M1804.4,2166.4c0,0.6,0.9,1.2,1.2,0.6C1805.3,2166.8,1804.9,2166.5,1804.4,2166.4z"/>
			<path class="st7" d="M2202.8,1903.2c-0.1,0.8-0.4,1.7-0.8,2.5c-0.8,1.7-1.9,3.3-2,5.2c-0.1,1.7,0.8,3.3,0.8,5.1
				c0.1,1.7-1.3,3.8-2.9,3.3c1.4-2.4,1.2-5.6-0.5-7.8c-1.7-2.2-4.8-3.2-7.5-2.4c0.9,1.7,2.2,3.3,3.7,4.5c-1.5,1-2.3,2.9-2.1,4.6
				c1.8-0.1,3,2,2.6,3.7c-0.4,1.5-1.5,2.6-2.9,3.4c-0.2,0.1-0.4,0.2-0.6,0.3c1,1.4,0.6,3.6-0.7,4.7c-1.3,1.1-3.5,1-4.7-0.2
				c0.2-2.2,1.4-4.2,3.3-5.3c-2.6-0.2-3.3-4.6-0.9-5.6c-4.1,0.6-7.1,5.2-5.9,9.2c-3.3-0.1-6.6,2.1-7.8,5.3c-2.1-0.8-3.8-2.7-4.3-4.9
				c-2.6-0.2-5.2,0.2-7.7,1.1c0.1,3.3,0.1,6.7-0.7,9.9c-0.9,3.2-2.9,6.3-6,7.6c-0.9,0.4-1.9,0.6-2.9,0.8c-2.4,0.3-5-0.2-7.4-0.7
				c-1,1.4,1.2,3.2,2.9,2.9c1.6-0.2,3-1.2,4.6-1.5c0.1,0,0.2,0,0.3,0c3.5-0.2,5.7,3.6,7,6.9c-2.8-2.2-7.7-0.5-8.4,3
				c-1-1.6-3.3-2.2-4.9-1.4c1-0.2,1.5,1.3,1.1,2.3c-0.4,1-1.3,1.6-1.7,2.6c-0.7,2,1,3.9,1.4,5.9c0.6,3.4-3,6.4-6.5,6.6
				c-3.5,0.2-6.7-1.7-9.7-3.4c-1.9,3.6-3.3,7.5-4.1,11.5c-2.3,0.8-5.3,1.1-7.8,1.7c-3.7,0.9-9.1,1.4-9.3,5.3c-3.1-2.4-6-5-8.7-7.8
				c-3,1-6.3,1-9.3,0.2c1.4,0.7,2.7,1.3,4.1,2c-0.7,1.8-1.3,3.5-2,5.3c1.3,1,2.7,2,4,2.9c-1.5,6-12,6.2-13.8,0.3
				c-1.6-0.2-3.2-0.8-4.4-1.9c0.7-1.9,0.9-4,0.7-6c-1.7,5-8,6.2-12.5,8.9c-4.6,2.8-7.8,7.9-8.1,13.3c-3.3,1.1-7.2-0.3-9-3.2
				c-1.9-2.9-1.5-7,0.8-9.5c-3.4,0.6-6.6,1.8-9.7,3.4c-1.6,0.8-3.4,2.1-3.4,4c-0.1,1.8,3,3,3.6,1.3c0.5,1.7-0.9,3.6-2.6,3.6
				c0.5,1.8,2.3,3.1,4.1,3.1c1.2,2.9-2.4,6-5.5,5.2c-3-0.8-4.9-3.8-5.7-6.8c-3.4-1-7.3,0.7-9,3.7c3.6,1.1,7,2.9,10,5.2
				c0.1,3.2-3.3,5.9-6.4,5.2c0.4,1.8,0.2,3.7-0.5,5.4c-1.5-0.4-3.1-0.9-4.6-1.3c-0.6,2,1,4.3,3.1,4.3c0.4,3-4.3,4.5-6.3,2.4
				c-1.8-1.9-1.3-5.1,0.4-7.2c0.2-0.3,0.5-0.5,0.7-0.7c-2.1-1.2-4.1,0-5.8,1.9c-1.1,1.2-2.1,2.7-2.8,4c-2,3.3-8,5.7-8.8,1.8
				c2-3.4,5.4-6,9.1-7.2c-2.4-0.7-4.9-1.4-7.3-2.2c0.7-1.4,1.3-2.8,2-4.1c-3.8-5.1-7.7-10.1-11.5-15.2c-6.5-3.7-11.6-9.6-14.3-16.5
				c-2.8,5.1,1.2,12.5,7,13c-2.3,3.2-6.8,4.6-10.5,3.3c5.7,2.6,9.5,8.8,9.3,15c-0.2,3.4,0.6,8.7,3.8,7.6c-2.7,1.9-1.6,6-0.5,9.1
				c1.1,3.1,1.1,7.7-2.1,8.4c-3.1,0.7-5.1-3.2-5.8-6.3c-1.9-0.4-3.7,1.2-4.1,3.1c-0.1,0.7-0.1,1.4,0.2,2c3-0.1,3.9,5.1,1.2,6.4
				c-2.7,1.3-6.2-1.3-6.2-4.3c1-1.4,1.8-2.9,2.4-4.5c0.1-0.2,0.2-0.5,0.2-0.7c-2.8,0.9-4.4,4.2-3.5,6.9c-2.4-0.1-4.8-0.2-7.2-0.3
				c-0.8-2.4-1.6-4.8-2.3-7.2c-4,0.4-4.9,5.7-4.5,9.7c0.4,4,0.3,9.1-3.4,10.5c-2.4-0.4-4.1-3.3-3.3-5.6c-6.4,1.4-11.7,6.9-12.8,13.4
				c-5,0.1-10.1-2.2-13.3-6c2.2,3.6,0.2,9.1-3.9,10.3c-4.1,1.2-8.8-2.2-8.9-6.5c-4.3,3.4-11.4,2.2-14.3-2.5c-0.4,2.7,1.4,5.5,4,6.2
				c-1.4,1.8-2.8,3.7-4.2,5.5c2.5,1.2,5.4,1.8,8.2,1.8c-3.1,2.3-6.3,4.5-9.4,6.8c-1.9-2.2-4.6-3.7-7.5-4.2c-2,1.9-3.5,4.4-4.3,7.1
				c-5.3-0.5-10.5-1.1-15.2,2c-1.6,1.1-3.1,2.5-5,3.1c-4.8,1.4-10.1-3.3-14.6-1c-3,1.5-4.1,5.6-7.3,6.6c-2.6,0.8-5.5-0.8-7.9,0.4
				c-1.4,0.7-2.3,2.1-3,3.5c-3.7,7-6.3,14.5-7.7,22.3c-5.2-1.9-11.1-1.7-16.2,0.4c-0.2-1.9-1.3-3.7-2.9-4.8
				c-1.3,2.2-2.7,4.6-2.9,7.2c-0.1,2.6,1.4,5.5,4,6c2.3,0.4,4.5-1.2,6.8-1.2c3,0,5.6,3.1,5.1,6.1c-1.1,1.2-2.8,1.9-4.5,1.6
				c-1,1.8-0.1,4.5,1.8,5.3c1.9,0.8,4.4-0.4,5-2.4c1.5,2.8,3,5.7,4.6,8.5c0.6,1.1,1.2,2.4,1.2,3.7c-0.1,4.4-7.1,6.8-6.1,11
				c-4.4,0.5-8.8,1.1-13.2,1.6c-0.8,0.1-1.7,0.3-2,1c0,0.1-0.1,0.2-0.1,0.3"/>
			<path class="st7" d="M2202.8,1903.2c-0.5-0.9-0.7-1.8-0.7-2.8C2202.7,1901.1,2202.9,1902.1,2202.8,1903.2z"/>
			<path class="st7" d="M2323,1683.7c0.5-0.1,1.1-0.1,1.5,0.1c0.1,2.1,0.2,4.3,0.3,6.4c0,0.5,0,1.1-0.2,1.5
				c-0.4,0.7-1.3,0.9-2.2,1.1c-1.5,0.3-3.2,0.5-4.4-0.4c-0.4-0.3-0.8-0.7-1.2-1.1c-0.8-0.6-1.8-0.9-2.8-1.3c-0.9-0.4-1.7-0.9-2-1.8
				c-0.2-0.6-0.3-1.4-0.9-1.5c-0.4,0-0.7,0.3-0.9,0.5c-0.8,0.9-1.6,1.8-2.3,2.6c-0.6,0.7-1.2,1.4-1.4,2.3c-0.1,0.9,0.6,2,1.5,1.9
				c0.6-1.3,1.4-2.8,2.8-3.3c1-0.2,2.1-0.2,3,0.1c0.9,0.2,1.7,0.7,2.4,1.2c0.7,0.6,1.3,1.3,1.8,2.1c0.9,1.3,1.7,2.9,1.3,4.5
				c-0.3,1.3-1.6,2.4-3,2.5c-1.4,0.1-2.8-0.8-3.3-2.1c-0.1,1.1-0.1,2.2-0.1,3.3c0,0.2,0,0.5,0,0.7c-0.1,2.7-0.2,5.4-0.8,8
				c-0.1,0.6-0.4,1.3-0.9,1.6c-1.3,0.6-3.2-1.2-4,0c-0.2,0.3-0.2,0.8-0.4,1.2c-0.6,1.1-2.3,0.4-3.4,0.9c-1,0.5-1.1,2.3-0.1,2.8
				c0.9,0.5,2,0,3-0.2s2.4,0.2,2.4,1.3c-0.1,0.7-0.8,1.1-1.4,1.1c-0.1,0-0.1,0-0.2,0c-0.6,0-1.1-0.2-1.7-0.3c-1-0.2-2.3-0.1-2.9,0.7
				c-0.7,0.8-0.1,2.4,1,2.3c0.3,0,0.5-0.2,0.8-0.3c0.9-0.4,1.9-0.6,2.8-0.6c0.6,0,1.3,0.1,1.9,0.4c0.2,0.1,0.5,0.2,0.6,0.4
				c0.1,0.2,0.1,0.4,0.1,0.6c-0.1,1.2-0.3,2.6-0.2,3.8c0.1,0.5,0.6,1.5,0.4,1.9c-0.6,1-6.2,2-7.4,2.4c-1.2,1.9-2.3,3.7-3.5,5.6
				c-0.6,0.9-2,0.6-2.8-0.3c-0.3-0.3-0.5-0.7-0.6-1c-0.4-1.5,0.2-3.1-0.1-4.6c-0.4-2.7-3.7-4.6-6.3-3.5c-1,0.4-1.9,1.2-3,1.3
				c-2.9,0.2-5.6-4.5-7.7-2.6c2.6,2,3.8,5.7,2.8,8.8c3.7-2.8,9.6-1.3,12.2,2.4c0.6,0.8,0.9,1.7,1.1,2.7c0.1,0.6,0.2,1.2-0.1,1.7
				c-0.4,0.7-1,0.9-1.7,0.9c-1.4,0-3.2-0.7-4.5,0c-1.4,0.7-1.6,2.7-0.8,4c0.8,1.3,2.2,2.1,3.6,2.8c0.5-2,1.2-4.2,2.8-5.4
				c0.1-0.1,0.2-0.2,0.3-0.2c1.8-1.2,5.1-0.1,4.8,2.1c1.2-0.2,2.4-0.4,3.6-0.7c0.4,1.5-1.2,2.8-2.7,3.4c-1.5,0.6-3.2,1-4,2.3
				c-0.4,0.6-0.5,1.3-1,1.8c-0.6,0.5-1.4,0.6-2.2,0.7c-3.4,0.7-5.8,4.4-5.1,7.8c0.2,0.9,0.6,1.9,0.4,2.8c-0.1,0.6-0.5,1.1-0.6,1.6
				c-0.3,2.8,5,1.9,6.5,4.3c-1.3,4-3.5,7.6-6.2,10.8c2.3,1.2,3.5,4.2,2.6,6.6c-0.9,2.4-3.8,3.9-6.3,3.3c0.7,1.5,1.5,3.1,2.2,4.6
				c0.7-1.4,2.6-1.9,4.1-1.4s2.5,1.8,3.4,3.2c1.5,2.4,2.3,5.2,2.7,8c0.1,0.6,0.1,1.3-0.2,1.8c-0.3,0.5-0.9,0.7-1.5,0.8
				c-1.8,0.6-3.7,1.1-5.4,0.4s-2.6-3.3-1.1-4.4c-2.4,0.2-4.3-1.8-6.6-2.7c-2.2-0.9-5.8,0.6-4.8,2.8c1.3,0.1,2.2,1.7,1.6,2.8
				c-1.7,0.3-3.6-1-3.9-2.8c-2.4,0.7-5,1.8-5.7,4.2c-0.8,2.3,2.2,5.3,4.1,3.6c-0.1,1-0.3,2-0.4,3c0.3,1,1.8,0,2.5-0.8
				c1.4-1.5,4.2-1.7,5.4,0c1.2,1.7-0.3,4.6-2.3,4.2c0.5,0.8,1,1.6,1.5,2.3c-2.7,2.3-7.3,2-9.7-0.7c-0.3,2.1-0.6,4.2-0.9,6.2
				c-0.9,0.7-2.5,0.4-3.1-0.6c-0.6-1-0.1-2.5,1-3c-0.9-1.8-4-1.7-4.7,0.2c-1.1-0.7-1.8-1.9-1.8-3.2c-1.3,0.3-2.6,0.6-3.9,0.9
				c2.1,1.1,4.2,2.6,4.8,4.8c0.6,2.3-1.6,5.1-3.8,4.2c-0.3,1.4,1.4,2.4,2.8,2.4s2.8-0.6,4.2-0.3c3,0.6,3.4,5.7,0.6,6.8
				c-0.6-0.6-1.2-1.1-1.8-1.7c-1.2,0-2.2,1.2-2,2.3c1.3-0.4,2.8,0.4,3.4,1.7c-3.9,0.2-8.1,0.5-11.2,2.9c-0.5,0.4-1.1,1-1.7,1.1
				c-0.1,0-0.3,0-0.4,0c-1.8,0-2.6-2.6-2.7-4.5c-0.6,1.5-1.2,3.1-1.8,4.6c-0.4,1.1-0.8,2.4-0.2,3.3c1.1,1.8,3.9,0.4,5.4-1
				c1.6,0.2,2.5,2.2,2.3,3.8c-0.3,1.6-1.4,3-2.4,4.2c-1-0.8-2.6-0.3-3.1,0.8s0.4,2.6,1.6,2.8c0.5,2.5-1.4,6.2-4.2,6.5
				c-1.8,0.1-1.3-1-2.5-2.2c-1-1-2.4-1.6-3.7-1.7c-2.6-0.1-5.1,1.2-7.5,2.4c-2.6,1.2-5.2,2.2-7.9,3.1c0.7-1.5-0.6-3.6-2.3-3.6
				c-0.9,0.3-1.1,1.1-1,2c0.1,1,0.7,2.2,1.4,2.9c1.3,1.5,2.6,4,0.9,5c-2.9-1-4.7-4.6-3.7-7.6c-1.6,0.7-3.2,1.5-4.8,2.2
				c0.9,0.6,1.7,1.2,2.6,1.8c-0.1,1-0.2,2-0.3,3c-3.8,1.1-7.8,1.7-11.8,1.7c-0.1,2.5,2.9,3.9,5.4,3.6c2.4-0.3,4.7-1.5,7.1-1.7
				c0.1,1.1,0.2,2.2,0.3,3.4c1.3-1.7,4.3-0.6,4.9,1.5c0.6,2-0.5,4.2-1.9,5.8c-1.8,2-4.8,3.4-7.2,2.1c0.6,3.9,0.1,8-1.6,11.7
				c-1.6,0.4-3.2,0.6-4.8,0.4c0.6,1.7,0.4,3.7-0.6,5.2c-1.8-0.2-3.3-1.4-4.1-3"/>
			<path class="st7" d="M2323,1683.7c-0.1,0.1-0.3,0.2-0.4,0.2C2322.7,1683.8,2322.8,1683.8,2323,1683.7z"/>
			<path class="st7" d="M2325.7,1642.1L2325.7,1642.1c0.4,0,0.4,0.7,0.6,1.1c0.2,0.6,1.1,0.6,1.7,0.3s1.1-0.7,1.8-0.7
				c0.8,0.1,1.3,0.9,2,1.1c0.8,0.2,1.8-0.3,2.4,0.2c0.2,0.2,0.3,0.4,0.4,0.6c0.3,0.8,0.3,1.8,0.3,2.7c0,0.7,0,1.4-0.3,2.1
				c-0.2,0.4-0.4,0.7-0.7,1c-0.5,0.7-1.1,1.4-1.6,2.1c-0.8,1-1.7,2.2-1.9,3.4c-0.2,0.9,0.3,2-0.3,2.7c-0.9,0.9-3.6,0.9-4.6,0.2
				c0.6,0.5,0.4,1.4,0.4,2.2c0.1,1.2,1,2.1,1.5,3.2c0.5,1.1,0.3,2.8-0.9,2.9c-0.5,0.1-1-0.2-1.5,0.1c-0.3,0.1-0.4,0.4-0.5,0.7
				c-0.6,1.9,0,4.2,1.6,5.4c1-0.9,2.8-0.4,3.2,0.9c0.2,0.6,0.1,1.3-0.1,1.9c-0.3,1.3-0.6,2.7-0.9,4.1c-0.1,0.2-0.1,0.5-0.3,0.7
				c-0.2,0.2-0.5,0.1-0.8,0.1c-1.2-0.2-2.5-0.3-3.7-0.5c0.8,0.8,0.5,2.4-0.5,3"/>
			<path class="st7" d="M2375.5,1567.4C2375.5,1567.4,2375.5,1567.4,2375.5,1567.4c0,1.3-1.4,2.2-2.6,2.1c-1.3-0.1-2.4-0.9-3.4-1.6
				c1.9-4,0.9-9.1-2.3-12.1c0.7,2.1,0.9,4.5,0.1,6.6c-0.8,2.1-3,3.7-5.2,3.4c-0.5-0.1-1-0.2-1.3-0.6c-0.6-0.6-0.5-1.6-0.9-2.3
				c-0.8-1.3-3.1-0.8-3.8,0.6c-0.7,1.4-0.5,3-0.2,4.6c-1.4,0.2-2.8,0.5-4.1,0.7c2.5,4.4,11.2,2,12.9,6.8c0.3,0.7,0.3,1.5,0.3,2.3
				c1.6-0.2,3.1,1.2,3.2,2.8c-1.8-0.1-3.6-0.1-5.4,0.1c-2.3,0.2-4.5,0.7-6.7,1.3c-0.7,1.7,1.9,2.8,3.6,2.4c1.1-0.3,2.2-0.8,3.3-0.9
				c0.7-0.1,1.3,0,1.9,0.3c0.1,2.8,1.4,5.2,0.3,8c-0.6,1.5-3.9,5.8-6.1,4.9c3.3,1.4,0.9,7.9,4.3,9.3c0.5,0.2,1.1,0.3,1.6,0.5
				c2.1,1.1,1,4.6,2.5,6.3c0.6,0.7,1.6,1.1,2.4,1.7c2.2,1.7,1.4,5.8-1.2,6.7c-1-1.4-2.1-2.8-3.6-3.5s-3.7-0.5-4.5,1
				c-0.5,2.4-0.9,4.9-1.4,7.3c-0.2,1-0.4,2.1-1.3,2.7c-1.9,1.4-4.3-1.1-5.3-3.3c-0.9-1.9-1.7-3.9-2.5-5.8c-1.4-0.1-2.8-0.5-3.9-1.3
				c-1.2,2.3-3.4,4.2-5.9,4.9c1.6,0.1,3.2,0.3,4.7,0.5c1.1,2-0.2,4.6-1.8,6.3c-1.5,1.8-3.3,3.7-3.2,6c0.1,1.4,1,2.8,0.7,4.2
				c-0.3,1.5-1.6,2.2-3,2.4c-1.1,0.2-3.2,0.4-4.2,0.2c-0.8-0.1-1.4-0.6-2.1-0.9c-1.9-0.9-4.2-0.7-5.8,0.6"/>
			<path class="st7" d="M2199,915.8C2199,915.8,2199,915.8,2199,915.8c-1.7,0-3.3,1.5-3.3,3.2c0,1-0.2,2.6-1.1,2.2
				c1.2,0.7,1.9,2.2,1.7,3.6c-0.9-0.6-2.2,0.3-2.5,1.3c-0.4,1-0.2,2.1-0.4,3.2c-0.5,2.7-2.8,4.5-5,6.1c-8.3,5.9-16.5,11.8-24.8,17.7
				c-3.8,1-7.4,3.3-9.9,6.3c0.4,1.9,0.4,3.8,0.2,5.6c-2.9-0.1-5.7,2-6.5,4.8c-0.5,1.8-0.2,3.6-0.6,5.4c-0.4,1.8-1.7,3.7-3.6,3.5
				c1.2,0.1,1.8,1.5,1.8,2.6c0,1.2-0.4,2.4-0.2,3.5c0.1,0.8,0.6,1.4,0.8,2.1c0.6,2.2-0.8,4.5-2.1,6.5c-3.3,4.8-6.6,9.7-9.9,14.5
				c-1,0.4-2.1,0.1-2.9-0.6c0.3-1.3,0.5-2.5,0.8-3.8c-1.4-0.9-2.3,1.7-3.5,2.9c-1.8,1.7-4.7-0.1-7.2-0.2c-3.1-0.1-5.3,2.7-7.3,5
				c-2.8,3.4-7.9,6.7-11.2,3.8c0.2-3.6-2.9-6.3-6.5-7.1c-1.4-0.3-3-0.4-4.4,0c-4.9,1.2-8.6,5.2-11.9,9c0.5,2.4,1.1,4.8,1.6,7.2
				c-6.1,7-7.5,17.8-3.3,26.1c3.1,6.2,8.8,10.7,14.6,14.5c3.6,2.3,7.5,4.6,11.8,5.1c7,0.8,14.8-2.7,20.6,1.2
				c3.3-4.2,8.5-6.9,13.9-7.1c0.2,1.6-0.1,5.7,1.4,6.6c1.1,0.7,3.6-0.8,4.5,0.2c1.5,1.8,3.2,4.3,3.6,6.7c0.4,2.1,1.3,4.1,2.3,6
				c0.2,0.4,0.3,0.7,0.6,1c0.2,0.2,0.3,0.4,0.5,0.6c1.1,1.2,1.9,3.4,1.8,5c-0.2,2.2-2.3,3.5-2.7,5.3c-0.4,1.8-0.6,3.6-0.7,5.5
				c-0.1,2.9,0.1,5.9,0.8,8.8c0.5,2,1.2,4.1,2.5,5.7c1.3,1.5,3.2,2.4,5,3.1c7.4,2.7,15.6,1.7,23.4,0.3c2.8-0.5,5.8-1.1,8.2-2.7
				c2.4-1.6,4.3-4.4,3.9-7.2c-0.1-0.8-0.4-1.7-0.4-2.5c-0.3-3.8,3.5-6.3,6.6-8.5c3.2-2.3,6.1-5.2,8.5-8.5c1-1.3,1.9-2.8,1.8-4.5
				c-0.1-1.6-1.8-3.2-3.4-2.6c1.6-0.7,3.3-1.3,4.9-2.1c3.4-1.6,6.6-3.5,9.5-5.8c2-1.5,3.9-3.2,6.2-4.2c4.9-2,10.5,0,15.4,1.9
				c1.8,0.7,3.7,1.5,5,2.9c1.3,1.5,1.8,3.8,0.5,5.3c4,0.3,8-0.4,11.6-2c-0.9-1.1,0.4-3,1.7-2.6c-0.7,1.8-0.2,3.9,0.9,5.4
				c0.6,0.8,1.5,1.2,2.1,2c0.5,0.5,0.8,1.8,1.3,2.2c0.5,0.3,1.1,0.3,1.6,0.3c1,0,1.9,0,2.9-0.1c0.1,0,0.3,0,0.4-0.1
				c0.1-0.1,0.1-0.3,0.1-0.4c0-0.5,0-1.1,0-1.6c0-0.2,0-0.4,0.1-0.5c0.1-0.1,0.3-0.2,0.4-0.2c2.4-0.6,4.8-0.5,7.2-1
				c2.9-0.6,5.9-0.4,8.8-0.1c-0.2-0.9,0.2-1.8,0.6-2.7c1.1-2.3,2.5-4.9,5-5.5c1.6-0.4,3.7,1.1,3.8,2.7c0.1,0.7-1.6,4.1,0.7,3.9
				c1.3-0.1,2.5-0.9,3.1-2.1c0.8,0.6,1.6,1.3,2.4,1.9c1.8-0.3,3.6-1,5.3-1.2c1.9-0.2,3.6,0.9,5.5,0.9c1.3,0,2.6-0.6,3.3-1.6
				c0.1-0.2,0.2-0.4,0.4-0.6c1.5-1.5,7,1,4.8,2.9c-0.6,0.5-1.4,0.4-2.1,0.5c-1.9,0.5-2.7,3-2,4.9c0.7,1.8,2.3,3.2,3.9,4.3
				c-1.3,1-2.1,2.5-2.4,4.1c-1.6-0.9-3.9-0.3-4.8,1.3c-0.9,1.6-0.2,3.9,1.3,4.7c0.6,0.4,1.4,0.5,2,0.8c1.9,0.9,2.9,3.2,2.4,5.1
				c-0.5,2-2.6,3.4-4.6,3.2c0.7,1.2,0.8,2.7,0.2,4c-1.9,0.6-3.8,1.2-5.6,1.8c-1.5,0.5-3.2,0.9-4.6,0.3c-1.5-0.6-2.2-2.9-0.8-3.8
				c1.2,0.3,2.6,0.1,3.7-0.5c-2.6,0-5.1-2-5.7-4.6c-0.8,3-2.8,5.6-5.4,7.1c-0.6-2.7-2.9-4.9-5.7-5.3c2,1.8-0.3,5.1-2.7,6.4
				c-2.4,1.3-5.5,2.9-5.2,5.6c-2,0.2-3.9,0.5-5.9,0.7c1.5,1,2.1,3.1,1.5,4.8c-2.6-1.3-5.2-2.5-7.8-3.8c1.4,0.7,1.5,2.7,0.8,4.2
				c-0.7,1.4-1.9,2.5-2.6,3.9c-5.2,1.3-10.1,4.3-13.7,8.3c-1.2,1.7-3.6,1.8-5.5,1.3s-3.8-1.4-5.8-1.5c-0.1,0-0.3,0-0.4,0
				c-1.9,0.2-3.9,1.6-3.7,3.5c0.1,0.7,0.5,1.3,1.1,1.6c1.8,0.6,2.5-2.2,2.3-4.1c0,0,0.1,0,0.1,0c1,0.2,2.1,0.4,3.1,0.6
				c4.3,3.1,5,10.1,1.4,14c-2-0.8-3.5-2.6-3.9-4.7c-2.1,1.1-3.8,2.8-5,4.8c0.7,1.5,1.4,3.1,2.1,4.6c-0.9-0.1-1.9-0.1-2.8-0.2
				c1.2,3.7,2.8,7.3,4.5,10.8c-5.5,2.6-11,5.3-16.5,7.9c-0.4,0.2-0.8,0.4-1.3,0.4c-0.1,0-0.2,0-0.2,0c-1.5-0.2-1.9-2.5-1.4-4
				c0.6-1.6,1.6-3.2,1.1-4.8c-3.5,0.4-7.1,0.8-10.6,1.2c0.1,2.1,0.1,4.1,0.2,6.2c2.5-0.3,4.9,2.1,4.6,4.6c1.9-0.5,3.8-0.6,5.8-0.3
				c0.2,0,0.4,0,0.6,0.1c-1.7,4-5.4,7.1-9.7,8c-1.7,1.4-1.8,4-2.2,6.2c-0.3,2.2-1.5,4.8-3.8,5c0.1,2.4,0,4.7-0.3,7.1
				c-1.5,0.4-3.2-1-3.1-2.6c-0.8,1.6-1.3,3.3-1.3,5.1c-1.3,0.4-3.2-0.8-3.2-2.2c-3.9,0.5-4.8,6-5.1,9.2c-0.3,3.8-1.3,8.5-5,9.3
				c-0.5,0.1-1.1,0.2-1.6,0.5c-1.4,1.1-0.7,3.8-0.4,5.2c0.5,2,0.4,3.8,0.4,5.8c0,0.9-0.2,2.1-1.1,2.5c-0.4,0.2-0.9,0.1-1.3,0.1
				c-2-0.1-4.1,1.3-4.8,3.2c-1,2.7,0.4,5.6,0.4,8.5c0,1.1-0.2,2.2-0.1,3.4c0,0.6,0.2,1.1,0.4,1.7c0.2,0.5,0.6,0.9,1.1,1.2
				c0.2,0.1,0.4,0.2,0.6,0.4c1,1.5-2,2.4,1.1,3.6c2,0.8,3.9-0.5,5.6-1.7c1.4-1.3,3.8-0.5,5.1,1c1.3,1.5,1.9,3.4,3.1,4.9
				c1.5,1.9,3.7,2.9,5.9,3.8c1.1,0.5,2.4,1.1,3.6,1.3c1.2,0.3,2.5,0.1,3.7,0.6c1.3,0.5,2.3,1.6,3.6,2c2.7,0.7,5.6-1.9,8.2-0.9
				c0.5,0.2,1,0.5,1.4,0.8c1.7,1.2,3.7,3.2,5.6,4c2,0.9,4.2,0.3,6.2,1.5c1.9,1.2,3,3.2,4,5.2c2.3,4.6,4.5,9.2,6.4,14
				c1.6,3.8,2.6,8.5,5.9,11.2c1,0.8,2.1,1.6,2.7,2.8c0.5,1.2,0.1,2.9-1.1,3.3c2.3,3,4.6,5.9,7.4,8.4c1.4,1.2,2.9,2.3,3.6,4
				c0.8,1.7,0.6,3.6,1.3,5.3c0.7,1.7,3.1,2.9,4.3,1.6c0,1.9,0,3.7,0,5.6c2.3-0.9,4.9,2.1,3.8,4.3c0.7,0.2,1.3,0.4,2,0.6
				c-0.6,1.4,0.3,3.3,1.8,3.7c0.6,0.1,1.2,0.1,1.6,0.4c0.5,0.3,0.7,0.9,0.8,1.4c1.2,3.9,2.9,7,1.4,11c-0.5,1.4,0.3,2.9,0.6,4.3
				c0.4,1.4-0.1,3.5-1.6,3.5c1,2.9,4.5,3.9,7.5,4.5c2.2,0.5,4.5,0.9,6.7,1.4c0.6,0.1,1.4,0.2,1.7-0.4c0,0.9,0,1.9,0,2.8
				c3.4-0.4,6.8,0,10,1c2.7,0.9,5.4,2.5,6.6,5.1c1.3,2.9,0.3,6.3-0.7,9.3c1,0.4,1.9,0.7,2.9,1.1c0.2,1,0.2,2.1-0.2,3.1
				c6.5-1.1,13.4,0.6,18.6,4.5c5.2,4,8.8,10.1,9.5,16.6c-5.4,2.8-11.9,0.2-17.4-2.2c-5.6-2.4-12.3-4.6-17.3-1.2
				c5.2,0.6,10.6,1.3,15.4,3.6c-1.2,0.5-0.6,2.3,0.6,2.9c1.1,0.6,2.5,0.5,3.4,1.4c0.4,0.4,0.7,0.9,1.2,1.3c0.8,0.7,2,0.7,3.1,0.7
				c3.6,0,7.1,0.6,10.5,1.6c0.6,0.2,1.3,0.4,1.7,0.9c0.5,0.5,0.7,1.1,0.7,1.7c0.1,1.1-0.4,2.4-0.9,3.4c-5.1-0.5-10.1-1.2-15.1-2.2
				c-4.8-1-9.6-2.2-13.6-5.1c-2.9-2.1-5.3-4.9-7.4-7.9c-2.1,0.9-4.4-1.9-6.6-1.3c-1.2,0.3-2,1.6-3.2,2c-1.9,0.6-3.6-1.3-4.8-2.8
				c-3.1-3.7-7.1-6.5-11.6-8.3c-4.6-1.8-10.1-2.4-14.2,0.4c-1.8,1.2-3.1,2.9-4.4,4.6c-1.9,2.5-3.8,4.9-5.8,7.4
				c3.3-0.6,6.5-1.9,9.2-3.9c1-0.7,2-1.8,1.8-3c1-1.7,3.4-2,5.4-1.9c2,0.2,4.1,0.5,5.9-0.4c4.4,0.8,7.6,5.6,6.5,10
				c0.8,3,4.8,4.6,7.4,2.9c0.5-0.3,1.1-0.8,1.7-0.9c0.6-0.1,1.2,0,1.8,0.2c3.6,1.1,7.1,2.2,10.7,3.3c4,3.7,8,7.4,12.7,10.3
				c3.9,2.4,8.2,4.1,12.7,5.1c0.7,0.2,1.5,0.3,2.1,0.7c0.6,0.3,1,0.8,1.5,1.3c5.7,6.2,12.8,12.5,14.7,21.1c0.3,1.2,0.3,2.8-0.6,3.6
				c-0.7,0.6-1.8,0.6-2.7,0.6c-3.9-0.1-7.9,0-11.6,1.2c-3.7,1.2-7.2,3.9-8.5,7.6c-0.4,1-0.6,2.2-1.2,3.1c-1.4,1.9-4.1,2-6.2,3.1
				c-2.2,1.1-3.7,3.5-3.8,5.9c-2.2,0.3-4.4,0.6-6.6,0.9c-1.4,2.1-1.6,4.7-1.7,7.2c-0.1,2.5-0.2,5.1-1.6,7.2
				c-1.3,2.1-4.3,3.4-6.4,2.1c-0.8-0.5-1.4-1.3-2.2-1.8c-0.9-0.5-2-0.4-3-0.4c-5.4,0.2-11.8,0.9-14.7,5.5c-1.3,2.1-3.1,5.3-5.2,4.1
				c0.9,1.4,1.9,2.9,3.4,3.7c1.5,0.8,3.7,0.5,4.4-1.1c0.4-0.9,0.2-2,0.6-2.9c0.9-2.6,4.9-2.4,7-0.7c2.1,1.7,3.4,4.4,5.8,5.9
				c5,3.3,11.7-0.4,15.9-4.6c4.3-4.2,8.5-9.5,14.5-9.9c4.8-0.3,9.1,2.8,12.9,5.7c4.6,3.5,9.2,7,13.8,10.5c0.6-2.1,3.6-1.8,5.8-1.3
				c4.5,1.2,9.2,1.5,13.8,0.9c0.2,2-1.5,3.8-3.3,4.7c-1.8,1-3.9,1.5-5.4,2.9c-1.2,1.1-1.9,2.6-2.6,4.1c-1.3,2.7-2.5,5.4-3.8,8.2
				c3-0.2,6-1.4,8.3-3.4c1.8-0.1,2.8,2,2.9,3.8c0.1,1.8-0.2,3.7,0.7,5.2c0.5,0.8,1.4,1.6,1.2,2.6c-0.1,0.6-0.6,1-1,1.5
				c-1.7,1.9-1.5,5.2,0.4,7c0.6,0.6,1.4,1,1.9,1.6c1.4,1.9,0,4.4-1.4,6.3c0.5,0.2,0.9,0.4,1.4,0.7c1.3,0.9,2.4,2.1,2.5,3.6
				c0.2,2-2.4,4-4,2.7c0-1.3-0.1-2.5-0.1-3.8"/>
			<path class="st7" d="M2244.6,880c0.9,2.8-1.6,6.2-4.6,7.1c-3.4,0.9-6.9-0.3-10.2-1.5c-1.5-0.5-3-1.1-4.4-1.6
				c-1.9,0.1-3.7,1.2-4.6,2.8c-1.4-1.4-3.9-0.9-5.3,0.5c-1.4,1.4-2,3.4-2.6,5.2c-1.4,0-2.9,0-4.3,0.1c-0.2,1.3-0.4,2.5-0.7,3.8
				c1.3,0.6,2.6,1.1,3.9,1.7c-1.1,3-4.5,5-7.7,4.5c0,2.8-0.9,5.7-2.5,8.1c-0.2,0.2-4.6,5.2-2.7,5.4"/>
			<path class="st7" d="M2244.6,880c-0.1-0.3-0.3-0.6-0.4-0.9C2244.4,879.4,2244.5,879.7,2244.6,880z"/>
			<path class="st7" d="M2234.8,1012.4c0.3-1.8-0.3-3.6-0.9-5.4c-0.6-1.8-1-4,0-5.7c1-1.7,4-2,4.7-0.2c0.9-1.2,2.3-1.9,3.7-1.9
				c-0.3-1.8-0.2-3.9,1.2-5.1c1.4-1.2,4.1-0.6,4.2,1.2c2.8-2.1,5.5-4.2,8.2-6.3c0.5-0.4,1-0.8,1.2-1.4c0.6-1.6-1.4-2.9-2.9-3.7
				c-1.5-0.8-2.8-3.2-1.3-4c1.8-1.4,3.5-2.8,5.2-4.1c-0.1-1-0.2-1.9-0.4-2.9c0.7-0.6,1.4-1.3,2.1-1.9c-3.3,1.5-6.7,2.9-10.3,2.6
				c-3.6-0.4-7.1-3.4-6.7-6.9c-2.2-2.1-6.5,2.3-8.7,0.1c-1.8-1.7,0.7-4.5,2.9-5.5c2.2-1,5.1-2.8,4.3-5.1c0.8,1.1,2.2,1.8,3.6,1.8
				c0.2-1,0.1-2.1-0.4-3.1c-3.3-0.4-4.8-4.8-3.5-7.8c1.3-3,4.4-4.9,7.2-6.6c2.9-1.6,5.9-3.4,7.4-6.4c0.8-1.6,1-3.5,1.5-5.2
				c1-3.9,3.2-7.5,6.2-10.1c-0.4-2.7,0.3-5.5,2-7.5c0.7-0.9,1.6-1.8,1.4-2.9c-0.1-0.7-0.7-1.2-0.7-1.9c0-1.1,1.4-1.6,2.2-2.3
				c1.5-1.4,1-4-0.5-5.4c-1.5-1.4-3.5-1.9-5.5-2.3c0.1-1.9-0.4-3.8-1.3-5.4c-3.8-1.2-7.6-2.3-11.4-3.5c-0.7-0.2-1.4-0.4-1.9-0.9
				c-0.5-0.4-0.8-1-1-1.6c-0.8-1.7-1.6-3.4-2.3-5"/>
			<path class="st7" d="M2234.8,1012.4c-0.3-0.3-0.6-0.6-0.8-1c0.2,0.4,0.5,0.9,0.7,1.3C2234.8,1012.6,2234.8,1012.5,2234.8,1012.4z
				"/>
			<path class="st7" d="M1554.8,2266.8c1.4-0.2,2.8,1.1,3.8,2.3c1.2,1.5,2.5,3.1,3,4.9c0.3,1.2,0.3,2.5,0.7,3.7
				c1.4,3.9,6.6,4.9,9,8.3c1.2,1.8,1.6,4.1,3.3,5.5c0.9,0.7,2,1.1,3.1,1.5c2.1,0.7,4.1,1.3,6.2,2c13.9,4.5-1,14.6-8.7,15.6
				c-6.3,0.8-12.8,1.6-19.1,0.4c-15.7-3-26.1-17.5-34.8-30.8c-5.1-7.7-10.2-15.4-13.9-23.8c-2.8-6.3-4.9-12.9-6.9-19.6
				c-3.4-11.6-6.5-23.4-9-35.2c-3.2-15.1-5.4-30.4-6.7-45.8c-2.5-29.3-1.8-59.8-13.5-86.8c-5.5-12.7-13.6-24.2-23.6-33.7
				c-10.2-9.7-22.6-15.6-33.9-23.7c-10.2-7.3-21.8-12.8-33.9-16c-7.1-1.9-14.5-3.1-21-6.4c-6.7-3.3-12.1-8.6-17.6-13.7
				c-10.8-10.1-22.1-20.1-35.6-26.1c-13.5-6.1-28.4-7.9-42.9-10.5c-24.8-4.4-49.2-11.2-72.7-20.2c-7.6-2.9-15.4-6.2-20.4-12.6
				c-10-12.6-4.7-32.3,7.2-43.2s28.2-15.1,43.8-18.9c21-5.2,41.9-10.3,62.9-15.5c6.8-1.7,14-3.6,18.7-8.8c5.4-5.9,6.1-14.5,6.7-22.4
				c2.6-39.1,5.1-78.3,7.7-117.4c1-16,2.2-32.3,8.5-47c6.3-14.7,18.9-27.7,34.8-30c8.3-1.2,18.9-0.4,22.8-7.9
				c2.2-4.2,1.1-9.3,0-13.8c-2.5-10.2-5-20.4-7.5-30.5c-2.2-8.8-3.5-17.8-6.8-26.2c-1.9-4.8-4.1-9.6-5-14.7c-1.5-8.7,1-17.4,3.1-26
				c5.1-20.4,8.7-41.2,10.5-62.2c0.7-7.5,1.2-15.1,4.1-22.1c2.5-6.1,5.8-11.4,5.6-16.8c-0.1-2.8-1-5.6-3.5-8.4
				c-0.8-0.9-1.5-1.8-2.2-2.7c-5.9-7.7-10.6-16.9-15.1-25.3c-10.1-18.9-17.8-39-22.9-59.8c-2.6-10.4-4.5-21-8.9-30.8
				c-2.2-4.9-5-9.6-6.4-14.8c-1.2-4.8-1.2-9.9-1.1-14.9c0.3-21,0.6-42.1,1-63.1c0.2-10.8,0.3-25-7.7-33.5
				c-8.4-8.9-20.5-13.9-28.8-23.5c-12.9-15-31.6-14.2-48.1-23.8c-6.3-3.7-11.9-8.3-18.2-11.9c-17.5-10.2-38.5-12.4-58.7-14.4
				c-30.5-3.1-61.1-6.6-90.3-15.5c-19.5-5.9-44.8-16.3-53.1-36.9c-2-5.1-2-10.7-1.8-16.1c0.6-15.2,2.7-30.7,8.9-44.6
				c6.2-14,16.8-26.4,30.8-32.4c16.3-6.9,30.2-8,46.1,1.6c10.2,6.1,18.7,14.7,27.6,22.5c19.3,16.9,41.2,30.9,64.6,41.4
				c20.9,9.4,36.8,24.5,61.5,23.8c2.2,0,4.6-0.3,6.3-1.6c2.1-1.6,2.8-4.5,3.3-7.1c4.5-23.9-0.3-47,1.6-70.8
				c0.8-10.3,5.7-21.6,8.2-31.7c0.4-1.8,0.9-3.6,2.1-5c1.8-2,4.8-2.5,7.5-2.8c4.6-0.5,9.3-0.9,14-1.2c4.6-0.3,9.4-0.5,13.5,1.4
				c5.6,2.5,9.1,8.4,11,14.2c4.3,13.2,2.5,27.8-2.3,40.8c-4.8,13-12.5,24.8-20.1,36.5c-6.1,9.4-12.3,19-16,29.6
				c-2.9,8.3-6.6,23.6-0.8,31.5c5.8,8,19.3,15.2,27.1,21.6c9.8,8,20.6,16.5,33.3,16.8c12.5,0.3,23.5-7.3,34.5-13.2
				c13.5-7.2,28.2-12.2,43.2-14.6c11-1.8,24.4-1.1,30.5,8.2c7.2,11.1-1.2,25.8-10.7,35.1c-9.5,9.2-21.3,18.8-21.6,32.1
				c-0.4,15.4,14.9,26.1,29,32.2c5.7,2.5,11.8,4.7,17.9,4c2.6-0.3,4.9-1.2,7.1-2.6c9.2-5.9,14.6-20.5,18.6-29.1
				c6.8-14.8,12.2-30.3,16.1-46.2c2.4-9.6,4.2-19.3,7-28.8c2.2-7.6,5.1-15,8-22.4c10.3-26.5,20.8-54.3,48.1-67.9
				c20.9-10.4,47.5-6.6,69.8-4.7c1.9,0.2,4,0.4,5.6,1.4c1.4,0.9,2.3,2.4,3.4,3.6c4.7,5.5,12.3,7.4,19.5,8.4c7.1,1,14.2,1.5,21.3,1.4
				c3.9-0.1,8.5,0.1,10.6,3.3c5.3-6,14.7-6.6,22.3-4.3c7.7,2.3,14.5,6.9,21.9,9.8c6-11,10.9-23.9,22.8-29.6c6.7-3.2,14-4.7,20.9-7.1
				c8-2.8,14.9-6.3,23.2-8.6c1.4-0.4,2.9-0.8,4.3-1.3c10.2-3.7,19-9.7,29.7-12.2c19.6-4.5,39.7-5.4,59.6-8.5
				c27.4-4.2,54-12.4,80.6-20c13.3-3.8,26.7-7.5,40.2-10.4c12.1-2.6,26.7-2.3,38.2-6.6c0,0,0,0,0,0c-4.5-10.8-9.8-27.5-7.6-39.3
				c1-5.6,6.3-11.3,8.9-16.5c3.2-6.6,5.9-13.4,7.9-20.4c3.2-11.4,4.8-23.3,9.1-34.3c6.3-16.2,18.2-29.5,29.8-42.4
				c1.6-1.8,3.3-3.6,5.4-4.8c2.9-1.6,6.4-1.7,9.7-2.1c9.9-1.3,16.5-7.8,25.6-10.6c20.3-6.4,42.4-7.9,62.9-2c7.2,2.1,14,5,20.6,8.5
				c5.7,3,11,7.4,17.2,8.9c7.6,1.9,15.3,4,22.5,7.2c3.2,1.5,6.2,3.2,9.1,5.2c0.7,0.5,7.1,6.3,6.8,6.3c-0.8,0.2-1.5,0.3-2.3,0.5
				c3.1,9.1,6.1,18.2,9.2,27.2c1.3,3.9,2.6,7.8,4.5,11.4c2.1,4.2,4.9,8.1,6.4,12.5c1,3.1,1.4,6.4,2.6,9.4c0.8,1.9,2,3.7,2.7,5.7
				c1.3,3.3,1.3,6.9,1.4,10.4c0.2,10.6,1,21.2,3.4,31.6c3.8,16.3,6.1,32.1,7.7,48.8c0.6,5.8,1.1,11.6,1.7,17.3
				c0.3,2.9,2.8,14.3,0.6,15.7c0,1.6-0.1,3.3-0.1,4.9c-2.2-1.9-6.2,0.2-6,3c-1.5,0.2-3-0.8-3.4-2.2c-1.7,0.8-3.7,1.1-5.6,0.7
				c-1.5,1.2,0.5,3.4,0.6,5.2c0.1,2.9-3.8,3.7-6.6,3.7c-2.9,0-6.7,1.8-5.7,4.5c-1.9,0.2-3.7,0.5-5.5,0.8c-1,4.8-5.6,6.8-8.6,10.2
				c-3.6,4.2-8.7,7-12.1,11.4c-0.9,1.2-1.7,2.6-2.8,3.8c-1.1,1.2-2.5,2.4-2.8,4c-0.4,1.6,1.2,3.6,2.7,2.9c1,1.1-1.2,2.1-2.5,2.8
				c-1.6,0.8-2.2,2.6-3.2,4.1s-2.7,2.9-4.3,2.1c0.4,2.2,0.1,4.8-1.7,6.1c-1.8,1.3-5.1,0.3-5-1.9c-2.9-0.7-6.1,1.1-7,3.9
				c1.6-1.9,5.1,0.7,4.3,3.1c-0.7,2.4-3.8,3.3-6.2,2.7c-0.7,1.4-1.4,2.7-2.2,4c-2.5,0-5,0.1-7.5,0.1c-0.1,1.9-2.2,3.5-4.1,3
				c-0.2,1.5-0.5,3-0.7,4.5c-2.1-0.1-4.1-1.1-5.6-2.6"/>
			<path class="st7" d="M2070.5,873.5C2070.5,873.5,2070.5,873.4,2070.5,873.5C2070.6,873.4,2070.6,873.4,2070.5,873.5
				c0.1,0,0.1,0,0.1,0c0.2,0.4,0.3,0.9,0.5,1.3c0.2,0.5,0.4,1.1,0.5,1.7c0.1,0.5,0.2,1,0.3,1.4c0.8,2,1.9,3.7,3,5.5
				c0.9,1.5,1.9,3,2.4,4.7c0.5,1.8,0.5,3.8,0.4,5.7c-0.5,9.2-3.2,18.3-7.7,26.3c-1.7,3-3.6,5.9-4.4,9.2c-0.6,2.7-0.4,5.6-0.2,8.4
				c0.5,6.4,0.9,12.8,1.4,19.2c0.4,4.8,0.7,9.7,1.9,14.4c3.4,13.2,13,23.5,22.6,32.7c0.8,0.8,1.6,1.6,2.5,2.4
				c0.7,0.5,1.6,0.8,1.9,1.6c0,0.1,0.1,0.1,0.1,0.2"/>
			<path class="st7" d="M1750.8,979c0.1,0,0.2,0,0.3,0c11.8,0.3,25.1,1.4,32.7,10.5c8.8,10.6,5.3,26.4,1,39.5
				c-7.9,23.9-17.1,47.3-27.5,70.1c-1.7,3.7-3.4,7.5-3.8,11.5c-0.5,5.9,2.2,12.1,7,15.6c7,5.2,8.4,12.4,5.5,20.6
				c-2.9,8.2-8.4,15.3-12,23.2c-3.6,7.9-5,17.9,0.2,24.9c1.2,1.7,2.8,3.1,3.6,5c1,2.4,0.6,5.2,0.4,7.8c-1.4,13.6,0.6,27.6,5.9,40.3
				c6.7,16-0.6,33.2,6,50.2c2.6,6.6,6.3,12.8,9.4,19.2c14.7,30.8,14.3,66.4,13.5,100.5c1.5,0.3,2.9,0.7,4.3,1.1
				c15.2,4.2,28.8,12.3,44.1,16.6c16.8,4.7,36.7,4.7,49.7-7c6.2-5.6,10.2-13.3,16.6-18.6c8.7-7.3,20.6-9.2,31.9-10.7
				c15.7-2,31.6-3.6,47-7.3c9.5-2.3,19.7-6.1,24.4-14.6c2.1-3.7,2.9-8.2,5.9-11.3c2.4-2.5,5.9-3.6,8.8-5.5c3-1.8,5.6-5.1,4.9-8.5
				c0,0-1.3-5.7-2.7-11.7c-0.7-0.9-1.5-1.7-2.2-2.6c-3-3.4-6.1-6.8-9.1-10.1c-2-2.2-4-4.5-6.4-6.2c-1.2-0.8-2.4-1.5-3.3-2.5
				c-0.8-0.9-1.4-2.1-1.9-3.2c-2.6-5.8-4.9-11.8-6.5-18.1c-0.7-2.6-1.5-5.5-1.6-8.1c-0.1-2,0.1-3.8,0.1-5.7c0-0.9-0.1-1.7-0.2-2.6
				c-0.5-2.6,0.1-5.6,0.6-8.2c1.2-6.4,3.8-12.5,7.3-18.1c7.3-11.6,20.3-18.4,29.2-28.9c6.7-7.9,11-17.7,17.8-25.4
				c4.7-5.4,10.4-9.6,15.8-14.3c29.1-25.4,46.6-63.2,79.2-83.9c1.4-0.9,1.8-1.2,3.3-1.9"/>
			<path class="st7" d="M1997.3,1284.1c62.9-2.8,134.1,15.8,187.1-28"/>
			<path class="st7" d="M1797.2,1419.2c-32.9-0.3-65.9-0.7-98.8-1c-8.6-0.1-17.3-0.2-25.9-0.3c-29.4-0.3-58.8-0.6-87.8-5.1
				c-36.7-5.7-72-18-106.8-30.8c-3.7-1.4-7.9-2.7-11.5-1.1c-3.2,1.5-4.9,5-7.4,7.6c-8.3,9.1-23.2,6.4-34.4,1.5
				c-11.3-4.9-23.3-11.5-35.1-8c-1.6,0.5-2.2,0.4-3,0.7c-0.5,0.2-1.1,0.4-2,1.1"/>
			<path class="st7" d="M1478.6,1152.1c0.1,0.3,0.2,0.6,0.3,0.9c7.1,23.9,2.2,49.7-2.8,74.2c-4,20-8,40-13.1,59.7
				c-4.7,18.5-10.5,37.2-21.3,52.9c-6.6,9.6-15.2,18-25.5,23.6c-5.1,2.8-11.1,5.5-17,6.2c-6.4,0.8-12.3,0.2-18.5,2.1
				c-0.5,0.2-1,0.3-1.5,0.5"/>
		</g>
	</g>
</g>
<g id="cities">
	<circle class="st8" cx="337.5" cy="1042.6" r="5.2"/>
	<text transform="matrix(1 0 0 1 332.6211 1034.3765)" class="st9 st10">Khotan</text>
	<circle class="st8" cx="195.3" cy="855.2" r="5.2"/>
	<text transform="matrix(1 0 0 1 165.2752 881.043)" class="st9 st10">Kashgar</text>
	<circle class="st8" cx="1695.5" cy="1343.1" r="5.2"/>
	<text transform="matrix(1 0 0 1 1669.4578 1366.1162)" class="st9 st10">Changan</text>
	<circle class="st8" cx="1033.2" cy="977" r="5.2"/>
	<text transform="matrix(1 0 0 1 948.5755 999.4869)" class="st9 st10">Dunhuang</text>
	<circle class="st8" cx="1863.7" cy="1302.5" r="5.2"/>
	<text transform="matrix(1 0 0 1 1819.7043 1325.6631)" class="st9 st10">Luoyang</text>
	<circle class="st8" cx="812.4" cy="785.8" r="5.2"/>
	<text transform="matrix(1 0 0 1 784.6392 813.1508)" class="st9 st10">Turfan</text>
	<circle class="st8" cx="753.5" cy="722.7" r="5.2"/>
	<text transform="matrix(1 0 0 1 737.9824 713.4842)" class="st9 st10">rmqi</text>
	<circle class="st8" cx="790.6" cy="1574.9" r="5.2"/>
	<text transform="matrix(1 0 0 1 785.7789 1593.769)" class="st9 st11">Lhasa</text>
	<circle class="st8" cx="2189" cy="1423.7" r="5.2"/>
	<text transform="matrix(1 0 0 1 2180.7551 1446.713)" class="st9 st10">Jiankang</text>
	<circle class="st8" cx="1870.1" cy="983.3" r="5.2"/>
	<text transform="matrix(1 0 0 1 1844.3721 1008.2613)" class="st9 st10">Pingcheng</text>
	<circle class="st8" cx="2177.2" cy="854.1" r="5.2"/>
	<text transform="matrix(1 0 0 1 2192.3923 863.3885)" class="st9 st10">Longcheng</text>
	<circle class="st8" cx="1386.8" cy="1129.8" r="5.2"/>
	<text transform="matrix(1 0 0 1 1350.7814 1121.6949)" class="st9 st10">Wuwei</text>
	<circle class="st8" cx="1290.1" cy="1069" r="5.2"/>
	<text transform="matrix(1 0 0 1 1255.3875 1061.2406)" class="st9 st10">Zhangye</text>
</g>
<g id="text">
	<text transform="matrix(1 0 0 1 1831.125 1163.9161)" class="st12 st13">Wei</text>
	<text transform="matrix(1 0 0 1 1030.9176 966.1738)"><tspan x="0" y="0" class="st12 st14">Western</tspan><tspan x="41.6" y="43.2" class="st12 st14">Liang</tspan></text>
	<text transform="matrix(1 0 0 1 1581.8674 1780.796)" class="st12 st13">Eastern Jin</text>
	<text transform="matrix(1 0 0 1 1548.7388 1245.0317)" class="st12 st13">Xia</text>
	<text transform="matrix(0.9994 -3.562452e-02 3.562452e-02 0.9994 2073.2566 1185.7339)"><tspan x="0" y="0" class="st12 st15">   Southern</tspan><tspan x="0" y="72" class="st12 st15">Yan</tspan></text>
	<text transform="matrix(0.9994 -3.562452e-02 3.562452e-02 0.9994 2092.2283 830.3997)"><tspan x="0" y="0" class="st12 st15">Northern</tspan><tspan x="0" y="72" class="st12 st15">Yan</tspan></text>
	<text transform="matrix(1 0 0 1 1289.6497 936.8204)"><tspan x="0" y="0" class="st12 st14">Northern</tspan><tspan x="0" y="43.2" class="st12 st14">Liang</tspan></text>
	<text transform="matrix(1 0 0 1 1287.1913 1270.9211)"><tspan x="0" y="0" class="st12 st14">Southern</tspan><tspan x="56.2" y="43.2" class="st12 st14">Liang</tspan></text>
</g>
</svg>
