<?xml version="1.0" encoding="utf-8"?>
<!-- Generator: Adobe Illustrator 19.2.1, SVG Export Plug-In . SVG Version: 6.00 Build 0)  -->
<svg version="1.1" xmlns="http://www.w3.org/2000/svg" xmlns:xlink="http://www.w3.org/1999/xlink" x="0px" y="0px"
	 viewBox="0 0 2905.1 2313" style="enable-background:new 0 0 2905.1 2313;" xml:space="preserve">
<style type="text/css">
	.st0{opacity:0.34;}
	.st1{fill:#F19920;}
	.st2{fill:#B54A9B;}
	.st3{fill:#59BA47;}
	.st4{fill:#074C2E;}
	.st5{fill:#E3DCD6;}
	.st6{fill:none;stroke:#000000;stroke-miterlimit:10;}
	.st7{fill:#ED1C24;stroke:#1C75BC;stroke-linecap:round;stroke-miterlimit:10;}
	.st8{font-family:'ArialMT';}
	.st9{font-size:24px;}
	.st10{font-size:21px;}
	.st11{font-family:'MyriadPro-Regular';}
	.st12{font-size:48px;}
	.st13{font-size:72px;}
</style>
<g id="bitmap">
	
		<image style="overflow:visible;" width="1968" height="1567" xlink:href="../relief_map.jpg"  transform="matrix(1.4757 0 0 1.4757 1.8006 0)">
	</image>
</g>
<g id="borders">
	<g id="XMLID_1_" class="st0">
		<g>
			<path class="st1" d="M2379.6,1567.6c0.2,2-2.4,4-4,2.7c0-1.3-0.1-2.5-0.1-3.8c0,0,0-0.1,0-0.1l1.6-2.4
				C2378.4,1564.8,2379.4,1566.1,2379.6,1567.6z"/>
			<path class="st2" d="M1782.5,2140.2c0.4,0.1,0.9,0.1,1.3,0.2C1783.5,2140.1,1783,2140,1782.5,2140.2z M1782.5,2140.2
				c-0.7-0.1-1.3-0.2-2-0.2c0.2-2.5,0-5-0.5-7.4c-1.5,0.1-2.9,0.2-4.4,0.3c-1.2-9-0.2-18.3,2.7-27c0.5-1.6,1.1-3.1,2.2-4.3
				c1.6-1.8,4.1-2.7,6.5-2.4c0.5-1.8,0.3-3.8-0.4-5.5c-2.9,0.8-5.9,1.5-8.9,1.1c-3-0.4-6-2.3-6.7-5.3c-1.9-1.9-3.8-3.8-5.7-5.8
				c0.7-1.2,0.7-2.8,0-4.1c-2.2-0.4-3.2,3-2.1,5c1.1,2,3.1,3.6,3.4,5.8c0.5,3.2-2.9,5.8-6.1,6.4c-3.2,0.6-6.6,0.2-9.6,1.2
				c-2.9,1-5.3,3.4-8.3,3.9c-3,0.6-6.9-2.4-5.3-5.1c1.4-2.3,6.1-3.7,4.4-5.8c-6.4-1.7-12.9-3.3-19.3-5c-0.2-0.1-0.5-0.1-0.7-0.2
				c-3.1-0.8-6.4-1.7-8.8-3.8c-2.4-2.2-3.6-6-1.8-8.7c-2,0.8-4,1.7-6,2.5c1.8,2.5,3.6,5.1,4.3,8.1c0.7,3,0.2,6.5-2.2,8.5
				c-2.4,2-6.6,1.5-7.9-1.3c-0.7-1.6-0.4-3.4-0.8-5c-0.5-1.6-2.6-3-3.8-1.8c2.5,4.6,0.2,11.2-4.7,13.1c1.2-2.2,1.6-4.8,1.3-7.3
				c-3.7,2-7.4,3.9-11.1,5.9c1.2,0.8,2.4,1.5,3.6,2.2c-2,1.6-4.2,3.2-6.8,3.5c-2.6,0.3-5.5-1.4-5.5-4c-1.8,0-3.6,0.1-5.5,0.1
				c1.4,1.7,0.7,4.5-1.1,5.9c-1.7,1.4-4.1,1.8-6.2,2.1c0.2,1.7-0.2,3.4-1,4.9c-1.9-0.6-3.7-1.3-5.6-2c0,1.8-0.7,3.6-2,4.8
				c-2.1-1.8-6.2-3.2-6.9-0.5c-0.2,0.7,0,1.5,0.2,2.2c0.9,3,1.7,6.1,2.6,9.1c-2.2,3.7-6.7,5.7-10.9,4.9c-0.3,1.4-0.5,2.8-0.8,4.2
				c-2.5-0.5-4.9-1.1-7.4-1.6c1.8-1.1,2.9-3.3,2.7-5.4c-1.9-0.3-4,0.2-5.6,1.3c1.4,0.5,1.1,2.2,0,3.3c-0.6,0.6-1.3,1-2.1,1
				c-1.1,0-2.2-0.4-3.2-0.9c-1-0.5-2.1-1-3.2-1.2c-2.2-0.4-5,2-3.5,3.7c2,0.7,4.4,0.2,6-1.3c0.5,3.3,4.6,4.5,7.5,6.1
				c2.9,1.7,4.5,6.9,1.3,7.7c-3.1-2.5-6.8-4.3-10.6-5.2c-1.6-2.6-4.4-4.4-7.4-4.9c-0.6,3.8,0.9,7.9,3.7,10.5
				c-3.2,1.9-6.3,3.7-9.5,5.6c-1.1,2.1-3,3.7-5.2,4.6c2.5,4.6,4.3,11.4,0.2,14.2c-0.2,0-0.3,0.1-0.4,0.2c0.1-0.1,0.3-0.2,0.4-0.2
				c0.6-0.1,1.4,0.6,1.3,1.4c-0.2,0.9-1.1,1.5-1.9,2c-3.7,2-8.6,3.7-11.6,6.6c-2,1.9-4,4.6-5.7,6.8c-1.1,1.5-2.2,3.2-3.9,3.9
				c-1.7,0.8-4.3-0.1-4.3-2c-2.2,0.5-4.3,1.6-5.9,3.2c0.4,1.1,0.5,2.3,0.3,3.4c-2.9,1.9-1.8,6.4-3.6,9.3c-0.7,1.1-1.9,1.9-2.7,3
				c-3.2,4.2-0.1,10.3-1.4,15.4c-0.8,0.2-1.6,0.3-2.4,0.4c1.6,2.9,2.2,6.3,1.8,9.5c-1.2-0.8-2.8,0.5-3.2,1.9c-0.3,1.4,0.1,2.9,0,4.3
				c-0.2,2.7-2.5,5.1-5.2,5.4c-0.6,0.1-1.2,0.1-1.6,0.5c-0.2,0.3-0.2,0.6-0.3,0.9c-0.3,3.1-0.4,6.5,1.6,8.9c1,1.2,2.5,2,3.9,2.8
				c1.3,0.9,2.7,2,3.1,3.5c0.4,1.3-0.2,3-1.4,3.6c-0.2,0-0.4,0.1-0.6,0.2c0.2,0,0.4-0.1,0.6-0.2c1.4-0.2,2.8,1.1,3.8,2.3
				c1.2,1.5,2.5,3.1,3,4.9c0.3,1.2,0.3,2.5,0.7,3.7c1.4,3.9,6.6,4.9,9,8.3c1.2,1.8,1.6,4.1,3.3,5.5c0.9,0.7,2,1.1,3.1,1.5
				c2.1,0.7,4.1,1.3,6.2,2c13.9,4.5-1,14.6-8.7,15.6c-6.3,0.8-12.8,1.6-19.1,0.4c-15.7-3-26.1-17.5-34.8-30.8
				c-5.1-7.7-10.2-15.4-13.9-23.8c-2.8-6.3-4.9-12.9-6.9-19.6c-3.4-11.6-6.5-23.4-9-35.2c-3.9-18.4-0.1-38.8,1.5-57.4
				c1.4-17,15.6-30.7,15-48.1c-0.3-9.9-5.8-18.8-11.2-27.2c-5.9-9.2-11.8-18.5-18.8-26.9c-4-4.8-8.3-9.4-12.8-13.8l0.6-0.6
				c-0.3-9.9,7.5-18.5,16.5-22.6c9-4.1,19.2-4.6,29-5.7c8.6-0.9,14.4-3.3,22.7,0.4c4.3,1.9,8.8,3.3,13.5,3.3c4.7,0,9.5-1.7,12.6-5.2
				c4.4-5,4.4-12.5,3.9-19.1c-0.1-1.2-0.2-2.5-0.8-3.6c-5.1-10-24.5-24.1-12.6-37.5c2.9-3.2,7.3-4.6,11.5-5.7
				c20.1-5.6,41-6.4,61.4-12.1c21.4-6,42.2-14.3,61.8-24.8c12.2-6.5,24.2-14,33.5-24.3c9.3-10.3,15.7-23.8,15-37.7
				c-0.5-12.2-6.3-23.6-7.5-35.7c-1.1-11.6,2.2-22.7,6-33.4c4-11.2,2.1-17.6,0.5-29.5c-3.3-23.8-5.4-47.7-6.4-71.7
				c-0.4-10.5-0.6-21.2,2.3-31.2c2.5-8.6,7.1-16.4,12-23.9c11.8-18.1,25.4-35,40.5-50.4c3.5-3.5,8.1-6.8,11.1-10.8
				c1.8-2.5,2.5-6.5,5-8.3c7.8-5.5,21.4,2.3,27,7.6c6.6,6.1,11,14.1,15.4,22c2.8,0.2,4.4-2.8,6.4-4.8c4.9-5,13.7-3.8,19.2,0.6
				c5.5,4.4,8.7,11,12.2,17c3.6,6.1,8.2,12.2,14.9,14.3c3.4,1.1,7.1,1,10.7,1.4c8.1,0.8,15.9,4,22.4,9c6.7-12.6,15.7-24,26.5-33.4
				c2.1-1.9,4.4-3.7,6-6c1.9-2.8,2.9-6.2,4.6-9.2c5.1-8.7,13.4-14.6,19.2-23c1.3,0.9,2.8,1.7,4.2,2.4c11.6,5.6,25.9,5,36.3,12.6
				c12.2,9,18.1,28.6,33.3,29.3c5.5,0.2,10.6-2.3,15.5-4.7c12.2-6.2,24.8-12.7,33.2-23.5c7.5-9.6,11-21.8,18.5-31.3
				c6.8-8.7,16.6-14.6,24.3-22.6c16.1-16.7,21.8-40.5,32.9-60.8c11.1-20.4,33.2-39.2,55.3-32.3c10.4,3.2,20.1,11.8,30.4,11.3
				c-1.3,1.7-2.7,3.4-4,5.1c3.3-0.6,6.5-1.9,9.2-3.9c1-0.7,2-1.8,1.8-3c0,0,0.1-0.1,0.1-0.1c1.1-0.5,2.1-1.1,3.2-1.7
				c0.7-0.1,1.4-0.1,2.1-0.1c2,0.2,4.1,0.5,5.9-0.4c4.4,0.8,7.6,5.6,6.5,10c0.8,3,4.8,4.6,7.4,2.9c0.5-0.3,1.1-0.8,1.7-0.9
				c0.6-0.1,1.2,0,1.8,0.2c3.6,1.1,7.1,2.2,10.7,3.3c4,3.7,8,7.4,12.7,10.3c3.9,2.4,8.2,4.1,12.7,5.1c0.7,0.2,1.5,0.3,2.1,0.7
				c0.6,0.3,1,0.8,1.5,1.3c5.7,6.2,12.8,12.5,14.7,21.1c0.3,1.2,0.3,2.8-0.6,3.6c-0.7,0.6-1.8,0.6-2.7,0.6c-3.9-0.1-7.9,0-11.6,1.2
				c-3.7,1.2-7.2,3.9-8.5,7.6c-0.4,1-0.6,2.2-1.2,3.1c-1.4,1.9-4.1,2-6.2,3.1c-2.2,1.1-3.7,3.5-3.8,5.9c-2.2,0.3-4.4,0.6-6.6,0.9
				c-1.4,2.1-1.6,4.7-1.7,7.2c-0.1,2.5-0.2,5.1-1.6,7.2c-1.3,2.1-4.3,3.4-6.4,2.1c-0.8-0.5-1.4-1.3-2.2-1.8c-0.9-0.5-2-0.4-3-0.4
				c-5.4,0.2-11.8,0.9-14.7,5.5c-1.3,2.1-3.1,5.3-5.2,4.1c0.9,1.4,1.9,2.9,3.4,3.7c1.5,0.8,3.7,0.5,4.4-1.1c0.4-0.9,0.2-2,0.6-2.9
				c0.9-2.6,4.9-2.4,7-0.7c2.1,1.7,3.4,4.4,5.8,5.9c5,3.3,11.7-0.4,15.9-4.6c4.3-4.2,8.5-9.5,14.5-9.9c4.8-0.3,9.1,2.8,12.9,5.7
				c4.6,3.5,9.2,7,13.8,10.5c0.6-2.1,3.6-1.8,5.8-1.3c4.5,1.2,9.2,1.5,13.8,0.9c0.2,2-1.5,3.8-3.3,4.7c-1.8,1-3.9,1.5-5.4,2.9
				c-1.2,1.1-1.9,2.6-2.6,4.1c-1.3,2.7-2.5,5.4-3.8,8.2c3-0.2,6-1.4,8.3-3.4c1.8-0.1,2.8,2,2.9,3.8c0.1,1.8-0.2,3.7,0.7,5.2
				c0.5,0.8,1.4,1.6,1.2,2.6c-0.1,0.6-0.6,1-1,1.5c-1.7,1.9-1.5,5.2,0.4,7c0.6,0.6,1.4,1,1.9,1.6c1.4,1.9,0,4.4-1.4,6.3
				c0.5,0.2,0.9,0.4,1.4,0.7l-1.6,2.4c0,0,0,0.1,0,0.1c0,1.2-1.4,2.1-2.6,2c-1.3-0.1-2.4-0.9-3.4-1.6c1.9-4,0.9-9.1-2.3-12.1
				c0.7,2.1,0.9,4.5,0.1,6.6c-0.8,2.1-3,3.7-5.2,3.4c-0.5-0.1-1-0.2-1.3-0.6c-0.6-0.6-0.5-1.6-0.9-2.3c-0.8-1.3-3.1-0.8-3.8,0.6
				c-0.7,1.4-0.5,3-0.2,4.6c-1.4,0.2-2.8,0.5-4.1,0.7c2.5,4.4,11.2,2,12.9,6.8c0.3,0.7,0.3,1.5,0.3,2.3c1.6-0.2,3.1,1.2,3.2,2.8
				c-1.8-0.1-3.6-0.1-5.4,0.1c-2.3,0.2-4.5,0.7-6.7,1.3c-0.7,1.7,1.9,2.8,3.6,2.4c1.1-0.3,2.2-0.8,3.3-0.9c0.7-0.1,1.3,0,1.9,0.3
				c0.1,2.8,1.4,5.2,0.3,8c-0.6,1.5-3.9,5.8-6.1,4.9c3.3,1.4,0.9,7.9,4.3,9.3c0.5,0.2,1.1,0.3,1.6,0.5c2.1,1.1,1,4.6,2.5,6.3
				c0.6,0.7,1.6,1.1,2.4,1.7c2.2,1.7,1.4,5.8-1.2,6.7c-1-1.4-2.1-2.8-3.6-3.5s-3.7-0.5-4.5,1c-0.5,2.4-0.9,4.9-1.4,7.3
				c-0.2,1-0.4,2.1-1.3,2.7c-1.9,1.4-4.3-1.1-5.3-3.3c-0.9-1.9-1.7-3.9-2.5-5.8c-1.4-0.1-2.8-0.5-3.9-1.3c-1.2,2.3-3.4,4.2-5.9,4.9
				c1.6,0.1,3.2,0.3,4.7,0.5c1.1,2-0.2,4.6-1.8,6.3c-1.5,1.8-3.3,3.7-3.2,6c0.1,1.4,1,2.8,0.7,4.2c-0.3,1.5-1.6,2.2-3,2.4
				c-1.1,0.2-3.2,0.4-4.2,0.2c-0.8-0.1-1.4-0.6-2.1-0.9c-1.9-0.9-4.2-0.7-5.8,0.6c0.4,0,0.4,0.7,0.5,1.1c0.2,0.6,1.1,0.6,1.7,0.3
				s1.1-0.7,1.8-0.7c0.8,0.1,1.3,0.9,2,1.1c0.8,0.2,1.8-0.3,2.4,0.2c0.2,0.2,0.3,0.4,0.4,0.6c0.3,0.8,0.3,1.8,0.3,2.7
				c0,0.7,0,1.4-0.3,2.1c-0.2,0.4-0.4,0.7-0.7,1c-0.5,0.7-1.1,1.4-1.6,2.1c-0.8,1-1.7,2.2-1.9,3.4c-0.2,0.9,0.3,2-0.3,2.7
				c-0.9,0.9-3.6,0.9-4.6,0.2c0.6,0.5,0.4,1.4,0.4,2.2c0.1,1.2,1,2.1,1.5,3.2c0.5,1.1,0.3,2.8-0.9,2.9c-0.5,0.1-1-0.2-1.5,0.1
				c-0.3,0.1-0.4,0.4-0.5,0.7c-0.6,1.9,0,4.2,1.6,5.4c1-0.9,2.8-0.4,3.2,0.9c0.2,0.6,0.1,1.3-0.1,1.9c-0.3,1.3-0.6,2.7-0.9,4.1
				c-0.1,0.2-0.1,0.5-0.3,0.7c-0.2,0.2-0.5,0.1-0.8,0.1c-1.2-0.2-2.5-0.3-3.7-0.5c0.8,0.8,0.5,2.4-0.5,3c-0.2,0.1-0.3,0.1-0.4,0.2
				c0.2,0,0.3-0.1,0.4-0.2c0.5-0.1,1.1-0.1,1.5,0.1c0.1,2.1,0.2,4.3,0.3,6.4c0,0.5,0,1.1-0.2,1.5c-0.4,0.7-1.3,0.9-2.2,1.1
				c-1.5,0.3-3.2,0.5-4.4-0.4c-0.4-0.3-0.8-0.7-1.2-1.1c-0.8-0.6-1.8-0.9-2.8-1.3c-0.9-0.4-1.7-0.9-2-1.8c-0.2-0.6-0.3-1.4-0.9-1.5
				c-0.4,0-0.7,0.3-0.9,0.5c-0.8,0.9-1.6,1.8-2.3,2.6c-0.6,0.7-1.2,1.4-1.4,2.3c-0.1,0.9,0.6,2,1.5,1.9c0.6-1.3,1.4-2.8,2.8-3.3
				c1-0.2,2.1-0.2,3,0.1c0.9,0.2,1.7,0.7,2.4,1.2c0.7,0.6,1.3,1.3,1.8,2.1c0.9,1.3,1.7,2.9,1.3,4.5c-0.3,1.3-1.6,2.4-3,2.5
				c-1.4,0.1-2.8-0.8-3.3-2.1c-0.1,1.1-0.1,2.2-0.1,3.3c0,0.2,0,0.5,0,0.7c-0.1,2.7-0.2,5.4-0.8,8c-0.1,0.6-0.4,1.3-0.9,1.6
				c-1.3,0.6-3.2-1.2-4,0c-0.2,0.3-0.2,0.8-0.4,1.2c-0.6,1.1-2.3,0.4-3.4,0.9c-1,0.5-1.1,2.3-0.1,2.8c0.9,0.5,2,0,3-0.2
				s2.4,0.2,2.4,1.3c-0.1,0.7-0.8,1.1-1.4,1.1c-0.1,0-0.1,0-0.2,0c-0.6,0-1.1-0.2-1.7-0.3c-1-0.2-2.3-0.1-2.9,0.7
				c-0.7,0.8-0.1,2.4,1,2.3c0.3,0,0.5-0.2,0.8-0.3c0.9-0.4,1.9-0.6,2.8-0.6c0.6,0,1.3,0.1,1.9,0.4c0.2,0.1,0.5,0.2,0.6,0.4
				c0.1,0.2,0.1,0.4,0.1,0.6c-0.1,1.2-0.3,2.6-0.2,3.8c0.1,0.5,0.6,1.5,0.4,1.9c-0.6,1-6.2,2-7.4,2.4c-1.2,1.9-2.3,3.7-3.5,5.6
				c-0.6,0.9-2,0.6-2.8-0.3c-0.3-0.3-0.5-0.7-0.6-1c-0.4-1.5,0.2-3.1-0.1-4.6c-0.4-2.7-3.7-4.6-6.3-3.5c-1,0.4-1.9,1.2-3,1.3
				c-2.9,0.2-5.6-4.5-7.7-2.6c2.6,2,3.8,5.7,2.8,8.8c3.7-2.8,9.6-1.3,12.2,2.4c0.6,0.8,0.9,1.7,1.1,2.7c0.1,0.6,0.2,1.2-0.1,1.7
				c-0.4,0.7-1,0.9-1.7,0.9c-1.4,0-3.2-0.7-4.5,0c-1.4,0.7-1.6,2.7-0.8,4c0.8,1.3,2.2,2.1,3.6,2.8c0.5-2,1.2-4.2,2.8-5.4
				c0.1-0.1,0.2-0.2,0.3-0.2c1.8-1.2,5.1-0.1,4.8,2.1c1.2-0.2,2.4-0.4,3.6-0.7c0.4,1.5-1.2,2.8-2.7,3.4c-1.5,0.6-3.2,1-4,2.3
				c-0.4,0.6-0.5,1.3-1,1.8c-0.6,0.5-1.4,0.6-2.2,0.7c-3.4,0.7-5.8,4.4-5.1,7.8c0.2,0.9,0.6,1.9,0.4,2.8c-0.1,0.6-0.5,1.1-0.6,1.6
				c-0.3,2.8,5,1.9,6.5,4.3c-1.3,4-3.5,7.6-6.2,10.8c2.3,1.2,3.5,4.2,2.6,6.6c-0.9,2.4-3.8,3.9-6.3,3.3c0.7,1.5,1.5,3.1,2.2,4.6
				c0.7-1.4,2.6-1.9,4.1-1.4s2.5,1.8,3.4,3.2c1.5,2.4,2.3,5.2,2.7,8c0.1,0.6,0.1,1.3-0.2,1.8c-0.3,0.5-0.9,0.7-1.5,0.8
				c-1.8,0.6-3.7,1.1-5.4,0.4s-2.6-3.3-1.1-4.4c-2.4,0.2-4.3-1.8-6.6-2.7c-2.2-0.9-5.8,0.6-4.8,2.8c1.3,0.1,2.2,1.7,1.6,2.8
				c-1.7,0.3-3.6-1-3.9-2.8c-2.4,0.7-5,1.8-5.7,4.2c-0.8,2.3,2.2,5.3,4.1,3.6c-0.1,1-0.3,2-0.4,3c0.3,1,1.8,0,2.5-0.8
				c1.4-1.5,4.2-1.7,5.4,0c1.2,1.7-0.3,4.6-2.3,4.2c0.5,0.8,1,1.6,1.5,2.3c-2.7,2.3-7.3,2-9.7-0.7c-0.3,2.1-0.6,4.2-0.9,6.2
				c-0.9,0.7-2.5,0.4-3.1-0.6c-0.6-1-0.1-2.5,1-3c-0.9-1.8-4-1.7-4.7,0.2c-1.1-0.7-1.8-1.9-1.8-3.2c-1.3,0.3-2.6,0.6-3.9,0.9
				c2.1,1.1,4.2,2.6,4.8,4.8c0.6,2.3-1.6,5.1-3.8,4.2c-0.3,1.4,1.4,2.4,2.8,2.4s2.8-0.6,4.2-0.3c3,0.6,3.4,5.7,0.6,6.8
				c-0.6-0.6-1.2-1.1-1.8-1.7c-1.2,0-2.2,1.2-2,2.3c1.3-0.4,2.8,0.4,3.4,1.7c-3.9,0.2-8.1,0.5-11.2,2.9c-0.5,0.4-1.1,1-1.7,1.1
				c-0.1,0-0.3,0-0.4,0c-1.8,0-2.6-2.6-2.7-4.5c-0.6,1.5-1.2,3.1-1.8,4.6c-0.4,1.1-0.8,2.4-0.2,3.3c1.1,1.8,3.9,0.4,5.4-1
				c1.6,0.2,2.5,2.2,2.3,3.8c-0.3,1.6-1.4,3-2.4,4.2c-1-0.8-2.6-0.3-3.1,0.8s0.4,2.6,1.6,2.8c0.5,2.5-1.4,6.2-4.2,6.5
				c-1.8,0.1-1.3-1-2.5-2.2c-1-1-2.4-1.6-3.7-1.7c-2.6-0.1-5.1,1.2-7.5,2.4c-2.6,1.2-5.2,2.2-7.9,3.1c0.7-1.5-0.6-3.6-2.3-3.6
				c-0.9,0.3-1.1,1.1-1,2l-1.3,0.4c-1.6,0.7-3.2,1.5-4.8,2.2c0.9,0.6,1.7,1.2,2.6,1.8c-0.1,1-0.2,2-0.3,3c-3.8,1.1-7.8,1.7-11.8,1.7
				c-0.1,2.5,2.9,3.9,5.4,3.6c2.4-0.3,4.7-1.5,7.1-1.7c0.1,1.1,0.2,2.2,0.3,3.4c1.3-1.7,4.3-0.6,4.9,1.5c0.6,2-0.5,4.2-1.9,5.8
				c-1.8,2-4.8,3.4-7.2,2.1c0.6,3.9,0.1,8-1.6,11.7c-1.6,0.4-3.2,0.6-4.8,0.4c0.6,1.7,0.4,3.7-0.6,5.2c-1.8-0.2-3.3-1.4-4.1-3
				c0.1-1,0-2.1-0.7-2.8c0,1,0.2,2,0.7,2.8c-0.1,0.8-0.4,1.7-0.8,2.5c-0.8,1.7-1.9,3.3-2,5.2c-0.1,1.7,0.8,3.3,0.8,5.1
				c0.1,1.7-1.3,3.8-2.9,3.3c1.4-2.4,1.2-5.6-0.5-7.8c-1.7-2.2-4.8-3.2-7.5-2.4c0.9,1.7,2.2,3.3,3.7,4.5c-1.5,1-2.3,2.9-2.1,4.6
				c1.8-0.1,3,2,2.6,3.7c-0.4,1.5-1.5,2.6-2.9,3.4l-2.7-0.5c-2.6-0.2-3.3-4.6-0.9-5.6c-4.1,0.6-7.1,5.2-5.9,9.2
				c-3.3-0.1-6.6,2.1-7.8,5.3c-2.1-0.8-3.8-2.7-4.3-4.9c-2.6-0.2-5.2,0.2-7.7,1.1c0.1,3.3,0.1,6.7-0.7,9.9c-0.9,3.2-2.9,6.3-6,7.6
				c-0.9,0.4-1.9,0.6-2.9,0.8c-2.4,0.3-5-0.2-7.4-0.7c-1,1.4,1.2,3.2,2.9,2.9c1.6-0.2,3-1.2,4.6-1.5c0.1,0,0.2,0,0.3,0
				c3.5-0.2,5.7,3.6,7,6.9c-2.8-2.2-7.7-0.5-8.4,3c-1-1.6-3.3-2.2-4.9-1.4c1-0.2,1.5,1.3,1.1,2.3c-0.4,1-1.3,1.6-1.7,2.6
				c-0.7,2,1,3.9,1.4,5.9c0.6,3.4-3,6.4-6.5,6.6c-3.5,0.2-6.7-1.7-9.7-3.4c-1.9,3.6-3.3,7.5-4.1,11.5c-2.3,0.8-5.3,1.1-7.8,1.7
				c-3.7,0.9-9.1,1.4-9.3,5.3c-3.1-2.4-6-5-8.7-7.8c-3,1-6.3,1-9.3,0.2c1.4,0.7,2.7,1.3,4.1,2c-0.7,1.8-1.3,3.5-2,5.3
				c1.3,1,2.7,2,4,2.9c-1.5,6-12,6.2-13.8,0.3c-1.6-0.2-3.2-0.8-4.4-1.9c0.7-1.9,0.9-4,0.7-6c-1.7,5-8,6.2-12.5,8.9
				c-4.6,2.8-7.8,7.9-8.1,13.3c-3.3,1.1-7.2-0.3-9-3.2c-1.9-2.9-1.5-7,0.8-9.5c-3.4,0.6-6.6,1.8-9.7,3.4c-1.6,0.8-3.4,2.1-3.4,4
				c-0.1,1.8,3,3,3.6,1.3c0.5,1.7-0.9,3.6-2.6,3.6c0.5,1.8,2.3,3.1,4.1,3.1c1.2,2.9-2.4,6-5.5,5.2c-3-0.8-4.9-3.8-5.7-6.8
				c-3.4-1-7.3,0.7-9,3.7c3.6,1.1,7,2.9,10,5.2c0.1,3.2-3.3,5.9-6.4,5.2c0.4,1.8,0.2,3.7-0.5,5.4c-1.5-0.4-3.1-0.9-4.6-1.3l-2.8-0.5
				c0.2-0.3,0.5-0.5,0.7-0.7c-2.1-1.2-4.1,0-5.8,1.9l-2.5-1.3c-2.4-0.7-4.9-1.4-7.3-2.2c0.7-1.4,1.3-2.8,2-4.1
				c-3.8-5.1-7.7-10.1-11.5-15.2c-6.5-3.7-11.6-9.6-14.3-16.5c-2.8,5.1,1.2,12.5,7,13c-2.3,3.2-6.8,4.6-10.5,3.3
				c5.7,2.6,9.5,8.8,9.3,15c-0.2,3.4,0.6,8.7,3.8,7.6c-2.7,1.9-1.6,6-0.5,9.1c1.1,3.1,1.1,7.7-2.1,8.4c-3.1,0.7-5.1-3.2-5.8-6.3
				c-1.9-0.4-3.7,1.2-4.1,3.1l-2.5-0.4c0.1-0.2,0.2-0.5,0.2-0.7c-2.8,0.9-4.4,4.2-3.5,6.9c-2.4-0.1-4.8-0.2-7.2-0.3
				c-0.8-2.4-1.6-4.8-2.3-7.2c-4,0.4-4.9,5.7-4.5,9.7c0.4,4,0.3,9.1-3.4,10.5c-2.4-0.4-4.1-3.3-3.3-5.6c-6.4,1.4-11.7,6.9-12.8,13.4
				c-5,0.1-10.1-2.2-13.3-6c2.2,3.6,0.2,9.1-3.9,10.3c-4.1,1.2-8.8-2.2-8.9-6.5c-4.3,3.4-11.4,2.2-14.3-2.5c-0.4,2.7,1.4,5.5,4,6.2
				c-1.4,1.8-2.8,3.7-4.2,5.5c2.5,1.2,5.4,1.8,8.2,1.8c-3.1,2.3-6.3,4.5-9.4,6.8c-1.9-2.2-4.6-3.7-7.5-4.2c-2,1.9-3.5,4.4-4.3,7.1
				c-5.3-0.5-10.5-1.1-15.2,2c-1.6,1.1-3.1,2.5-5,3.1c-4.8,1.4-10.1-3.3-14.6-1c-3,1.5-4.1,5.6-7.3,6.6c-2.6,0.8-5.5-0.8-7.9,0.4
				c-1.4,0.7-2.3,2.1-3,3.5c-3.7,7-6.3,14.5-7.7,22.3c-5.2-1.9-11.1-1.7-16.2,0.4c-0.2-1.9-1.3-3.7-2.9-4.8
				c-1.3,2.2-2.7,4.6-2.9,7.2c-0.1,2.6,1.4,5.5,4,6c2.3,0.4,4.5-1.2,6.8-1.2c3,0,5.6,3.1,5.1,6.1c-1.1,1.2-2.8,1.9-4.5,1.6
				c-1,1.8-0.1,4.5,1.8,5.3c1.9,0.8,4.4-0.4,5-2.4c1.5,2.8,3,5.7,4.6,8.5c0.6,1.1,1.2,2.4,1.2,3.7c-0.1,4.4-7.1,6.8-6.1,11
				c-4.4,0.5-8.8,1.1-13.2,1.6c-0.8,0.1-1.7,0.3-2,1c0,0.1-0.1,0.2-0.1,0.3c-4.3-1.9-9.6-1.3-13.4,1.4c-1.4-3.6-2.8-7.1-4.1-10.7
				c2.9-0.9,6.2,0.3,7.9,2.8c-1.1-4.5-5.5-8-10.2-8c0.9-1.3,0.1-3.1-0.9-4.3c-1-1.2-2.4-2.3-2.7-3.9
				C1780.9,2141.8,1781.7,2140.6,1782.5,2140.2z"/>
			<path class="st3" d="M2349.3,1427.6c0.1,1.1-0.4,2.4-0.9,3.4c-5.1-0.5-10.1-1.2-15.1-2.2c-4.8-1-9.6-2.2-13.6-5.1
				c-2.9-2.1-5.3-4.9-7.4-7.9c-2.1,0.9-4.4-1.9-6.6-1.3c-1.2,0.3-2,1.6-3.2,2c-1.9,0.6-3.6-1.3-4.8-2.8c-3.1-3.7-7.1-6.5-11.6-8.3
				c-0.3-0.1-0.6-0.2-0.9-0.3c0.1,0,0.1,0,0.1,0c9.7-1.8,20.4,6.4,29.3,7.7c-0.6,0.2-1.2,0.6-1.8,0.9c5.2,0.6,10.6,1.3,15.4,3.6
				c-1.2,0.5-0.6,2.3,0.6,2.9c1.1,0.6,2.5,0.5,3.4,1.4c0.4,0.4,0.7,0.9,1.2,1.3c0.8,0.7,2,0.7,3.1,0.7c3.6,0,7.1,0.6,10.5,1.6
				c0.6,0.2,1.3,0.4,1.7,0.9C2349.1,1426.4,2349.3,1427,2349.3,1427.6z"/>
			<path class="st4" d="M1981.8,1532.4c-16.6-10.8-23.2-33-35.2-49.5c-10.9-15.1-26.9-25.8-38.1-40.7c-8-10.6-13.3-23-21.2-33.7
				c-7-9.5-16-17.4-24.5-25.7c-25.7-24.8-48.3-52.8-67.2-83.1c-9.4-15.2-17.9-30.9-25.3-47.2c-3.1-6.6-7.6-12.7-10.4-19.2
				c-3.3-7.6-2.7-18.4-1.8-26.4c0.3-2.6,0.7-5.4-0.4-7.8c-0.8-1.9-2.4-3.4-3.6-5c-5.2-7-3.8-17-0.2-24.9c3.6-7.9,9.2-15,12-23.2
				c2.9-8.2,1.5-15.4-5.5-20.6c-4.8-3.6-7.5-9.7-7-15.6c0.4-4,2.1-7.8,3.8-11.5c10.4-22.9,19.6-46.3,27.5-70.1
				c2.1-6.3,4.2-13.2,4.5-19.8c0.3-6.3-2.3-10.6-5.1-16.4c-1-2.2-2.4-6.9-4.4-8.4c-1.8-1.4-3.8-0.4-6-1.3c-1.7-0.8-3.3-1.9-5.1-2.4
				c-1.4-0.3-2.9-0.2-4.3-0.2c-7.4,0-14.4-3.3-21.1-6.5c-0.8-0.4-1.6-0.8-2.2-1.5c-0.6-0.7-0.8-1.7-0.9-2.6c-0.4-3.8,0.3-7.6,1.9-11
				c1.3-2.6,3.1-5,4.3-7.7c1.6-3.6,1.8-7.6,2.7-11.3c0.9-3.6,3.3-7.7,6.6-10.1c5.6,6.6,8.5,15.3,18.6,18.6c2.5,0.8,5.1,1.3,7.6,2.2
				c2.5,0.9,4.8,2.1,7.2,3c8.2,3.2,17.1,3,25.6,2.1c8.5-0.8,12.4,1.7,20.3,4.8c13.6,5.4,30,9,43.5,1.3c12.7-7.2,17.5-25.6,35.1-22.9
				c6.6,1,12.3,4.9,18.1,8.2c8.2,4.6,18.8,3.2,26.1,8.7c1.6,1.2,2.9,2.7,4.7,3.5c3.3,1.5,7.2,0.4,10.6-0.8
				c16.8-5.9,32.8-13.7,47.8-23.3c3.8-2.5,7.7-5.1,12.1-6.1c5.1-1.2,10.7-0.2,15,2.8c1.9,1.3,3.6,3,5.7,3.9c2.7,1.2,5.8,1.1,8.7,0.9
				c13.4-0.9,26.6-3.4,39.4-7.4c12.3-3.8,15.8-9.6,24.1-19.5c16.2-19.1,34.2-36.8,53.7-52.5c9.4-7.6,19.3-14.9,30.6-19.5
				c16.8-6.9,51.8-8.5,51.5,18.4c-0.1,8.2-12.2,15.3-17.1,20.7c-9,9.7-5.5,6.3-19.2,6.9c-1.9,0.1-3.7,1.2-4.6,2.8
				c-1.4-1.4-3.9-0.9-5.3,0.5c-1.4,1.4-2,3.4-2.6,5.2c-1.4,0-2.9,0-4.3,0.1c-0.2,1.3-0.4,2.5-0.7,3.8c1.3,0.6,2.6,1.1,3.9,1.7
				c-1.1,3-4.5,5-7.7,4.5c0,2.8-0.9,5.7-2.5,8.1c-0.2,0.2-4.6,5.2-2.7,5.4c-1.7,0-3.2,1.5-3.2,3.2c0,1-0.2,2.6-1.1,2.2
				c1.2,0.7,1.9,2.2,1.7,3.6c-0.9-0.6-2.2,0.3-2.5,1.3c-0.4,1-0.2,2.1-0.4,3.2c-0.5,2.7-2.8,4.5-5,6.1c-8.3,5.9-16.5,11.8-24.8,17.7
				c-3.8,1-7.4,3.3-9.9,6.3c0.4,1.9,0.4,3.8,0.2,5.6c-2.9-0.1-5.7,2-6.5,4.8c-0.5,1.8-0.2,3.6-0.6,5.4c-0.4,1.8-1.7,3.7-3.6,3.5
				c1.2,0.1,1.8,1.5,1.8,2.6c0,1.2-0.4,2.4-0.2,3.5c0.1,0.8,0.6,1.4,0.8,2.1c0.6,2.2-0.8,4.5-2.1,6.5c-3.3,4.8-6.6,9.7-9.9,14.5
				c-1,0.4-2.1,0.1-2.9-0.6c0.3-1.3,0.5-2.5,0.8-3.8c-1.4-0.9-2.3,1.7-3.5,2.9c-1.8,1.7-4.7-0.1-7.2-0.2c-3.1-0.1-5.3,2.7-7.3,5
				c-2.8,3.4-7.9,6.7-11.2,3.8c0.3-5-6-8.4-10.9-7.2c-4.9,1.2-8.6,5.2-11.9,9c0.5,2.4,1.1,4.8,1.6,7.2c-6.1,7-7.5,17.8-3.3,26.1
				c3.1,6.2,8.8,10.7,14.6,14.5c3.6,2.3,7.5,4.6,11.8,5.1c7,0.8,14.8-2.7,20.6,1.2c3.3-4.2,8.5-6.9,13.9-7.1
				c0.2,1.6-0.1,5.7,1.4,6.6c1.1,0.7,3.6-0.8,4.5,0.2c1.5,1.8,3.2,4.3,3.6,6.7c0.4,2.1,1.3,4.1,2.3,6c0.2,0.4,0.3,0.7,0.6,1
				c0.2,0.2,0.3,0.4,0.5,0.6c1.1,1.2,1.9,3.4,1.8,5c-0.2,2.2-2.3,3.5-2.7,5.3c-1,4.7-1,9.6,0.1,14.3c0.5,2,1.2,4.1,2.5,5.7
				c1.3,1.5,3.2,2.4,5,3.1c7.4,2.7,15.6,1.7,23.4,0.3c2.8-0.5,5.8-1.1,8.2-2.7c2.4-1.6,4.3-4.4,3.9-7.2c-0.1-0.8-0.4-1.7-0.4-2.5
				c-0.3-3.8,3.5-6.3,6.6-8.5c3.2-2.3,6.1-5.2,8.5-8.5c1-1.3,1.9-2.8,1.8-4.5c-0.1-1.6-1.8-3.2-3.4-2.6c1.6-0.7,3.3-1.3,4.9-2.1
				c3.4-1.6,6.6-3.5,9.5-5.8c2-1.5,3.9-3.2,6.2-4.2c4.9-2,10.5,0,15.4,1.9c1.8,0.7,3.7,1.5,5,2.9c1.3,1.5,1.8,3.8,0.5,5.3
				c4,0.3,8-0.4,11.6-2c-0.9-1.1,0.4-3,1.7-2.6c-0.7,1.8-0.2,3.9,0.9,5.4c0.6,0.8,1.5,1.2,2.1,2c0.5,0.5,0.8,1.8,1.3,2.2
				c0.5,0.3,1.1,0.3,1.6,0.3c1,0,1.9,0,2.9-0.1c0.1,0,0.3,0,0.4-0.1c0.1-0.1,0.1-0.3,0.1-0.4c0-0.5,0-1.1,0-1.6c0-0.2,0-0.4,0.1-0.5
				c0.1-0.1,0.3-0.2,0.4-0.2c2.4-0.6,4.8-0.5,7.2-1c2.9-0.6,5.9-0.4,8.8-0.1c-0.2-0.9,0.2-1.8,0.6-2.7c1.1-2.3,2.5-4.9,5-5.5
				c1.6-0.4,3.7,1.1,3.8,2.7c0.1,0.7-1.6,4.1,0.7,3.9c1.3-0.1,2.5-0.9,3.1-2.1c0.8,0.6,1.6,1.3,2.4,1.9c1.8-0.3,3.6-1,5.3-1.2
				c1.9-0.2,3.6,0.9,5.5,0.9c1.3,0,2.6-0.6,3.3-1.6c0.1-0.2,0.2-0.4,0.4-0.6c1.5-1.5,7,1,4.8,2.9c-0.6,0.5-1.4,0.4-2.1,0.5
				c-1.9,0.5-2.7,3-2,4.9c0.7,1.8,2.3,3.2,3.9,4.3c-1.3,1-2.1,2.5-2.4,4.1c-1.6-0.9-3.9-0.3-4.8,1.3c-0.9,1.6-0.2,3.9,1.3,4.7
				c0.6,0.4,1.4,0.5,2,0.8c1.9,0.9,2.9,3.2,2.4,5.1c-0.5,2-2.6,3.4-4.6,3.2c0.7,1.2,0.8,2.7,0.2,4c-1.9,0.6-3.8,1.2-5.6,1.8
				c-1.5,0.5-3.2,0.9-4.6,0.3c-1.5-0.6-2.2-2.9-0.8-3.8c1.2,0.3,2.6,0.1,3.7-0.5c-2.6,0-5.1-2-5.7-4.6c-0.8,3-2.8,5.6-5.4,7.1
				c-0.6-2.7-2.9-4.9-5.7-5.3c2,1.8-0.3,5.1-2.7,6.4c-2.4,1.3-5.5,2.9-5.2,5.6c-2,0.2-3.9,0.5-5.9,0.7c1.5,1,2.1,3.1,1.5,4.8
				c-2.6-1.3-5.2-2.5-7.8-3.8c1.4,0.7,1.5,2.7,0.8,4.2c-0.7,1.4-1.9,2.5-2.6,3.9c-5.2,1.3-10.1,4.3-13.7,8.3
				c-1.2,1.7-3.6,1.8-5.5,1.3s-3.8-1.4-5.8-1.5c-0.1,0-0.3,0-0.4,0c-1.9,0.2-3.9,1.6-3.7,3.5c0.1,0.7,0.5,1.3,1.1,1.6
				c1.8,0.6,2.5-2.2,2.3-4.1c0,0,0.1,0,0.1,0c1,0.2,2.1,0.4,3.1,0.6c4.3,3.1,5,10.1,1.4,14c-2-0.8-3.5-2.6-3.9-4.7
				c-2.1,1.1-3.8,2.8-5,4.8c0.7,1.5,1.4,3.1,2.1,4.6c-0.9-0.1-1.9-0.1-2.8-0.2c1.2,3.7,2.8,7.3,4.5,10.8c-5.5,2.6-11,5.3-16.5,7.9
				c-0.4,0.2-0.8,0.4-1.3,0.4c-0.1,0-0.2,0-0.2,0c-1.5-0.2-1.9-2.5-1.4-4c0.6-1.6,1.6-3.2,1.1-4.8c-3.5,0.4-7.1,0.8-10.6,1.2
				c0.1,2.1,0.1,4.1,0.2,6.2c2.5-0.3,4.9,2.1,4.6,4.6c1.9-0.5,3.8-0.6,5.8-0.3c0.2,0,0.4,0,0.6,0.1c-1.7,4-5.4,7.1-9.7,8
				c-1.7,1.4-1.8,4-2.2,6.2c-0.3,2.2-1.5,4.8-3.8,5c0.1,2.4,0,4.7-0.3,7.1c-1.5,0.4-3.2-1-3.1-2.6c-0.8,1.6-1.3,3.3-1.3,5.1
				c-1.3,0.4-3.2-0.8-3.2-2.2c-3.9,0.5-4.8,6-5.1,9.2c-0.3,3.8-1.3,8.5-5,9.3c-0.5,0.1-1.1,0.2-1.6,0.5c-1.4,1.1-0.7,3.8-0.4,5.2
				c0.5,2,0.4,3.8,0.4,5.8c0,0.9-0.2,2.1-1.1,2.5c-0.4,0.2-0.9,0.1-1.3,0.1c-2-0.1-4.1,1.3-4.8,3.2c-1,2.7,0.4,5.6,0.4,8.5
				c0,1.1-0.2,2.2-0.1,3.4c0.1,1.1,0.5,2.3,1.5,2.9c0.2,0.1,0.4,0.2,0.6,0.4c1,1.5-2,2.4,1.1,3.6c2,0.8,3.9-0.5,5.6-1.7
				c1.4-1.3,3.8-0.5,5.1,1c1.3,1.5,1.9,3.4,3.1,4.9c1.5,1.9,3.7,2.9,5.9,3.8c1.1,0.5,2.4,1.1,3.6,1.3c1.2,0.3,2.5,0.1,3.7,0.6
				c1.3,0.5,2.3,1.6,3.6,2c2.7,0.7,5.6-1.9,8.2-0.9c0.5,0.2,1,0.5,1.4,0.8c1.7,1.2,3.7,3.2,5.6,4c2,0.9,4.2,0.3,6.2,1.5
				c1.9,1.2,3,3.2,4,5.2c2.3,4.6,4.5,9.2,6.4,14c1.6,3.8,2.6,8.5,5.9,11.2c1,0.8,2.1,1.6,2.7,2.8c0.5,1.2,0.1,2.9-1.1,3.3
				c2.3,3,4.6,5.9,7.4,8.4c1.4,1.2,2.9,2.3,3.6,4c0.8,1.7,0.6,3.6,1.3,5.3c0.7,1.7,3.1,2.9,4.3,1.6c0,1.9,0,3.7,0,5.6
				c2.3-0.9,4.9,2.1,3.8,4.3c0.7,0.2,1.3,0.4,2,0.6c-0.6,1.4,0.3,3.3,1.8,3.7c0.6,0.1,1.2,0.1,1.6,0.4c0.5,0.3,0.7,0.9,0.8,1.4
				c1.2,3.9,2.9,7,1.4,11c-0.5,1.4,0.3,2.9,0.6,4.3c0.4,1.4-0.1,3.5-1.6,3.5c1,2.9,4.5,3.9,7.5,4.5c2.2,0.5,4.5,0.9,6.7,1.4
				c0.6,0.1,1.4,0.2,1.7-0.4c0,0.9,0,1.9,0,2.8c3.4-0.4,6.8,0,10,1c2.7,0.9,5.4,2.5,6.6,5.1c1.3,2.9,0.3,6.3-0.7,9.3
				c1,0.4,1.9,0.7,2.9,1.1c0.2,1,0.2,2.1-0.2,3.1c6.5-1.1,13.4,0.6,18.6,4.5c5.2,4,8.8,10.1,9.5,16.6c-5.4,2.8-11.9,0.2-17.4-2.2
				c-2.8-1.2-6-2.4-9.1-2.8c0,0,0,0,0,0c-2.2-0.3-4.4-0.2-6.5,0.7c-8.9-1.2-19.6-9.4-29.3-7.7c-0.1,0-0.1,0-0.1,0
				c-4.4-1.5-9.5-1.8-13.3,0.7c-1.8,1.2-3.1,2.9-4.4,4.6c-0.6,0.8-1.2,1.5-1.8,2.3c-10.3,0.5-20-8.1-30.4-11.3
				c-22.1-6.8-44.3,12-55.3,32.3c-11,20.4-16.8,44.2-32.9,60.8c-7.7,8-17.4,13.9-24.3,22.6c-7.5,9.5-11,21.7-18.5,31.3
				c-8.4,10.8-21,17.3-33.2,23.5c-4.9,2.5-10,5-15.5,4.7c-15.2-0.7-21-20.3-33.3-29.3c-10.4-7.6-24.7-7-36.3-12.6
				C1984.6,1534.1,1983.2,1533.3,1981.8,1532.4z"/>
			<path class="st1" d="M2323,1682.7c-0.1,0.1-0.3,0.2-0.4,0.2C2322.7,1682.8,2322.8,1682.8,2323,1682.7z"/>
			<path class="st1" d="M2276,1409.2c-1.1,0.6-2.1,1.2-3.2,1.7C2273.5,1409.8,2274.7,1409.3,2276,1409.2z"/>
			<path class="st1" d="M2222.3,1867.1c1.3,1.5,2.6,4,0.9,5c-2.9-1-4.7-4.6-3.7-7.6l1.3-0.4
				C2221,1865.2,2221.6,1866.3,2222.3,1867.1z"/>
			<path class="st1" d="M2202.1,1899.3c0.7,0.8,0.8,1.8,0.7,2.8C2202.3,1901.3,2202,1900.3,2202.1,1899.3z"/>
			<path class="st1" d="M2191.2,1924.3c-0.2,0.1-0.4,0.2-0.6,0.3c1,1.4,0.6,3.6-0.7,4.7c-1.3,1.1-3.5,1-4.7-0.2
				c0.2-2.2,1.4-4.2,3.3-5.3L2191.2,1924.3z"/>
			<path class="st1" d="M2025,2029.5c0.4,3-4.3,4.5-6.3,2.4c-1.8-1.9-1.3-5.1,0.4-7.2l2.8,0.5
				C2021.3,2027.1,2022.9,2029.4,2025,2029.5z"/>
			<path class="st1" d="M2011.6,2024.5l2.5,1.3c-1.1,1.2-2.1,2.7-2.8,4c-2,3.3-8,5.7-8.8,1.8
				C2004.5,2028.3,2007.8,2025.7,2011.6,2024.5z"/>
			<path class="st1" d="M1977.5,2041.6c3-0.1,3.9,5.1,1.2,6.4c-2.7,1.3-6.2-1.3-6.2-4.3c1-1.4,1.8-2.9,2.4-4.5l2.5,0.4
				C1977.2,2040.3,1977.2,2041,1977.5,2041.6z"/>
			<path class="st1" d="M1981.8,1532.4c-5.8,8.4-14.2,14.4-19.2,23c-1.7,3-2.6,6.4-4.6,9.2c-1.6,2.3-3.8,4.2-6,6
				c-10.8,9.4-19.8,20.8-26.5,33.4c-6.4-5-14.3-8.2-22.4-9c-3.6-0.4-7.2-0.3-10.7-1.4c-6.7-2.1-11.3-8.2-14.9-14.3
				c-3.6-6.1-6.7-12.6-12.2-17c-5.5-4.4-14.3-5.6-19.2-0.6c-1.9,2-3.6,5-6.4,4.8c-4.3-7.8-8.8-15.8-15.4-22
				c-5.6-5.2-19.2-13.1-27-7.6c-2.5,1.8-3.2,5.8-5,8.3c-2.9,3.9-7.6,7.2-11.1,10.8c-15.2,15.4-28.8,32.3-40.5,50.4
				c-4.9,7.5-9.5,15.3-12,23.9c-2.9,10.1-2.7,20.8-2.3,31.2c1,24,3.1,47.9,6.4,71.7c1.6,11.9,3.5,18.3-0.5,29.5
				c-3.9,10.8-7.1,21.8-6,33.4c1.1,12.1,6.9,23.6,7.5,35.7c0.6,13.9-5.8,27.4-15,37.7c-9.3,10.3-21.2,17.8-33.5,24.3
				c-19.6,10.5-40.4,18.8-61.8,24.8c-20.4,5.7-41.3,6.5-61.4,12.1c-4.2,1.2-8.6,2.5-11.5,5.7c-11.9,13.4,7.5,27.5,12.6,37.5
				c0.6,1.1,0.7,2.4,0.8,3.6c0.5,6.7,0.5,14.1-3.9,19.1c-3.1,3.5-7.9,5.2-12.6,5.2c-4.7,0-9.2-1.4-13.5-3.3
				c-8.3-3.7-14.1-1.3-22.7-0.4c-9.8,1.1-20,1.6-29,5.7c-9,4.1-16.8,12.7-16.5,22.6l-0.6,0.6c-3.5-3.5-7.1-6.9-10.8-10.3
				c-3.8-3.5-7.5-7.1-11.3-10.6c-2.6-2.4-5.2-4.9-8.2-6.8c-3.3-2.1-6.9-3.5-10.6-4.8c-11.9-4.5-23.7-9-35.6-13.5
				c-6.3-2.4-12.7-4.8-18.8-7.8c-15.4-7.5-30.7-18.8-47.8-16.7c-17.7-11.9-39.1-15.3-59.6-19c-24.8-4.4-49.2-11.2-72.7-20.2
				c-7.6-2.9-15.4-6.2-20.4-12.6c-10-12.6-4.7-32.3,7.2-43.2s28.2-15.1,43.8-18.9c21-5.2,41.9-10.3,62.9-15.5
				c6.8-1.7,14-3.6,18.7-8.8c9-12,7.7-31.1,9.7-45.4c2.4-17.9,5.2-35.8,8.2-53.6c3.4-20.2,7.3-40.5,14.2-59.8
				c2.6-7.1,5.5-14.1,7.3-21.5c2.1-8.3,2.7-17.2,6.8-24.7c8.4-15.2,33.5-5.8,38.1-24c1.7-6.7-2-13.4-3.6-20.1
				c-3-12.4,1-25.4,0.8-38.2c-0.2-10.2-3.2-20.2-4.1-30.3c-1.6-18.9,4.1-37.8,3.7-56.8c-0.2-7.8-1.4-15.5-2.8-23.2
				c-1.3-6.8-4.1-14-4.5-20.9c-0.3-5.2,1.3-9.7-1.3-14.8c-2.5-4.9-7.7-8-9.6-13.1c-1.1-2.9-1-6.2-2.3-9.1c-1.7-3.7-5.4-6-8.7-8.5
				c-6.7-5.2-9-12.1-14.4-18.1c-7.6-8.3-17.2-15.4-25.6-22.9c-4.4-3.9-8.8-7.9-12-12.8c-4.1-6.1-6.1-13.3-7.5-20.5
				c-3.8-19.7-3.4-39.9-5.9-59.8c-1.4-11.6-3.9-23.1-6.3-34.5c-5.2-24.8-10.1-43.3-29.3-61.1c-16.6-15.4-35.5-28-52.4-42.9
				c-18.3-16.2-35.2-35.1-52.8-52.1c-7.4-7.2-15-14.5-24.4-18.6c-8.4-3.6-17.8-4.5-26.9-5.2c-10.2-0.9-21.1,0.2-31.1-1
				c-8.1-1-15.6-5.2-24.1-5.2c-12,0.1-22.8,6.6-34.3,10.1c-17.4,5.4-36.8,3.7-53-4.6c-44-22.5-32.4-104,6.2-124.2
				c14.9-7.9,32-10.4,48.8-12.5c14.8-1.8,30-3.4,44.7-0.9c6.8,1.2,13.7,3.2,20.5,2.3c22.2-3.1,34.1-27.4,51.1-38.9
				c15.6-10.5,34.5-16.9,51.6-24.5c5.9-2.6,12-5.2,18.4-5.4c10.6-0.3,20,6.1,28.7,12.2c16.5,11.7,32.4,21.1,46.3,35
				c5.4,5.4,13.6,6.8,21.2,8c39.9,6.4,79.1,17.6,116.4,33.4c11.6,4.9,23,10.2,35.2,13.4c9.5,2.5,19.2,3.7,28.8,5.5
				c19.2,3.6,38,9.9,57.4,12c19.4,2.1,40.5-0.6,55.7-12.9c5.1-4.1,9.4-9.3,15.1-12.5c8.9-5,20.5,0.2,30.1,0.8
				c15.6,1,30.8,2.1,46.2,4.7c25.1,4.3,50.1,10.4,72.8,21.9c2.8,1.5,5,3.4,6.9,5.6c-3.3,2.4-5.7,6.6-6.6,10.1
				c-0.9,3.8-1.2,7.8-2.7,11.3c-1.2,2.7-3,5-4.3,7.7c-1.7,3.4-2.3,7.3-1.9,11c0.1,0.9,0.3,1.9,0.9,2.6c0.6,0.7,1.4,1.1,2.2,1.5
				c6.7,3.2,13.7,6.5,21.1,6.5c1.4,0,2.9-0.1,4.3,0.2c1.8,0.4,3.4,1.6,5.1,2.4c2.2,1,4.2,0,6,1.3c2,1.5,3.4,6.2,4.4,8.4
				c2.7,5.8,5.3,10.1,5.1,16.4c-0.3,6.7-2.5,13.5-4.5,19.8c-7.9,23.9-17.1,47.3-27.5,70.1c-1.7,3.7-3.4,7.5-3.8,11.5
				c-0.5,5.9,2.2,12.1,7,15.6c7,5.2,8.4,12.4,5.5,20.6c-2.9,8.2-8.4,15.3-12,23.2c-3.6,7.9-5,17.9,0.2,24.9c1.2,1.7,2.8,3.1,3.6,5
				c1,2.4,0.6,5.2,0.4,7.8c-0.9,8.1-1.5,18.8,1.8,26.4c2.8,6.5,7.4,12.6,10.4,19.2c7.4,16.2,15.9,32,25.3,47.2
				c18.8,30.4,41.4,58.4,67.2,83.1c8.5,8.2,17.5,16.2,24.5,25.7c7.9,10.7,13.2,23.1,21.2,33.7c11.2,14.9,27.2,25.7,38.1,40.7
				C1958.6,1499.4,1965.2,1521.6,1981.8,1532.4z"/>
			<path class="st2" d="M1858.8,2197.5c0,0.6,0,1.1,0,1.7c-3.2-0.3-6.6,1.1-8.7,3.5c-0.8,0.9-1.4,2.1-1.1,3.3
				c-1.4,0.6-2.9-0.1-3.6-1.4c-0.8-1.5-0.1-2.4,1.2-3.2c-0.2-0.9-1.4-1.5-2.2-1.1c-0.1,2.9-0.6,5.8-1.3,8.7c-0.2,0.8-0.5,1.5-1,2.2
				c-0.6,0.7-1.4,1.1-2.1,1.5c-3.1,2-5.1,5.7-5.1,9.4c0,0.9,0.1,1.9-0.2,2.8c-0.8,3.1-4.8,3.6-8,3.6c1.7,0.9,3.6,2.1,4,3.9
				c0.1,0.8,0,1.6-0.2,2.4c-0.9,4.5-2,8.9-3.3,13.3c-0.5,0.5-0.7,1.1-0.5,1.8l0.8,1c0.6,2.7-1.5,5.3-3.9,6.5
				c-2.4,1.3-5.2,1.6-7.8,2.7c-4.7,2-8.3,6.4-9.2,11.4c-0.3,1.5-0.4,3.2-1.2,4.5c-0.8,1.3-2.7,2.2-4,1.3c-0.5-0.4-0.8-1-1.4-1.3
				c-0.7-0.4-1.5-0.2-2.2-0.1c-2.1,0.4-4.2,0.8-6.3,1.2c-1,0.2-2,0.4-2.8,1c-3.1,2.4,0.2,8.4-2.8,11c-0.5-1.4-2-2.4-3.5-2.1
				c-2.6,0-1,3.1-1.4,3.8c-0.3,0.4-1.6,0.2-2,0.2c-1.5-0.3-0.8-0.6-1.7-1.8c-0.4-0.5-1-0.9-1.7-0.7c-0.9,0.3-1.1,1.6-2,2
				c-0.6,0.3-1.5,0.1-1.8-0.6c-0.3-0.6,0-1.5,0.6-1.8c-0.5-1.7-1.3-3.7-3.1-4c-1-0.2-1.9,0.3-2.9,0.5c-3.1,0.6-6.3-1.1-9.4-0.4
				c-1.2,0.3-2.5,1-3.7,0.5c-1.4-0.5-1.8-2.2-1.7-3.7c-2.7,0-5.3,0.4-7.9-0.1c-2.4-0.4-4.7-1.3-6.8-2.5c-1.7-0.9-2.7-2.5-4.2-3.4
				c-2-1.2-5-1.4-7.2-2c-0.4-0.1-0.9-0.2-1.2-0.6c-0.3-0.4-0.3-1-0.2-1.5c0.7-4.7,2.3-10.1-0.6-13.9c-1.2-1.7-3.3-3.1-3.2-5.1
				c0.1-1.4,1.2-2.5,1.7-3.8c1.2-4-4.2-8.9-1.3-11.9c1.2,1,2.6-1.5,1.8-2.9c-0.8-1.4-2.5-2.2-2.9-3.8c-0.5-2.3,2.2-4.3,2-6.7
				c3.5,0.1,5.9-3,8.7-5.2c0.3-0.2,0.6-0.5,1-0.7c1.5-1,3.2-1.6,4.8-2.6c2.5-1.6,4.3-4.3,5-7.2c0.7,1.4,3,0.8,3.9-0.6
				c0.9-1.3,1.2-3.1,2.5-4.1c1,0.5,2,0.9,3,1.4c-0.3-1,0.3-1.9,1.2-2.6c0.7-0.6,1.6-1,2.5-1.3c1.9-0.6,4.2-1.9,3.9-3.8
				c-2.9,0.1-5.8,1.1-8.2,2.8c-1-3.2,1-6.9,4.2-7.9c0.1-1.1,0.1-2.2,0.2-3.3c3.4,1,6.7,2,10.1,3c2.5,0.8,5.5,1.4,7.6-0.3
				c-2.5-2.7-0.6-7.6,2.9-8.9s7.4,0.2,10.3,2.5c0-1.2,0.7-2.4,1.8-2.9c1,0.9,2,1.8,2.9,2.7c0.2-1.3,1.8-2.2,3-1.7
				c1.2,0.5,1.7,2.2,1,3.3c0.2,0.8,1.6,0.5,2-0.3c0.4-0.8,0.2-1.8,0.7-2.5c1.2-1.7,4.3-0.2,5.9-1.7c0.8-0.8,0.8-2.1,1.4-3
				c1.1-1.6,3.4-1.6,5.3-1.1c1.9,0.5,3.8,1.4,5.7,0.9c1-0.2,1.8-0.8,2.8-1.1c3.7-1,7.7,3.4,11.1,1.7c1-1.6,1.3-3.7,0.9-5.6
				c2.1-0.3,4.1-1.5,5.3-3.3c0.9,1.5,1.9,3.1,2.8,4.6c2.4,2.4,6.1,3.5,9.4,2.8c1.4-0.3,2.9,0.4,3.8,1.5c0.2,0.2,1.7,3.4,0.9,3.5
				c1-0.1,2,0.7,2.4,1.6c0.4,0.9,0.5,2,0.6,3c0.1,2.1,0.3,4.2,0.4,6.4c0.1,1.1,0.2,2.2,0.8,3
				C1856.6,2196.7,1857.7,2197.1,1858.8,2197.5z"/>
			<path class="st5" d="M1830.9,2247.9c1.2,1.8-1.8,4.5-3.4,3l-0.8-1c0.2-0.6,0.3-1.2,0.5-1.8
				C1828.1,2247,1830,2246.6,1830.9,2247.9z"/>
			<path class="st5" d="M1827.1,2248.1c-0.2,0.6-0.3,1.2-0.5,1.8C1826.5,2249.2,1826.7,2248.5,1827.1,2248.1z"/>
			<path class="st1" d="M1805.7,2166c-0.3,0.6-1.2,0-1.2-0.6C1804.9,2165.5,1805.3,2165.8,1805.7,2166z"/>
			<path class="st1" d="M1783.9,2140.4c-0.4-0.1-0.9-0.1-1.3-0.2C1783,2140,1783.5,2140.1,1783.9,2140.4z"/>
			<path class="st3" d="M1758,2196.1c0.3,1.9-2,3.2-3.9,3.8c-0.8,0.3-1.8,0.7-2.5,1.3l-1.8-2.3
				C1752.1,2197.1,1755,2196.1,1758,2196.1z"/>
			<path class="st1" d="M1598,2171c-0.1,0.1-0.3,0.2-0.4,0.2C1597.7,2171.1,1597.8,2171.1,1598,2171z"/>
			<path class="st1" d="M1554.8,2265.8c-0.2,0.1-0.4,0.1-0.6,0.2C1554.4,2265.9,1554.6,2265.8,1554.8,2265.8z"/>
		</g>
		<g>
			<path class="st6" d="M1554.8,2265.8c-0.2,0.1-0.4,0.1-0.6,0.2C1554.4,2265.9,1554.6,2265.8,1554.8,2265.8z"/>
			<path class="st6" d="M1598,2171c0.6-0.1,1.4,0.6,1.3,1.4c-0.2,0.9-1.1,1.5-1.9,2c-3.7,2-8.6,3.7-11.6,6.6c-2,1.9-4,4.6-5.7,6.8
				c-1.1,1.5-2.2,3.2-3.9,3.9c-1.7,0.8-4.3-0.1-4.3-2c-2.2,0.5-4.3,1.6-5.9,3.2c0.4,1.1,0.5,2.3,0.3,3.4c-2.9,1.9-1.8,6.4-3.6,9.3
				c-0.7,1.1-1.9,1.9-2.7,3c-3.2,4.2-0.1,10.3-1.4,15.4c-0.8,0.2-1.6,0.3-2.4,0.4c1.6,2.9,2.2,6.3,1.8,9.5c-1.2-0.8-2.8,0.5-3.2,1.9
				c-0.3,1.4,0.1,2.9,0,4.3c-0.2,2.7-2.5,5.1-5.2,5.4c-0.6,0.1-1.2,0.1-1.6,0.5c-0.2,0.3-0.2,0.6-0.3,0.9c-0.3,3.1-0.4,6.5,1.6,8.9
				c1,1.2,2.5,2,3.9,2.8c1.3,0.9,2.7,2,3.1,3.5c0.4,1.3-0.2,3-1.4,3.6"/>
			<path class="st6" d="M1598,2171c-0.1,0.1-0.3,0.2-0.4,0.2C1597.7,2171.1,1597.8,2171.1,1598,2171z"/>
			<path class="st6" d="M1782.5,2140.2c-0.7-0.1-1.3-0.2-2-0.2c0.2-2.5,0-5-0.5-7.4c-1.5,0.1-2.9,0.2-4.4,0.3
				c-1.2-9-0.2-18.3,2.7-27c0.5-1.6,1.1-3.1,2.2-4.3c1.6-1.8,4.1-2.7,6.5-2.4c0.5-1.8,0.3-3.8-0.4-5.5c-2.9,0.8-5.9,1.5-8.9,1.1
				c-3-0.4-6-2.3-6.7-5.3c-1.9-1.9-3.8-3.8-5.7-5.8c0.7-1.2,0.7-2.8,0-4.1c-2.2-0.4-3.2,3-2.1,5c1.1,2,3.1,3.6,3.4,5.8
				c0.5,3.2-2.9,5.8-6.1,6.4c-3.2,0.6-6.6,0.2-9.6,1.2c-2.9,1-5.3,3.4-8.3,3.9c-3,0.6-6.9-2.4-5.3-5.1c1.4-2.3,6.1-3.7,4.4-5.8
				c-6.4-1.7-12.9-3.3-19.3-5c-0.2-0.1-0.5-0.1-0.7-0.2c-3.1-0.8-6.4-1.7-8.8-3.8c-2.4-2.2-3.6-6-1.8-8.7c-2,0.8-4,1.7-6,2.5
				c1.8,2.5,3.6,5.1,4.3,8.1c0.7,3,0.2,6.5-2.2,8.5c-2.4,2-6.6,1.5-7.9-1.3c-0.7-1.6-0.4-3.4-0.8-5c-0.5-1.6-2.6-3-3.8-1.8
				c2.5,4.6,0.2,11.2-4.7,13.1c1.2-2.2,1.6-4.8,1.3-7.3c-3.7,2-7.4,3.9-11.1,5.9c1.2,0.8,2.4,1.5,3.6,2.2c-2,1.6-4.2,3.2-6.8,3.5
				c-2.6,0.3-5.5-1.4-5.5-4c-1.8,0-3.6,0.1-5.5,0.1c1.4,1.7,0.7,4.5-1.1,5.9c-1.7,1.4-4.1,1.8-6.2,2.1c0.2,1.7-0.2,3.4-1,4.9
				c-1.9-0.6-3.7-1.3-5.6-2c0,1.8-0.7,3.6-2,4.8c-2.1-1.8-6.2-3.2-6.9-0.5c-0.2,0.7,0,1.5,0.2,2.2c0.9,3,1.7,6.1,2.6,9.1
				c-2.2,3.7-6.7,5.7-10.9,4.9c-0.3,1.4-0.5,2.8-0.8,4.2c-2.5-0.5-4.9-1.1-7.4-1.6c1.8-1.1,2.9-3.3,2.7-5.4c-1.9-0.3-4,0.2-5.6,1.3
				c1.4,0.5,1.1,2.2,0,3.3c-0.6,0.6-1.3,1-2.1,1c-1.1,0-2.2-0.4-3.2-0.9c-1-0.5-2.1-1-3.2-1.2c-2.2-0.4-5,2-3.5,3.7
				c2,0.7,4.4,0.2,6-1.3c0.5,3.3,4.6,4.5,7.5,6.1c2.9,1.7,4.5,6.9,1.3,7.7c-3.1-2.5-6.8-4.3-10.6-5.2c-1.6-2.6-4.4-4.4-7.4-4.9
				c-0.6,3.8,0.9,7.9,3.7,10.5c-3.2,1.9-6.3,3.7-9.5,5.6c-1.1,2.1-3,3.7-5.2,4.6c2.5,4.6,4.3,11.4,0.2,14.2"/>
			<path class="st6" d="M1782.5,2140.2c0.4-0.2,0.9-0.2,1.3,0.2C1783.4,2140.3,1783,2140.3,1782.5,2140.2z"/>
			<line class="st6" x1="1782.5" y1="2140.2" x2="1782.5" y2="2140.2"/>
			<path class="st6" d="M1804.4,2165.4c-4.3-1.9-9.6-1.3-13.4,1.4c-1.4-3.6-2.8-7.1-4.1-10.7c2.9-0.9,6.2,0.3,7.9,2.8
				c-1.1-4.5-5.5-8-10.2-8c0.9-1.3,0.1-3.1-0.9-4.3c-1-1.2-2.4-2.3-2.7-3.9c-0.2-1,0.6-2.2,1.4-2.6"/>
			<path class="st6" d="M1804.4,2165.4c0,0.6,0.9,1.2,1.2,0.6C1805.3,2165.8,1804.9,2165.5,1804.4,2165.4z"/>
			<path class="st6" d="M2202.8,1902.2c-0.1,0.8-0.4,1.7-0.8,2.5c-0.8,1.7-1.9,3.3-2,5.2c-0.1,1.7,0.8,3.3,0.8,5.1
				c0.1,1.7-1.3,3.8-2.9,3.3c1.4-2.4,1.2-5.6-0.5-7.8c-1.7-2.2-4.8-3.2-7.5-2.4c0.9,1.7,2.2,3.3,3.7,4.5c-1.5,1-2.3,2.9-2.1,4.6
				c1.8-0.1,3,2,2.6,3.7c-0.4,1.5-1.5,2.6-2.9,3.4c-0.2,0.1-0.4,0.2-0.6,0.3c1,1.4,0.6,3.6-0.7,4.7c-1.3,1.1-3.5,1-4.7-0.2
				c0.2-2.2,1.4-4.2,3.3-5.3c-2.6-0.2-3.3-4.6-0.9-5.6c-4.1,0.6-7.1,5.2-5.9,9.2c-3.3-0.1-6.6,2.1-7.8,5.3c-2.1-0.8-3.8-2.7-4.3-4.9
				c-2.6-0.2-5.2,0.2-7.7,1.1c0.1,3.3,0.1,6.7-0.7,9.9c-0.9,3.2-2.9,6.3-6,7.6c-0.9,0.4-1.9,0.6-2.9,0.8c-2.4,0.3-5-0.2-7.4-0.7
				c-1,1.4,1.2,3.2,2.9,2.9c1.6-0.2,3-1.2,4.6-1.5c0.1,0,0.2,0,0.3,0c3.5-0.2,5.7,3.6,7,6.9c-2.8-2.2-7.7-0.5-8.4,3
				c-1-1.6-3.3-2.2-4.9-1.4c1-0.2,1.5,1.3,1.1,2.3c-0.4,1-1.3,1.6-1.7,2.6c-0.7,2,1,3.9,1.4,5.9c0.6,3.4-3,6.4-6.5,6.6
				c-3.5,0.2-6.7-1.7-9.7-3.4c-1.9,3.6-3.3,7.5-4.1,11.5c-2.3,0.8-5.3,1.1-7.8,1.7c-3.7,0.9-9.1,1.4-9.3,5.3c-3.1-2.4-6-5-8.7-7.8
				c-3,1-6.3,1-9.3,0.2c1.4,0.7,2.7,1.3,4.1,2c-0.7,1.8-1.3,3.5-2,5.3c1.3,1,2.7,2,4,2.9c-1.5,6-12,6.2-13.8,0.3
				c-1.6-0.2-3.2-0.8-4.4-1.9c0.7-1.9,0.9-4,0.7-6c-1.7,5-8,6.2-12.5,8.9c-4.6,2.8-7.8,7.9-8.1,13.3c-3.3,1.1-7.2-0.3-9-3.2
				c-1.9-2.9-1.5-7,0.8-9.5c-3.4,0.6-6.6,1.8-9.7,3.4c-1.6,0.8-3.4,2.1-3.4,4c-0.1,1.8,3,3,3.6,1.3c0.5,1.7-0.9,3.6-2.6,3.6
				c0.5,1.8,2.3,3.1,4.1,3.1c1.2,2.9-2.4,6-5.5,5.2c-3-0.8-4.9-3.8-5.7-6.8c-3.4-1-7.3,0.7-9,3.7c3.6,1.1,7,2.9,10,5.2
				c0.1,3.2-3.3,5.9-6.4,5.2c0.4,1.8,0.2,3.7-0.5,5.4c-1.5-0.4-3.1-0.9-4.6-1.3c-0.6,2,1,4.3,3.1,4.3c0.4,3-4.3,4.5-6.3,2.4
				c-1.8-1.9-1.3-5.1,0.4-7.2c0.2-0.3,0.5-0.5,0.7-0.7c-2.1-1.2-4.1,0-5.8,1.9c-1.1,1.2-2.1,2.7-2.8,4c-2,3.3-8,5.7-8.8,1.8
				c2-3.4,5.4-6,9.1-7.2c-2.4-0.7-4.9-1.4-7.3-2.2c0.7-1.4,1.3-2.8,2-4.1c-3.8-5.1-7.7-10.1-11.5-15.2c-6.5-3.7-11.6-9.6-14.3-16.5
				c-2.8,5.1,1.2,12.5,7,13c-2.3,3.2-6.8,4.6-10.5,3.3c5.7,2.6,9.5,8.8,9.3,15c-0.2,3.4,0.6,8.7,3.8,7.6c-2.7,1.9-1.6,6-0.5,9.1
				c1.1,3.1,1.1,7.7-2.1,8.4c-3.1,0.7-5.1-3.2-5.8-6.3c-1.9-0.4-3.7,1.2-4.1,3.1c-0.1,0.7-0.1,1.4,0.2,2c3-0.1,3.9,5.1,1.2,6.4
				c-2.7,1.3-6.2-1.3-6.2-4.3c1-1.4,1.8-2.9,2.4-4.5c0.1-0.2,0.2-0.5,0.2-0.7c-2.8,0.9-4.4,4.2-3.5,6.9c-2.4-0.1-4.8-0.2-7.2-0.3
				c-0.8-2.4-1.6-4.8-2.3-7.2c-4,0.4-4.9,5.7-4.5,9.7c0.4,4,0.3,9.1-3.4,10.5c-2.4-0.4-4.1-3.3-3.3-5.6c-6.4,1.4-11.7,6.9-12.8,13.4
				c-5,0.1-10.1-2.2-13.3-6c2.2,3.6,0.2,9.1-3.9,10.3c-4.1,1.2-8.8-2.2-8.9-6.5c-4.3,3.4-11.4,2.2-14.3-2.5c-0.4,2.7,1.4,5.5,4,6.2
				c-1.4,1.8-2.8,3.7-4.2,5.5c2.5,1.2,5.4,1.8,8.2,1.8c-3.1,2.3-6.3,4.5-9.4,6.8c-1.9-2.2-4.6-3.7-7.5-4.2c-2,1.9-3.5,4.4-4.3,7.1
				c-5.3-0.5-10.5-1.1-15.2,2c-1.6,1.1-3.1,2.5-5,3.1c-4.8,1.4-10.1-3.3-14.6-1c-3,1.5-4.1,5.6-7.3,6.6c-2.6,0.8-5.5-0.8-7.9,0.4
				c-1.4,0.7-2.3,2.1-3,3.5c-3.7,7-6.3,14.5-7.7,22.3c-5.2-1.9-11.1-1.7-16.2,0.4c-0.2-1.9-1.3-3.7-2.9-4.8
				c-1.3,2.2-2.7,4.6-2.9,7.2c-0.1,2.6,1.4,5.5,4,6c2.3,0.4,4.5-1.2,6.8-1.2c3,0,5.6,3.1,5.1,6.1c-1.1,1.2-2.8,1.9-4.5,1.6
				c-1,1.8-0.1,4.5,1.8,5.3c1.9,0.8,4.4-0.4,5-2.4c1.5,2.8,3,5.7,4.6,8.5c0.6,1.1,1.2,2.4,1.2,3.7c-0.1,4.4-7.1,6.8-6.1,11
				c-4.4,0.5-8.8,1.1-13.2,1.6c-0.8,0.1-1.7,0.3-2,1c0,0.1-0.1,0.2-0.1,0.3"/>
			<path class="st6" d="M2202.8,1902.2c-0.5-0.9-0.7-1.8-0.7-2.8C2202.7,1900.1,2202.9,1901.1,2202.8,1902.2z"/>
			<path class="st6" d="M2323,1682.7c0.5-0.1,1.1-0.1,1.5,0.1c0.1,2.1,0.2,4.3,0.3,6.4c0,0.5,0,1.1-0.2,1.5
				c-0.4,0.7-1.3,0.9-2.2,1.1c-1.5,0.3-3.2,0.5-4.4-0.4c-0.4-0.3-0.8-0.7-1.2-1.1c-0.8-0.6-1.8-0.9-2.8-1.3c-0.9-0.4-1.7-0.9-2-1.8
				c-0.2-0.6-0.3-1.4-0.9-1.5c-0.4,0-0.7,0.3-0.9,0.5c-0.8,0.9-1.6,1.8-2.3,2.6c-0.6,0.7-1.2,1.4-1.4,2.3c-0.1,0.9,0.6,2,1.5,1.9
				c0.6-1.3,1.4-2.8,2.8-3.3c1-0.2,2.1-0.2,3,0.1c0.9,0.2,1.7,0.7,2.4,1.2c0.7,0.6,1.3,1.3,1.8,2.1c0.9,1.3,1.7,2.9,1.3,4.5
				c-0.3,1.3-1.6,2.4-3,2.5c-1.4,0.1-2.8-0.8-3.3-2.1c-0.1,1.1-0.1,2.2-0.1,3.3c0,0.2,0,0.5,0,0.7c-0.1,2.7-0.2,5.4-0.8,8
				c-0.1,0.6-0.4,1.3-0.9,1.6c-1.3,0.6-3.2-1.2-4,0c-0.2,0.3-0.2,0.8-0.4,1.2c-0.6,1.1-2.3,0.4-3.4,0.9c-1,0.5-1.1,2.3-0.1,2.8
				c0.9,0.5,2,0,3-0.2s2.4,0.2,2.4,1.3c-0.1,0.7-0.8,1.1-1.4,1.1c-0.1,0-0.1,0-0.2,0c-0.6,0-1.1-0.2-1.7-0.3c-1-0.2-2.3-0.1-2.9,0.7
				c-0.7,0.8-0.1,2.4,1,2.3c0.3,0,0.5-0.2,0.8-0.3c0.9-0.4,1.9-0.6,2.8-0.6c0.6,0,1.3,0.1,1.9,0.4c0.2,0.1,0.5,0.2,0.6,0.4
				c0.1,0.2,0.1,0.4,0.1,0.6c-0.1,1.2-0.3,2.6-0.2,3.8c0.1,0.5,0.6,1.5,0.4,1.9c-0.6,1-6.2,2-7.4,2.4c-1.2,1.9-2.3,3.7-3.5,5.6
				c-0.6,0.9-2,0.6-2.8-0.3c-0.3-0.3-0.5-0.7-0.6-1c-0.4-1.5,0.2-3.1-0.1-4.6c-0.4-2.7-3.7-4.6-6.3-3.5c-1,0.4-1.9,1.2-3,1.3
				c-2.9,0.2-5.6-4.5-7.7-2.6c2.6,2,3.8,5.7,2.8,8.8c3.7-2.8,9.6-1.3,12.2,2.4c0.6,0.8,0.9,1.7,1.1,2.7c0.1,0.6,0.2,1.2-0.1,1.7
				c-0.4,0.7-1,0.9-1.7,0.9c-1.4,0-3.2-0.7-4.5,0c-1.4,0.7-1.6,2.7-0.8,4c0.8,1.3,2.2,2.1,3.6,2.8c0.5-2,1.2-4.2,2.8-5.4
				c0.1-0.1,0.2-0.2,0.3-0.2c1.8-1.2,5.1-0.1,4.8,2.1c1.2-0.2,2.4-0.4,3.6-0.7c0.4,1.5-1.2,2.8-2.7,3.4c-1.5,0.6-3.2,1-4,2.3
				c-0.4,0.6-0.5,1.3-1,1.8c-0.6,0.5-1.4,0.6-2.2,0.7c-3.4,0.7-5.8,4.4-5.1,7.8c0.2,0.9,0.6,1.9,0.4,2.8c-0.1,0.6-0.5,1.1-0.6,1.6
				c-0.3,2.8,5,1.9,6.5,4.3c-1.3,4-3.5,7.6-6.2,10.8c2.3,1.2,3.5,4.2,2.6,6.6c-0.9,2.4-3.8,3.9-6.3,3.3c0.7,1.5,1.5,3.1,2.2,4.6
				c0.7-1.4,2.6-1.9,4.1-1.4s2.5,1.8,3.4,3.2c1.5,2.4,2.3,5.2,2.7,8c0.1,0.6,0.1,1.3-0.2,1.8c-0.3,0.5-0.9,0.7-1.5,0.8
				c-1.8,0.6-3.7,1.1-5.4,0.4s-2.6-3.3-1.1-4.4c-2.4,0.2-4.3-1.8-6.6-2.7c-2.2-0.9-5.8,0.6-4.8,2.8c1.3,0.1,2.2,1.7,1.6,2.8
				c-1.7,0.3-3.6-1-3.9-2.8c-2.4,0.7-5,1.8-5.7,4.2c-0.8,2.3,2.2,5.3,4.1,3.6c-0.1,1-0.3,2-0.4,3c0.3,1,1.8,0,2.5-0.8
				c1.4-1.5,4.2-1.7,5.4,0c1.2,1.7-0.3,4.6-2.3,4.2c0.5,0.8,1,1.6,1.5,2.3c-2.7,2.3-7.3,2-9.7-0.7c-0.3,2.1-0.6,4.2-0.9,6.2
				c-0.9,0.7-2.5,0.4-3.1-0.6c-0.6-1-0.1-2.5,1-3c-0.9-1.8-4-1.7-4.7,0.2c-1.1-0.7-1.8-1.9-1.8-3.2c-1.3,0.3-2.6,0.6-3.9,0.9
				c2.1,1.1,4.2,2.6,4.8,4.8c0.6,2.3-1.6,5.1-3.8,4.2c-0.3,1.4,1.4,2.4,2.8,2.4s2.8-0.6,4.2-0.3c3,0.6,3.4,5.7,0.6,6.8
				c-0.6-0.6-1.2-1.1-1.8-1.7c-1.2,0-2.2,1.2-2,2.3c1.3-0.4,2.8,0.4,3.4,1.7c-3.9,0.2-8.1,0.5-11.2,2.9c-0.5,0.4-1.1,1-1.7,1.1
				c-0.1,0-0.3,0-0.4,0c-1.8,0-2.6-2.6-2.7-4.5c-0.6,1.5-1.2,3.1-1.8,4.6c-0.4,1.1-0.8,2.4-0.2,3.3c1.1,1.8,3.9,0.4,5.4-1
				c1.6,0.2,2.5,2.2,2.3,3.8c-0.3,1.6-1.4,3-2.4,4.2c-1-0.8-2.6-0.3-3.1,0.8s0.4,2.6,1.6,2.8c0.5,2.5-1.4,6.2-4.2,6.5
				c-1.8,0.1-1.3-1-2.5-2.2c-1-1-2.4-1.6-3.7-1.7c-2.6-0.1-5.1,1.2-7.5,2.4c-2.6,1.2-5.2,2.2-7.9,3.1c0.7-1.5-0.6-3.6-2.3-3.6
				c-0.9,0.3-1.1,1.1-1,2c0.1,1,0.7,2.2,1.4,2.9c1.3,1.5,2.6,4,0.9,5c-2.9-1-4.7-4.6-3.7-7.6c-1.6,0.7-3.2,1.5-4.8,2.2
				c0.9,0.6,1.7,1.2,2.6,1.8c-0.1,1-0.2,2-0.3,3c-3.8,1.1-7.8,1.7-11.8,1.7c-0.1,2.5,2.9,3.9,5.4,3.6c2.4-0.3,4.7-1.5,7.1-1.7
				c0.1,1.1,0.2,2.2,0.3,3.4c1.3-1.7,4.3-0.6,4.9,1.5c0.6,2-0.5,4.2-1.9,5.8c-1.8,2-4.8,3.4-7.2,2.1c0.6,3.9,0.1,8-1.6,11.7
				c-1.6,0.4-3.2,0.6-4.8,0.4c0.6,1.7,0.4,3.7-0.6,5.2c-1.8-0.2-3.3-1.4-4.1-3"/>
			<path class="st6" d="M2323,1682.7c-0.1,0.1-0.3,0.2-0.4,0.2C2322.7,1682.8,2322.8,1682.8,2323,1682.7z"/>
			<path class="st6" d="M2325.7,1641.1L2325.7,1641.1c0.4,0,0.4,0.7,0.6,1.1c0.2,0.6,1.1,0.6,1.7,0.3s1.1-0.7,1.8-0.7
				c0.8,0.1,1.3,0.9,2,1.1c0.8,0.2,1.8-0.3,2.4,0.2c0.2,0.2,0.3,0.4,0.4,0.6c0.3,0.8,0.3,1.8,0.3,2.7c0,0.7,0,1.4-0.3,2.1
				c-0.2,0.4-0.4,0.7-0.7,1c-0.5,0.7-1.1,1.4-1.6,2.1c-0.8,1-1.7,2.2-1.9,3.4c-0.2,0.9,0.3,2-0.3,2.7c-0.9,0.9-3.6,0.9-4.6,0.2
				c0.6,0.5,0.4,1.4,0.4,2.2c0.1,1.2,1,2.1,1.5,3.2c0.5,1.1,0.3,2.8-0.9,2.9c-0.5,0.1-1-0.2-1.5,0.1c-0.3,0.1-0.4,0.4-0.5,0.7
				c-0.6,1.9,0,4.2,1.6,5.4c1-0.9,2.8-0.4,3.2,0.9c0.2,0.6,0.1,1.3-0.1,1.9c-0.3,1.3-0.6,2.7-0.9,4.1c-0.1,0.2-0.1,0.5-0.3,0.7
				c-0.2,0.2-0.5,0.1-0.8,0.1c-1.2-0.2-2.5-0.3-3.7-0.5c0.8,0.8,0.5,2.4-0.5,3"/>
			<path class="st6" d="M2375.5,1566.4C2375.5,1566.4,2375.5,1566.4,2375.5,1566.4c0,1.3-1.4,2.2-2.6,2.1c-1.3-0.1-2.4-0.9-3.4-1.6
				c1.9-4,0.9-9.1-2.3-12.1c0.7,2.1,0.9,4.5,0.1,6.6c-0.8,2.1-3,3.7-5.2,3.4c-0.5-0.1-1-0.2-1.3-0.6c-0.6-0.6-0.5-1.6-0.9-2.3
				c-0.8-1.3-3.1-0.8-3.8,0.6c-0.7,1.4-0.5,3-0.2,4.6c-1.4,0.2-2.8,0.5-4.1,0.7c2.5,4.4,11.2,2,12.9,6.8c0.3,0.7,0.3,1.5,0.3,2.3
				c1.6-0.2,3.1,1.2,3.2,2.8c-1.8-0.1-3.6-0.1-5.4,0.1c-2.3,0.2-4.5,0.7-6.7,1.3c-0.7,1.7,1.9,2.8,3.6,2.4c1.1-0.3,2.2-0.8,3.3-0.9
				c0.7-0.1,1.3,0,1.9,0.3c0.1,2.8,1.4,5.2,0.3,8c-0.6,1.5-3.9,5.8-6.1,4.9c3.3,1.4,0.9,7.9,4.3,9.3c0.5,0.2,1.1,0.3,1.6,0.5
				c2.1,1.1,1,4.6,2.5,6.3c0.6,0.7,1.6,1.1,2.4,1.7c2.2,1.7,1.4,5.8-1.2,6.7c-1-1.4-2.1-2.8-3.6-3.5s-3.7-0.5-4.5,1
				c-0.5,2.4-0.9,4.9-1.4,7.3c-0.2,1-0.4,2.1-1.3,2.7c-1.9,1.4-4.3-1.1-5.3-3.3c-0.9-1.9-1.7-3.9-2.5-5.8c-1.4-0.1-2.8-0.5-3.9-1.3
				c-1.2,2.3-3.4,4.2-5.9,4.9c1.6,0.1,3.2,0.3,4.7,0.5c1.1,2-0.2,4.6-1.8,6.3c-1.5,1.8-3.3,3.7-3.2,6c0.1,1.4,1,2.8,0.7,4.2
				c-0.3,1.5-1.6,2.2-3,2.4c-1.1,0.2-3.2,0.4-4.2,0.2c-0.8-0.1-1.4-0.6-2.1-0.9c-1.9-0.9-4.2-0.7-5.8,0.6"/>
			<path class="st6" d="M2320.9,1412.1c-2.2-0.3-4.4-0.2-6.5,0.7c-0.6,0.2-1.2,0.6-1.8,0.9c5.2,0.6,10.6,1.3,15.4,3.6
				c-1.2,0.5-0.6,2.3,0.6,2.9c1.1,0.6,2.5,0.5,3.4,1.4c0.4,0.4,0.7,0.9,1.2,1.3c0.8,0.7,2,0.7,3.1,0.7c3.6,0,7.1,0.6,10.5,1.6
				c0.6,0.2,1.3,0.4,1.7,0.9c0.5,0.5,0.7,1.1,0.7,1.7c0.1,1.1-0.4,2.4-0.9,3.4c-5.1-0.5-10.1-1.2-15.1-2.2c-4.8-1-9.6-2.2-13.6-5.1
				c-2.9-2.1-5.3-4.9-7.4-7.9c-2.1,0.9-4.4-1.9-6.6-1.3c-1.2,0.3-2,1.6-3.2,2c-1.9,0.6-3.6-1.3-4.8-2.8c-3.1-3.7-7.1-6.5-11.6-8.3
				c-0.3-0.1-0.6-0.2-0.9-0.3c-4.4-1.5-9.5-1.8-13.3,0.7c-1.8,1.2-3.1,2.9-4.4,4.6c-0.6,0.8-1.2,1.5-1.8,2.3c-1.3,1.7-2.7,3.4-4,5.1
				c3.3-0.6,6.5-1.9,9.2-3.9c1-0.7,2-1.8,1.8-3c0,0,0.1-0.1,0.1-0.1c0.7-1,1.9-1.5,3.2-1.7c0.7-0.1,1.4-0.1,2.1-0.1
				c2,0.2,4.1,0.5,5.9-0.4c4.4,0.8,7.6,5.6,6.5,10c0.8,3,4.8,4.6,7.4,2.9c0.5-0.3,1.1-0.8,1.7-0.9c0.6-0.1,1.2,0,1.8,0.2
				c3.6,1.1,7.1,2.2,10.7,3.3c4,3.7,8,7.4,12.7,10.3c3.9,2.4,8.2,4.1,12.7,5.1c0.7,0.2,1.5,0.3,2.1,0.7c0.6,0.3,1,0.8,1.5,1.3
				c5.7,6.2,12.8,12.5,14.7,21.1c0.3,1.2,0.3,2.8-0.6,3.6c-0.7,0.6-1.8,0.6-2.7,0.6c-3.9-0.1-7.9,0-11.6,1.2
				c-3.7,1.2-7.2,3.9-8.5,7.6c-0.4,1-0.6,2.2-1.2,3.1c-1.4,1.9-4.1,2-6.2,3.1c-2.2,1.1-3.7,3.5-3.8,5.9c-2.2,0.3-4.4,0.6-6.6,0.9
				c-1.4,2.1-1.6,4.7-1.7,7.2c-0.1,2.5-0.2,5.1-1.6,7.2c-1.3,2.1-4.3,3.4-6.4,2.1c-0.8-0.5-1.4-1.3-2.2-1.8c-0.9-0.5-2-0.4-3-0.4
				c-5.4,0.2-11.8,0.9-14.7,5.5c-1.3,2.1-3.1,5.3-5.2,4.1c0.9,1.4,1.9,2.9,3.4,3.7c1.5,0.8,3.7,0.5,4.4-1.1c0.4-0.9,0.2-2,0.6-2.9
				c0.9-2.6,4.9-2.4,7-0.7c2.1,1.7,3.4,4.4,5.8,5.9c5,3.3,11.7-0.4,15.9-4.6c4.3-4.2,8.5-9.5,14.5-9.9c4.8-0.3,9.1,2.8,12.9,5.7
				c4.6,3.5,9.2,7,13.8,10.5c0.6-2.1,3.6-1.8,5.8-1.3c4.5,1.2,9.2,1.5,13.8,0.9c0.2,2-1.5,3.8-3.3,4.7c-1.8,1-3.9,1.5-5.4,2.9
				c-1.2,1.1-1.9,2.6-2.6,4.1c-1.3,2.7-2.5,5.4-3.8,8.2c3-0.2,6-1.4,8.3-3.4c1.8-0.1,2.8,2,2.9,3.8c0.1,1.8-0.2,3.7,0.7,5.2
				c0.5,0.8,1.4,1.6,1.2,2.6c-0.1,0.6-0.6,1-1,1.5c-1.7,1.9-1.5,5.2,0.4,7c0.6,0.6,1.4,1,1.9,1.6c1.4,1.9,0,4.4-1.4,6.3
				c0.5,0.2,0.9,0.4,1.4,0.7c1.3,0.9,2.4,2.1,2.5,3.6c0.2,2-2.4,4-4,2.7c0-1.3-0.1-2.5-0.1-3.8"/>
			<path class="st6" d="M2199,914.8C2199,914.8,2199,914.8,2199,914.8c-1.7,0-3.3,1.5-3.3,3.2c0,1-0.2,2.6-1.1,2.2
				c1.2,0.7,1.9,2.2,1.7,3.6c-0.9-0.6-2.2,0.3-2.5,1.3c-0.4,1-0.2,2.1-0.4,3.2c-0.5,2.7-2.8,4.5-5,6.1c-8.3,5.9-16.5,11.8-24.8,17.7
				c-3.8,1-7.4,3.3-9.9,6.3c0.4,1.9,0.4,3.8,0.2,5.6c-2.9-0.1-5.7,2-6.5,4.8c-0.5,1.8-0.2,3.6-0.6,5.4c-0.4,1.8-1.7,3.7-3.6,3.5
				c1.2,0.1,1.8,1.5,1.8,2.6c0,1.2-0.4,2.4-0.2,3.5c0.1,0.8,0.6,1.4,0.8,2.1c0.6,2.2-0.8,4.5-2.1,6.5c-3.3,4.8-6.6,9.7-9.9,14.5
				c-1,0.4-2.1,0.1-2.9-0.6c0.3-1.3,0.5-2.5,0.8-3.8c-1.4-0.9-2.3,1.7-3.5,2.9c-1.8,1.7-4.7-0.1-7.2-0.2c-3.1-0.1-5.3,2.7-7.3,5
				c-2.8,3.4-7.9,6.7-11.2,3.8c0.3-5-6-8.4-10.9-7.2c-4.9,1.2-8.6,5.2-11.9,9c0.5,2.4,1.1,4.8,1.6,7.2c-6.1,7-7.5,17.8-3.3,26.1
				c3.1,6.2,8.8,10.7,14.6,14.5c3.6,2.3,7.5,4.6,11.8,5.1c7,0.8,14.8-2.7,20.6,1.2c3.3-4.2,8.5-6.9,13.9-7.1
				c0.2,1.6-0.1,5.7,1.4,6.6c1.1,0.7,3.6-0.8,4.5,0.2c1.5,1.8,3.2,4.3,3.6,6.7c0.4,2.1,1.3,4.1,2.3,6c0.2,0.4,0.3,0.7,0.6,1
				c0.2,0.2,0.3,0.4,0.5,0.6c1.1,1.2,1.9,3.4,1.8,5c-0.2,2.2-2.3,3.5-2.7,5.3c-1,4.7-1,9.6,0.1,14.3c0.5,2,1.2,4.1,2.5,5.7
				c1.3,1.5,3.2,2.4,5,3.1c7.4,2.7,15.6,1.7,23.4,0.3c2.8-0.5,5.8-1.1,8.2-2.7c2.4-1.6,4.3-4.4,3.9-7.2c-0.1-0.8-0.4-1.7-0.4-2.5
				c-0.3-3.8,3.5-6.3,6.6-8.5c3.2-2.3,6.1-5.2,8.5-8.5c1-1.3,1.9-2.8,1.8-4.5c-0.1-1.6-1.8-3.2-3.4-2.6c1.6-0.7,3.3-1.3,4.9-2.1
				c3.4-1.6,6.6-3.5,9.5-5.8c2-1.5,3.9-3.2,6.2-4.2c4.9-2,10.5,0,15.4,1.9c1.8,0.7,3.7,1.5,5,2.9c1.3,1.5,1.8,3.8,0.5,5.3
				c4,0.3,8-0.4,11.6-2c-0.9-1.1,0.4-3,1.7-2.6c-0.7,1.8-0.2,3.9,0.9,5.4c0.6,0.8,1.5,1.2,2.1,2c0.5,0.5,0.8,1.8,1.3,2.2
				c0.5,0.3,1.1,0.3,1.6,0.3c1,0,1.9,0,2.9-0.1c0.1,0,0.3,0,0.4-0.1c0.1-0.1,0.1-0.3,0.1-0.4c0-0.5,0-1.1,0-1.6c0-0.2,0-0.4,0.1-0.5
				c0.1-0.1,0.3-0.2,0.4-0.2c2.4-0.6,4.8-0.5,7.2-1c2.9-0.6,5.9-0.4,8.8-0.1c-0.2-0.9,0.2-1.8,0.6-2.7c1.1-2.3,2.5-4.9,5-5.5
				c1.6-0.4,3.7,1.1,3.8,2.7c0.1,0.7-1.6,4.1,0.7,3.9c1.3-0.1,2.5-0.9,3.1-2.1c0.8,0.6,1.6,1.3,2.4,1.9c1.8-0.3,3.6-1,5.3-1.2
				c1.9-0.2,3.6,0.9,5.5,0.9c1.3,0,2.6-0.6,3.3-1.6c0.1-0.2,0.2-0.4,0.4-0.6c1.5-1.5,7,1,4.8,2.9c-0.6,0.5-1.4,0.4-2.1,0.5
				c-1.9,0.5-2.7,3-2,4.9c0.7,1.8,2.3,3.2,3.9,4.3c-1.3,1-2.1,2.5-2.4,4.1c-1.6-0.9-3.9-0.3-4.8,1.3c-0.9,1.6-0.2,3.9,1.3,4.7
				c0.6,0.4,1.4,0.5,2,0.8c1.9,0.9,2.9,3.2,2.4,5.1c-0.5,2-2.6,3.4-4.6,3.2c0.7,1.2,0.8,2.7,0.2,4c-1.9,0.6-3.8,1.2-5.6,1.8
				c-1.5,0.5-3.2,0.9-4.6,0.3c-1.5-0.6-2.2-2.9-0.8-3.8c1.2,0.3,2.6,0.1,3.7-0.5c-2.6,0-5.1-2-5.7-4.6c-0.8,3-2.8,5.6-5.4,7.1
				c-0.6-2.7-2.9-4.9-5.7-5.3c2,1.8-0.3,5.1-2.7,6.4c-2.4,1.3-5.5,2.9-5.2,5.6c-2,0.2-3.9,0.5-5.9,0.7c1.5,1,2.1,3.1,1.5,4.8
				c-2.6-1.3-5.2-2.5-7.8-3.8c1.4,0.7,1.5,2.7,0.8,4.2c-0.7,1.4-1.9,2.5-2.6,3.9c-5.2,1.3-10.1,4.3-13.7,8.3
				c-1.2,1.7-3.6,1.8-5.5,1.3s-3.8-1.4-5.8-1.5c-0.1,0-0.3,0-0.4,0c-1.9,0.2-3.9,1.6-3.7,3.5c0.1,0.7,0.5,1.3,1.1,1.6
				c1.8,0.6,2.5-2.2,2.3-4.1c0,0,0.1,0,0.1,0c1,0.2,2.1,0.4,3.1,0.6c4.3,3.1,5,10.1,1.4,14c-2-0.8-3.5-2.6-3.9-4.7
				c-2.1,1.1-3.8,2.8-5,4.8c0.7,1.5,1.4,3.1,2.1,4.6c-0.9-0.1-1.9-0.1-2.8-0.2c1.2,3.7,2.8,7.3,4.5,10.8c-5.5,2.6-11,5.3-16.5,7.9
				c-0.4,0.2-0.8,0.4-1.3,0.4c-0.1,0-0.2,0-0.2,0c-1.5-0.2-1.9-2.5-1.4-4c0.6-1.6,1.6-3.2,1.1-4.8c-3.5,0.4-7.1,0.8-10.6,1.2
				c0.1,2.1,0.1,4.1,0.2,6.2c2.5-0.3,4.9,2.1,4.6,4.6c1.9-0.5,3.8-0.6,5.8-0.3c0.2,0,0.4,0,0.6,0.1c-1.7,4-5.4,7.1-9.7,8
				c-1.7,1.4-1.8,4-2.2,6.2c-0.3,2.2-1.5,4.8-3.8,5c0.1,2.4,0,4.7-0.3,7.1c-1.5,0.4-3.2-1-3.1-2.6c-0.8,1.6-1.3,3.3-1.3,5.1
				c-1.3,0.4-3.2-0.8-3.2-2.2c-3.9,0.5-4.8,6-5.1,9.2c-0.3,3.8-1.3,8.5-5,9.3c-0.5,0.1-1.1,0.2-1.6,0.5c-1.4,1.1-0.7,3.8-0.4,5.2
				c0.5,2,0.4,3.8,0.4,5.8c0,0.9-0.2,2.1-1.1,2.5c-0.4,0.2-0.9,0.1-1.3,0.1c-2-0.1-4.1,1.3-4.8,3.2c-1,2.7,0.4,5.6,0.4,8.5
				c0,1.1-0.2,2.2-0.1,3.4c0.1,1.1,0.5,2.3,1.5,2.9c0.2,0.1,0.4,0.2,0.6,0.4c1,1.5-2,2.4,1.1,3.6c2,0.8,3.9-0.5,5.6-1.7
				c1.4-1.3,3.8-0.5,5.1,1c1.3,1.5,1.9,3.4,3.1,4.9c1.5,1.9,3.7,2.9,5.9,3.8c1.1,0.5,2.4,1.1,3.6,1.3c1.2,0.3,2.5,0.1,3.7,0.6
				c1.3,0.5,2.3,1.6,3.6,2c2.7,0.7,5.6-1.9,8.2-0.9c0.5,0.2,1,0.5,1.4,0.8c1.7,1.2,3.7,3.2,5.6,4c2,0.9,4.2,0.3,6.2,1.5
				c1.9,1.2,3,3.2,4,5.2c2.3,4.6,4.5,9.2,6.4,14c1.6,3.8,2.6,8.5,5.9,11.2c1,0.8,2.1,1.6,2.7,2.8c0.5,1.2,0.1,2.9-1.1,3.3
				c2.3,3,4.6,5.9,7.4,8.4c1.4,1.2,2.9,2.3,3.6,4c0.8,1.7,0.6,3.6,1.3,5.3c0.7,1.7,3.1,2.9,4.3,1.6c0,1.9,0,3.7,0,5.6
				c2.3-0.9,4.9,2.1,3.8,4.3c0.7,0.2,1.3,0.4,2,0.6c-0.6,1.4,0.3,3.3,1.8,3.7c0.6,0.1,1.2,0.1,1.6,0.4c0.5,0.3,0.7,0.9,0.8,1.4
				c1.2,3.9,2.9,7,1.4,11c-0.5,1.4,0.3,2.9,0.6,4.3c0.4,1.4-0.1,3.5-1.6,3.5c1,2.9,4.5,3.9,7.5,4.5c2.2,0.5,4.5,0.9,6.7,1.4
				c0.6,0.1,1.4,0.2,1.7-0.4c0,0.9,0,1.9,0,2.8c3.4-0.4,6.8,0,10,1c2.7,0.9,5.4,2.5,6.6,5.1c1.3,2.9,0.3,6.3-0.7,9.3
				c1,0.4,1.9,0.7,2.9,1.1c0.2,1,0.2,2.1-0.2,3.1c6.5-1.1,13.4,0.6,18.6,4.5c5.2,4,8.8,10.1,9.5,16.6c-5.4,2.8-11.9,0.2-17.4-2.2
				c-2.8-1.2-6-2.4-9.1-2.8"/>
			<path class="st6" d="M1554.8,2265.8c1.4-0.2,2.8,1.1,3.8,2.3c1.2,1.5,2.5,3.1,3,4.9c0.3,1.2,0.3,2.5,0.7,3.7
				c1.4,3.9,6.6,4.9,9,8.3c1.2,1.8,1.6,4.1,3.3,5.5c0.9,0.7,2,1.1,3.1,1.5c2.1,0.7,4.1,1.3,6.2,2c13.9,4.5-1,14.6-8.7,15.6
				c-6.3,0.8-12.8,1.6-19.1,0.4c-15.7-3-26.1-17.5-34.8-30.8c-5.1-7.7-10.2-15.4-13.9-23.8c-2.8-6.3-4.9-12.9-6.9-19.6
				c-3.4-11.6-6.5-23.4-9-35.2c-3.9-18.4-0.1-38.8,1.5-57.4c1.4-17,15.6-30.7,15-48.1c-0.3-9.9-5.8-18.8-11.2-27.2
				c-5.9-9.2-11.8-18.5-18.8-26.9c-4-4.8-8.3-9.4-12.8-13.8c-3.5-3.5-7.1-6.9-10.8-10.3c-3.8-3.5-7.5-7.1-11.3-10.6
				c-2.6-2.4-5.2-4.9-8.2-6.8c-3.3-2.1-6.9-3.5-10.6-4.8c-11.9-4.5-23.7-9-35.6-13.5c-6.3-2.4-12.7-4.8-18.8-7.8
				c-15.4-7.5-30.7-18.8-47.8-16.7c-17.7-11.9-39.1-15.3-59.6-19c-24.8-4.4-49.2-11.2-72.7-20.2c-7.6-2.9-15.4-6.2-20.4-12.6
				c-10-12.6-4.7-32.3,7.2-43.2s28.2-15.1,43.8-18.9c21-5.2,41.9-10.3,62.9-15.5c6.8-1.7,14-3.6,18.7-8.8c9-12,7.7-31.1,9.7-45.4
				c2.4-17.9,5.2-35.8,8.2-53.6c3.4-20.2,7.3-40.5,14.2-59.8c2.6-7.1,5.5-14.1,7.3-21.5c2.1-8.3,2.7-17.2,6.8-24.7
				c8.4-15.2,33.5-5.8,38.1-24c1.7-6.7-2-13.4-3.6-20.1c-3-12.4,1-25.4,0.8-38.2c-0.2-10.2-3.2-20.2-4.1-30.3
				c-1.6-18.9,4.1-37.8,3.7-56.8c-0.2-7.8-1.4-15.5-2.8-23.2c-1.3-6.8-4.1-14-4.5-20.9c-0.3-5.2,1.3-9.7-1.3-14.8
				c-2.5-4.9-7.7-8-9.6-13.1c-1.1-2.9-1-6.2-2.3-9.1c-1.7-3.7-5.4-6-8.7-8.5c-6.7-5.2-9-12.1-14.4-18.1
				c-7.6-8.3-17.2-15.4-25.6-22.9c-4.4-3.9-8.8-7.9-12-12.8c-4.1-6.1-6.1-13.3-7.5-20.5c-3.8-19.7-3.4-39.9-5.9-59.8
				c-1.4-11.6-3.9-23.1-6.3-34.5c-5.2-24.8-10.1-43.3-29.3-61.1c-16.6-15.4-35.5-28-52.4-42.9c-18.3-16.2-35.2-35.1-52.8-52.1
				c-7.4-7.2-15-14.5-24.4-18.6c-8.4-3.6-17.8-4.5-26.9-5.2c-10.2-0.9-21.1,0.2-31.1-1c-8.1-1-15.6-5.2-24.1-5.2
				c-12,0.1-22.8,6.6-34.3,10.1c-17.4,5.4-36.8,3.7-53-4.6c-44-22.5-32.4-104,6.2-124.2c14.9-7.9,32-10.4,48.8-12.5
				c14.8-1.8,30-3.4,44.7-0.9c6.8,1.2,13.7,3.2,20.5,2.3c22.2-3.1,34.1-27.4,51.1-38.9c15.6-10.5,34.5-16.9,51.6-24.5
				c5.9-2.6,12-5.2,18.4-5.4c10.6-0.3,20,6.1,28.7,12.2c16.5,11.7,32.4,21.1,46.3,35c5.4,5.4,13.6,6.8,21.2,8
				c39.9,6.4,79.1,17.6,116.4,33.4c11.6,4.9,23,10.2,35.2,13.4c9.5,2.5,19.2,3.7,28.8,5.5c19.2,3.6,38,9.9,57.4,12
				c19.4,2.1,40.5-0.6,55.7-12.9c5.1-4.1,9.4-9.3,15.1-12.5c8.9-5,20.5,0.2,30.1,0.8c15.6,1,30.8,2.1,46.2,4.7
				c25.1,4.3,50.1,10.4,72.8,21.9c2.8,1.5,5,3.4,6.9,5.6c5.6,6.6,8.5,15.3,18.6,18.6c2.5,0.8,5.1,1.3,7.6,2.2c2.5,0.9,4.8,2.1,7.2,3
				c8.2,3.2,17.1,3,25.6,2.1c8.5-0.8,12.4,1.7,20.3,4.8c13.6,5.4,30,9,43.5,1.3c12.7-7.2,17.5-25.6,35.1-22.9
				c6.6,1,12.3,4.9,18.1,8.2c8.2,4.6,18.8,3.2,26.1,8.7c1.6,1.2,2.9,2.7,4.7,3.5c3.3,1.5,7.2,0.4,10.6-0.8
				c16.8-5.9,32.8-13.7,47.8-23.3c3.8-2.5,7.7-5.1,12.1-6.1c5.1-1.2,10.7-0.2,15,2.8c1.9,1.3,3.6,3,5.7,3.9c2.7,1.2,5.8,1.1,8.7,0.9
				c13.4-0.9,26.6-3.4,39.4-7.4c12.3-3.8,15.8-9.6,24.1-19.5c16.2-19.1,34.2-36.8,53.7-52.5c9.4-7.6,19.3-14.9,30.6-19.5
				c16.8-6.9,51.8-8.5,51.5,18.4c-0.1,8.2-12.2,15.3-17.1,20.7c-9,9.7-5.5,6.3-19.2,6.9c-1.9,0.1-3.7,1.2-4.6,2.8
				c-1.4-1.4-3.9-0.9-5.3,0.5c-1.4,1.4-2,3.4-2.6,5.2c-1.4,0-2.9,0-4.3,0.1c-0.2,1.3-0.4,2.5-0.7,3.8c1.3,0.6,2.6,1.1,3.9,1.7
				c-1.1,3-4.5,5-7.7,4.5c0,2.8-0.9,5.7-2.5,8.1c-0.2,0.2-4.6,5.2-2.7,5.4"/>
			<path class="st6" d="M2321,1412.1c1.1-0.5,2.1-1.2,3.1-2.1"/>
			<path class="st6" d="M2320.9,1412.1C2320.9,1412.1,2320.9,1412.1,2320.9,1412.1"/>
			<path class="st6" d="M1760.8,926.8c-1.8,0.2-3.5,0.9-5,2c-3.3,2.4-5.7,6.6-6.6,10.1c-0.9,3.8-1.2,7.8-2.7,11.3
				c-1.2,2.7-3,5-4.3,7.7c-1.7,3.4-2.3,7.3-1.9,11c0.1,0.9,0.3,1.9,0.9,2.6c0.6,0.7,1.4,1.1,2.2,1.5c6.7,3.2,13.7,6.5,21.1,6.5
				c1.4,0,2.9-0.1,4.3,0.2c1.8,0.4,3.4,1.6,5.1,2.4c2.2,1,4.2,0,6,1.3c2,1.5,3.4,6.2,4.4,8.4c2.7,5.8,5.3,10.1,5.1,16.4
				c-0.3,6.7-2.5,13.5-4.5,19.8c-7.9,23.9-17.1,47.3-27.5,70.1c-1.7,3.7-3.4,7.5-3.8,11.5c-0.5,5.9,2.2,12.1,7,15.6
				c7,5.2,8.4,12.4,5.5,20.6c-2.9,8.2-8.4,15.3-12,23.2c-3.6,7.9-5,17.9,0.2,24.9c1.2,1.7,2.8,3.1,3.6,5c1,2.4,0.6,5.2,0.4,7.8
				c-0.9,8.1-1.5,18.8,1.8,26.4c2.8,6.5,7.4,12.6,10.4,19.2c7.4,16.2,15.9,32,25.3,47.2c18.8,30.4,41.4,58.4,67.2,83.1
				c8.5,8.2,17.5,16.2,24.5,25.7c7.9,10.7,13.2,23.1,21.2,33.7c11.2,14.9,27.2,25.7,38.1,40.7c12,16.5,18.6,38.6,35.2,49.5
				c1.3,0.9,2.8,1.7,4.2,2.4c11.6,5.6,25.9,5,36.3,12.6c12.2,9,18.1,28.6,33.3,29.3c5.5,0.2,10.6-2.3,15.5-4.7
				c12.2-6.2,24.8-12.7,33.2-23.5c7.5-9.6,11-21.8,18.5-31.3c6.8-8.7,16.6-14.6,24.3-22.6c16.1-16.7,21.8-40.5,32.9-60.8
				c11.1-20.4,33.2-39.2,55.3-32.3c10.4,3.2,20.1,11.8,30.4,11.3c1.2-0.1,2.5-0.2,3.7-0.6c1.2-0.3,2.3-0.8,3.5-1.3
				c1.1-0.5,2.1-1.1,3.2-1.7c2.9-1.7,5.8-3.4,9.1-4c0.1,0,0.1,0,0.1,0c9.7-1.8,20.4,6.4,29.3,7.7c2.3,0.3,4.4,0.2,6.5-0.7"/>
			<path class="st6" d="M1465.8,2026.8c-0.3-9.9,7.5-18.5,16.5-22.6c9-4.1,19.2-4.6,29-5.7c8.6-0.9,14.4-3.3,22.7,0.4
				c4.3,1.9,8.8,3.3,13.5,3.3c4.7,0,9.5-1.7,12.6-5.2c4.4-5,4.4-12.5,3.9-19.1c-0.1-1.2-0.2-2.5-0.8-3.6
				c-5.1-10-24.5-24.1-12.6-37.5c2.9-3.2,7.3-4.6,11.5-5.7c20.1-5.6,41-6.4,61.4-12.1c21.4-6,42.2-14.3,61.8-24.8
				c12.2-6.5,24.2-14,33.5-24.3c9.3-10.3,15.7-23.8,15-37.7c-0.5-12.2-6.3-23.6-7.5-35.7c-1.1-11.6,2.2-22.7,6-33.4
				c4-11.2,2.1-17.6,0.5-29.5c-3.3-23.8-5.4-47.7-6.4-71.7c-0.4-10.5-0.6-21.2,2.3-31.2c2.5-8.6,7.1-16.4,12-23.9
				c11.8-18.1,25.4-35,40.5-50.4c3.5-3.5,8.1-6.8,11.1-10.8c1.8-2.5,2.5-6.5,5-8.3c7.8-5.5,21.4,2.3,27,7.6c6.6,6.1,11,14.1,15.4,22
				c2.8,0.2,4.4-2.8,6.4-4.8c4.9-5,13.7-3.8,19.2,0.6c5.5,4.4,8.7,11,12.2,17c3.6,6.1,8.2,12.2,14.9,14.3c3.4,1.1,7.1,1,10.7,1.4
				c8.1,0.8,15.9,4,22.4,9c6.7-12.6,15.7-24,26.5-33.4c2.1-1.9,4.4-3.7,6-6c1.9-2.8,2.9-6.2,4.6-9.2c5.1-8.7,13.4-14.6,19.2-23
				c0.7-1,1.3-2,1.9-3"/>
		</g>
	</g>
</g>
<g id="cities">
	<circle class="st7" cx="337.5" cy="1042.6" r="5.2"/>
	<text transform="matrix(1 0 0 1 332.6211 1034.3765)" class="st8 st9">Khotan</text>
	<circle class="st7" cx="195.3" cy="855.2" r="5.2"/>
	<text transform="matrix(1 0 0 1 165.2752 881.043)" class="st8 st9">Kashgar</text>
	<circle class="st7" cx="1695.5" cy="1343.1" r="5.2"/>
	<text transform="matrix(1 0 0 1 1669.4578 1366.1162)" class="st8 st9">Changan</text>
	<circle class="st7" cx="753.5" cy="722.7" r="5.2"/>
	<text transform="matrix(1 0 0 1 737.9824 713.4842)" class="st8 st9">rmqi</text>
	<circle class="st7" cx="790.6" cy="1574.9" r="5.2"/>
	<text transform="matrix(1 0 0 1 781.692 1597.769)" class="st8 st10">Lhasa</text>
	<circle class="st7" cx="2189" cy="1423.7" r="5.2"/>
	<text transform="matrix(1 0 0 1 2180.7551 1446.713)" class="st8 st9">Jiankang</text>
	<circle class="st7" cx="1945.6" cy="1185.5" r="5.2"/>
	<text transform="matrix(1 0 0 1 1929.2822 1178.3872)" class="st8 st10">Ye</text>
</g>
<g id="text">
	<text transform="matrix(1 0 0 1 1888.8842 1264.535)"><tspan x="0" y="0" class="st11 st12">(Northern)</tspan><tspan x="71.7" y="86.4" class="st11 st13">Qi</tspan></text>
	<text transform="matrix(1 0 0 1 1902.491 1831.6027)" class="st11 st13">Chen</text>
	<text transform="matrix(1 0 0 1 1489.5068 1452.8521)"><tspan x="0" y="0" class="st11 st12">(Northern)</tspan><tspan x="25.4" y="86.4" class="st11 st13">Zhou</tspan></text>
	<text transform="matrix(1 0 0 1 938.278 1133.3717)"><tspan x="0" y="0" class="st11 st12">Western</tspan><tspan x="29.2" y="57.6" class="st11 st12">Turks</tspan></text>
	<text transform="matrix(1 0 0 1 1879.936 849.9845)"><tspan x="0" y="0" class="st11 st12">Eastern</tspan><tspan x="20.3" y="57.6" class="st11 st12">Turks</tspan></text>
</g>
</svg>
