<svg version="1.1" id="Layer_1" xmlns="http://www.w3.org/2000/svg" xmlns:xlink="http://www.w3.org/1999/xlink" x="0px" y="0px"
	 width="100%" viewBox="0 0 1024 544" enable-background="new 0 0 1024 544" xml:space="preserve">
<path fill="#000000" opacity="1.000000" stroke="none" 
	d="
M217.584869,452.393494 
	C232.222595,470.105133 251.534225,473.315460 272.518799,471.233704 
	C285.207306,469.974976 296.723694,465.181274 307.159607,458.008423 
	C310.861206,455.464233 312.868927,455.926819 314.959656,459.724548 
	C317.124481,463.656891 319.622131,467.424133 322.202484,471.103485 
	C324.104614,473.815735 323.869415,475.661133 321.208099,477.790649 
	C310.518585,486.344269 298.472076,492.415894 285.531403,496.414154 
	C265.091339,502.729584 244.265839,503.619385 223.448135,498.212219 
	C198.715240,491.788147 183.345825,475.459229 175.738861,451.533997 
	C168.532852,428.869812 168.700516,405.726044 171.347794,382.324036 
	C174.584244,353.713531 183.974197,327.298218 198.094147,302.415588 
	C205.019501,290.211548 213.269455,278.928406 222.398712,268.276917 
	C223.439102,267.063049 224.963882,266.098969 225.110107,264.196991 
	C223.799652,262.607178 222.354340,263.705505 221.023880,264.042480 
	C188.079132,272.386536 155.747681,282.742157 123.629601,293.793884 
	C118.906876,295.418945 114.268921,297.338684 109.465431,298.664429 
	C106.020523,299.615234 105.203125,301.523560 105.222923,304.819305 
	C105.339027,324.148224 105.275848,343.478180 105.275894,362.807800 
	C105.275978,403.300018 105.144775,443.793182 105.434570,484.283325 
	C105.474136,489.811249 103.457481,491.936554 98.607697,493.218597 
	C89.651123,495.586212 80.801422,498.358124 70.893112,501.258423 
	C70.893112,438.411865 70.893112,376.432037 70.893112,313.683990 
	C59.723076,317.643799 49.839733,321.928772 40.007156,326.329834 
	C31.798464,330.004028 23.652372,333.818085 15.446614,337.498962 
	C13.756221,338.257233 12.007118,340.071381 10.054240,337.998016 
	C8.241786,336.073761 9.029693,334.024475 9.864594,331.947632 
	C11.106540,328.858215 12.744512,325.819397 13.338975,322.597595 
	C15.624128,310.212769 23.939375,303.865326 34.873146,299.504059 
	C45.386856,295.310333 55.596367,290.357025 66.086456,286.099426 
	C69.618896,284.665741 70.805565,282.749420 70.785706,279.042114 
	C70.654495,254.547531 70.826965,230.050949 70.615219,205.557495 
	C70.578049,201.258026 72.011520,199.331100 76.042023,198.205902 
	C85.445549,195.580719 94.740326,192.566010 105.134117,189.386353 
	C105.134117,216.892212 105.134117,243.403229 105.134117,270.106842 
	C109.946480,270.305115 113.388496,268.462982 116.922112,267.230042 
	C166.939636,249.777573 217.533905,234.292114 269.184723,222.394272 
	C272.749146,221.573196 276.356201,220.907120 279.970245,220.339783 
	C283.639862,219.763748 286.265747,222.308273 284.786774,225.492157 
	C279.517181,236.836365 276.221832,248.908905 266.728912,258.407715 
	C243.235275,281.915924 223.526154,308.334595 212.553574,340.186951 
	C202.787552,368.536774 199.950912,397.585449 206.320267,427.165985 
	C208.267578,436.209717 211.954407,444.561493 217.584869,452.393494 
z"/>
<path fill="#000000" opacity="1.000000" stroke="none" 
	d="
M355.736267,384.839111 
	C354.221619,369.973083 353.295288,355.534760 353.653290,341.022675 
	C354.478638,307.566467 360.736542,275.432129 378.278137,246.459091 
	C398.844421,212.490189 428.522064,192.336517 469.000519,191.906479 
	C505.264679,191.521210 532.776733,208.606537 552.239441,238.705444 
	C567.661377,262.555298 575.237854,289.077698 577.477295,317.267792 
	C579.892822,347.675171 578.919434,377.799316 570.285278,407.301331 
	C562.512634,433.859344 549.814819,457.446198 528.866089,476.139862 
	C499.387207,502.445221 451.866516,510.288361 416.544312,490.541260 
	C398.868896,480.659668 385.960815,466.178558 376.120300,448.667725 
	C365.014282,428.904907 359.536041,407.383026 355.736267,384.839111 
M475.024872,225.457886 
	C460.051117,222.930374 445.544342,223.814362 431.838745,231.118790 
	C415.419800,239.869263 404.968292,253.859695 398.268311,270.633606 
	C384.180969,305.902374 383.539246,342.290894 390.772186,379.081573 
	C395.934204,405.338501 405.842194,429.368195 424.604126,449.140503 
	C442.740631,468.253723 471.669617,474.793976 495.728302,464.419525 
	C515.535522,455.878357 527.066895,439.409668 534.488831,420.131134 
	C547.444397,386.479034 548.672119,351.696411 542.266418,316.497925 
	C538.692261,296.858612 532.515808,278.114716 521.563660,261.230988 
	C510.455200,244.106369 496.384216,230.694046 475.024872,225.457886 
z"/>
<path fill="#000000" opacity="1.000000" stroke="none" 
	d="
M961.883301,444.132538 
	C981.398499,466.771301 999.471863,490.022705 1014.869080,515.305786 
	C1017.542297,519.695374 1017.041077,521.899231 1012.813843,524.365601 
	C1008.944397,526.623169 1005.276184,529.313293 1001.833679,532.189087 
	C998.700989,534.805969 996.818481,534.076538 994.578735,531.046021 
	C977.806641,508.351929 959.122559,487.283508 939.278564,467.265717 
	C906.485413,434.185303 871.893738,403.208771 832.719849,377.694305 
	C824.375977,372.259796 824.281799,367.646667 831.909607,360.982147 
	C874.036316,324.175537 913.220642,284.510773 948.288147,240.864334 
	C950.686035,237.879791 952.857849,234.712860 955.109497,231.612381 
	C955.391418,231.224213 955.517700,230.722992 955.828430,230.020157 
	C953.795959,228.822433 951.614075,229.318573 949.564880,229.316757 
	C909.565002,229.281281 869.565063,229.289124 829.565186,229.282043 
	C819.952148,229.280334 819.060852,228.000931 822.583008,219.242920 
	C825.254822,212.599411 828.041016,206.000504 830.613098,199.318909 
	C831.674805,196.560913 833.410828,195.644821 836.299011,195.647919 
	C890.798828,195.706436 945.298645,195.672974 999.798523,195.712646 
	C1005.341736,195.716675 1008.247009,201.627594 1005.379822,206.688416 
	C988.445068,236.580078 967.253723,263.295868 944.179871,288.594513 
	C930.930359,303.121460 917.603027,317.582977 903.423279,331.217896 
	C895.618347,338.722870 887.615112,346.021332 879.715820,353.428467 
	C877.674988,355.342163 875.265564,356.923126 873.776184,359.847778 
	C906.513916,384.263306 934.963806,413.146576 961.883301,444.132538 
z"/>
<path fill="#000000" opacity="1.000000" stroke="none" 
	d="
M649.673279,316.651489 
	C659.626648,308.201904 669.973022,300.904755 681.102966,294.800751 
	C685.243530,292.529938 686.820984,289.714966 686.778015,284.886536 
	C686.541931,258.388794 686.751404,231.887329 686.583374,205.388565 
	C686.557983,201.379578 687.744629,199.380081 691.666138,198.289078 
	C699.683594,196.058548 707.568726,193.355591 715.534058,190.931686 
	C717.070007,190.464294 718.656189,189.596420 721.051636,190.836639 
	C721.051636,217.877975 721.051636,245.281662 721.051636,272.734558 
	C724.226501,273.548553 726.189331,271.996063 728.196106,271.121582 
	C743.943604,264.259155 760.113464,258.563324 776.484070,253.410645 
	C780.981140,251.995193 782.248535,253.068283 781.414856,257.882660 
	C779.939636,266.402069 778.169189,274.871338 776.760986,283.401001 
	C776.216431,286.699066 774.421143,288.169220 771.431885,289.133606 
	C756.046448,294.097565 741.039673,300.042542 726.238831,306.553345 
	C722.444885,308.222260 721.183838,310.379669 721.192566,314.476868 
	C721.313965,371.142944 721.198486,427.809570 721.381409,484.475342 
	C721.398010,489.627777 719.665588,491.896271 714.838684,493.097717 
	C707.091370,495.026154 699.482117,497.510254 691.817993,499.771118 
	C690.391113,500.192047 689.001831,500.869171 686.705078,499.930878 
	C686.705078,442.871368 686.705078,385.503815 686.705078,327.174713 
	C677.906860,330.979065 671.129639,336.030487 664.170288,340.708313 
	C654.201050,347.409332 644.889648,354.974243 635.980835,363.034851 
	C634.687622,364.204865 633.467773,365.980988 631.302246,364.413666 
	C629.470154,363.087616 629.738342,361.344940 630.142090,359.464203 
	C631.817261,351.659912 633.564148,343.866821 635.007263,336.018585 
	C635.765137,331.897522 637.590027,328.512451 640.484253,325.622772 
	C643.430054,322.681519 646.429749,319.794189 649.673279,316.651489 
z"/>
<path fill="#000000" opacity="1.000000" stroke="none" 
	d="
M729.375732,107.596573 
	C745.588196,113.795929 753.844116,111.532440 764.074524,98.189102 
	C766.402161,95.153244 768.483826,91.928810 770.679443,88.791664 
	C771.346741,87.838249 771.880981,86.742645 772.710938,85.961563 
	C774.984558,83.821678 781.023865,85.017494 785.904480,88.929924 
	C788.895020,91.327255 793.008545,93.729607 790.359253,98.690498 
	C784.468445,109.721413 778.202393,120.539459 769.316589,129.516541 
	C754.177612,144.811295 737.447205,147.646362 717.782898,138.623825 
	C707.616272,133.959106 698.255981,127.863419 688.440796,122.578354 
	C671.866211,113.653549 659.941772,115.454277 647.357666,129.251526 
	C643.887939,133.055771 640.683167,137.126709 637.628113,141.275116 
	C635.698059,143.896057 633.571350,144.338089 630.715088,143.266052 
	C628.030273,142.258392 625.560486,140.895477 623.383423,139.065231 
	C618.046631,134.578705 617.690918,131.792923 621.198975,125.721031 
	C627.993347,113.961021 635.855896,103.071426 646.579834,94.540253 
	C660.732483,83.281387 676.285583,82.227272 692.654602,88.732727 
	C701.179138,92.120575 709.144897,96.674141 716.965088,101.447044 
	C720.817871,103.798531 724.846680,105.756943 729.375732,107.596573 
z"/>
</svg>