<svg version="1.1" id="Layer_1" xmlns="http://www.w3.org/2000/svg" xmlns:xlink="http://www.w3.org/1999/xlink" x="0px" y="0px"
	 width="100%" viewBox="0 0 1024 544" enable-background="new 0 0 1024 544" xml:space="preserve">
<path fill="#000000" opacity="1.000000" stroke="none" 
	d="
M70.724258,419.999939 
	C70.724068,384.531067 70.724068,349.562195 70.724068,313.574097 
	C64.654388,315.994476 59.255222,317.969391 54.002453,320.277466 
	C41.193726,325.905670 28.460857,331.706299 15.675086,337.387207 
	C13.964569,338.147186 12.208188,340.016022 10.225490,338.178314 
	C8.112415,336.219727 9.048636,333.950470 9.952184,331.716644 
	C11.200806,328.629669 12.820441,325.587738 13.429076,322.365601 
	C15.726118,310.204834 23.831635,303.882782 34.643539,299.596832 
	C45.166630,295.425415 55.359543,290.423859 65.863708,286.200348 
	C69.605705,284.695740 70.819229,282.696594 70.795006,278.784943 
	C70.644318,254.454391 70.830467,230.121460 70.616531,205.791885 
	C70.577278,201.327225 72.011185,199.261047 76.286949,198.094955 
	C85.560768,195.565781 94.706535,192.567078 104.955803,189.439621 
	C104.955803,216.778183 104.955803,243.264359 104.955803,269.757202 
	C108.968895,270.705322 111.633987,269.041290 114.343292,268.086334 
	C157.082428,253.021790 200.381378,239.792557 244.224579,228.343552 
	C255.818268,225.316040 267.439514,222.385071 279.285431,220.476273 
	C284.196838,219.684860 286.240814,222.129593 284.352722,226.725143 
	C281.378418,233.964508 278.219788,241.128052 275.150085,248.328339 
	C274.210236,250.532852 272.578522,252.189880 270.916229,253.836624 
	C252.233627,272.344208 235.910767,292.681396 223.280884,315.824921 
	C212.872009,334.898682 206.470596,355.253113 204.291565,376.909302 
	C202.584793,393.872101 202.407669,410.716278 206.283554,427.509399 
	C212.769028,455.609192 231.856354,471.141418 260.672028,471.784637 
	C277.782990,472.166626 293.237274,467.440552 307.275696,457.946411 
	C310.687134,455.639282 312.695831,455.732544 314.752380,459.418884 
	C316.940186,463.340546 319.386536,467.144501 322.019135,470.783447 
	C324.279266,473.907532 323.710083,475.956787 320.734467,478.212982 
	C307.107941,488.545105 291.974945,495.801361 275.276001,499.120758 
	C256.619598,502.829193 237.827805,503.047150 219.460449,497.110992 
	C196.927094,489.828400 182.922409,474.017212 175.826599,451.868500 
	C168.569962,429.217804 168.662460,406.057495 171.287659,382.655212 
	C174.515671,353.879242 183.931396,327.283813 198.177216,302.265228 
	C205.121094,290.070312 213.370758,278.784180 222.520386,268.148590 
	C223.559326,266.940918 224.927429,265.887177 225.220154,264.201813 
	C223.422302,262.606171 221.847336,263.828888 220.366745,264.206940 
	C187.598740,272.574066 155.404449,282.822937 123.454277,293.865906 
	C119.205299,295.334473 115.057785,297.210571 110.707664,298.240875 
	C106.248421,299.297058 105.177963,301.651337 105.188095,306.011414 
	C105.325645,365.173248 105.278931,424.335449 105.279442,483.497589 
	C105.279503,491.151123 105.278732,491.133575 97.895836,493.318939 
	C90.713142,495.445129 83.544800,497.619751 76.365036,499.755890 
	C74.801598,500.221039 73.265541,501.065552 70.724449,499.941132 
	C70.724449,473.694916 70.724449,447.097443 70.724258,419.999939 
z"/>
<path fill="#000000" opacity="1.000000" stroke="none" 
	d="
M406.738953,213.703003 
	C451.931763,178.477081 518.293701,184.896515 552.276367,238.653122 
	C567.445496,262.648895 575.228943,289.028809 577.467407,317.214111 
	C579.881653,347.611786 578.921570,377.721710 570.305664,407.217163 
	C562.549438,433.769440 549.866821,457.348969 528.953857,476.063568 
	C499.556732,502.370453 452.001190,510.295929 416.685638,490.615753 
	C398.998718,480.759369 385.929047,466.393005 376.243011,448.806854 
	C362.829041,424.452240 356.733734,398.117828 354.538025,370.573334 
	C352.418671,343.986542 353.400360,317.609497 359.884338,291.767609 
	C367.533325,261.282349 381.153473,234.015030 406.738953,213.703003 
M387.250977,354.417358 
	C387.750916,362.063416 388.828430,369.625214 390.316772,377.144104 
	C395.647705,404.075989 405.359863,428.864655 424.642059,449.179291 
	C450.215851,476.122314 496.221222,477.079926 520.635437,444.739075 
	C533.917603,427.144684 540.337952,407.059692 543.607361,385.833038 
	C547.648743,359.594238 546.775757,333.324463 540.495972,307.487122 
	C534.806152,284.076996 525.595337,262.341339 508.412018,244.610260 
	C487.170959,222.692169 455.048004,217.559753 429.253754,232.582703 
	C414.200012,241.350220 404.662628,254.884552 398.242432,270.629791 
	C387.392609,297.238373 384.843872,325.061859 387.250977,354.417358 
z"/>
<path fill="#000000" opacity="1.000000" stroke="none" 
	d="
M983.567993,470.460388 
	C995.211121,485.312195 1005.839294,500.425171 1015.422913,516.283936 
	C1017.420776,519.589844 1017.249573,521.512512 1013.937195,523.563904 
	C1010.261902,525.840149 1006.859253,528.554871 1003.320984,531.054688 
	C997.711609,535.017944 997.714050,535.003174 993.658752,529.707397 
	C981.088257,513.291870 967.913269,497.392090 953.710388,482.346832 
	C918.387390,444.928833 880.741577,410.177063 838.061218,381.175171 
	C835.856750,379.677216 833.597412,378.259766 831.394165,376.759979 
	C825.164124,372.519104 824.834167,367.060486 830.470459,362.177917 
	C864.526672,332.675964 896.598206,301.163391 926.228027,267.207458 
	C935.535156,256.541473 944.813293,245.828918 953.119995,234.335724 
	C954.072510,233.017761 955.414978,231.904968 955.694885,229.813065 
	C953.673767,228.972107 951.516357,229.311188 949.437012,229.309891 
	C909.103943,229.284683 868.770813,229.292526 828.437744,229.279419 
	C820.331665,229.276794 819.173523,227.516113 822.226379,220.044373 
	C824.997925,213.260925 827.829407,206.499939 830.462646,199.662903 
	C831.571655,196.783386 833.262390,195.631546 836.426025,195.635941 
	C890.758911,195.711639 945.091980,195.674652 999.424988,195.703094 
	C1005.397888,195.706223 1008.352356,201.436401 1005.317200,206.796402 
	C988.554138,236.399048 967.587769,262.873688 944.772949,287.950806 
	C931.205627,302.863495 917.528259,317.683929 902.980103,331.658173 
	C895.291382,339.043549 887.395081,346.212463 879.622620,353.511139 
	C877.596008,355.414215 875.131104,356.942352 873.872192,359.795380 
	C915.571960,391.488892 950.979126,429.331116 983.567993,470.460388 
z"/>
<path fill="#000000" opacity="1.000000" stroke="none" 
	d="
M721.265625,264.872040 
	C721.266113,267.818268 721.266113,270.286682 721.266113,272.680786 
	C724.119690,273.638336 725.949951,272.105713 727.810669,271.292480 
	C743.547241,264.414642 759.706970,258.706696 776.070801,253.544556 
	C781.013611,251.985275 782.278931,252.933121 781.398254,257.958099 
	C779.906250,266.471863 778.061523,274.925812 776.680359,283.455963 
	C776.135132,286.823181 774.303894,288.191437 771.349487,289.146881 
	C755.970886,294.120178 740.967102,300.059753 726.171082,306.573761 
	C722.329956,308.264801 721.188477,310.498169 721.196594,314.542816 
	C721.309998,371.027893 721.176819,427.513580 721.404358,483.997925 
	C721.427002,489.626007 719.552795,491.997528 714.340698,493.247314 
	C706.904907,495.030304 699.619324,497.442200 692.277588,499.612488 
	C690.695679,500.080109 689.171814,500.848907 686.716187,500.047668 
	C686.716187,442.870392 686.716187,385.511597 686.716187,328.188019 
	C683.760803,327.681091 682.240479,329.170105 680.593384,330.149200 
	C664.797241,339.539429 650.023926,350.323883 636.375061,362.644623 
	C635.010559,363.876282 633.798279,366.095734 631.352661,364.430481 
	C629.251160,362.999542 629.833496,361.048706 630.266174,359.032410 
	C631.870789,351.555328 633.511047,344.081696 634.881409,336.560059 
	C635.690613,332.118805 637.696716,328.521912 640.759949,325.269592 
	C652.070862,313.260223 665.354248,303.808075 679.589172,295.721375 
	C684.821899,292.748718 686.942810,289.427582 686.841125,283.163727 
	C686.424683,257.510529 686.823242,231.844894 686.540161,206.188049 
	C686.484985,201.184082 688.280029,199.102112 692.789307,197.876266 
	C700.335144,195.824921 707.750366,193.295776 715.231995,191.005005 
	C720.808777,189.297470 721.264099,189.604431 721.269592,195.413376 
	C721.291199,218.406967 721.270264,241.400604 721.265625,264.872040 
z"/>
<path fill="#000000" opacity="1.000000" stroke="none" 
	d="
M713.999878,140.416016 
	C686.167114,140.409332 658.833374,140.285995 631.502319,140.498886 
	C626.363525,140.538910 624.357056,138.454437 623.586792,133.765625 
	C622.523865,127.295174 622.091919,120.889709 623.561157,114.436798 
	C624.420715,110.661392 626.494812,108.907227 630.584045,108.914391 
	C679.749512,109.000534 728.915222,108.993835 778.080811,108.932404 
	C782.016968,108.927483 784.410400,110.426727 785.334106,114.264442 
	C787.039062,121.348030 787.058167,128.427780 785.287231,135.494202 
	C784.410583,138.991943 782.460693,140.568405 778.497681,140.530975 
	C757.166626,140.329544 735.832825,140.423660 713.999878,140.416016 
z"/>
<path fill="#000000" opacity="1.000000" stroke="none" 
	d="
M712.267334,74.357025 
	C704.233582,79.734795 704.166931,79.831192 696.319641,74.405617 
	C687.502197,68.309258 679.823853,60.984013 673.121643,52.581635 
	C670.111023,48.807240 669.771729,45.339611 672.429260,41.308342 
	C679.407288,30.723215 688.309387,22.112951 698.746033,14.992798 
	C700.948608,13.490130 702.987183,13.431601 705.244263,14.689204 
	C717.211304,21.356892 727.146118,30.303648 735.313354,41.276161 
	C737.338928,43.997471 736.057007,46.332962 734.723083,48.661716 
	C729.020569,58.616726 721.351074,66.871964 712.267334,74.357025 
z"/>
</svg>